Oxanium-SemiBold.ufo
<glyph name="exclam" format="2">
  <advance width="271.42622950819674"/>
  <unicode hex="0021"/>
  <outline>
    <contour>
      <point x="70.75409836065575" y="0.0" type="line"/>
      <point x="70.75409836065575" y="130.2622950819672" type="line"/>
      <point x="201.08196721311475" y="130.2622950819672" type="line"/>
      <point x="201.08196721311475" y="0.0" type="line"/>
    </contour>
    <contour>
      <point x="74.44262295081967" y="217.75409836065575" type="line"/>
      <point x="74.44262295081967" y="690.0" type="line"/>
      <point x="196.80327868852459" y="690.0" type="line"/>
      <point x="196.80327868852459" y="217.75409836065575" type="line"/>
    </contour>
  </outline>
</glyph>
<glyph name="numbersign" format="2">
  <advance width="675.0327868852459"/>
  <unicode hex="0023"/>
  <outline>
    <contour>
      <point x="50.0" y="174.49180327868854" type="line"/>
      <point x="50.0" y="275.5081967213115" type="line"/>
      <point x="170.44262295081967" y="275.5081967213115" type="line"/>
      <point x="170.44262295081967" y="414.4918032786885" type="line"/>
      <point x="50.0" y="414.4918032786885" type="line"/>
      <point x="50.0" y="515.5081967213115" type="line"/>
      <point x="170.44262295081967" y="515.5081967213115" type="line"/>
      <point x="170.44262295081967" y="690.0" type="line"/>
      <point x="277.0" y="690.0" type="line"/>
      <point x="277.0" y="515.5081967213115" type="line"/>
      <point x="398.44262295081967" y="515.5081967213115" type="line"/>
      <point x="398.44262295081967" y="690.0" type="line"/>
      <point x="505.0" y="690.0" type="line"/>
      <point x="505.0" y="515.5081967213115" type="line"/>
      <point x="625.0327868852459" y="515.5081967213115" type="line"/>
      <point x="625.0327868852459" y="414.4918032786885" type="line"/>
      <point x="505.0" y="414.4918032786885" type="line"/>
      <point x="505.0" y="275.5081967213115" type="line"/>
      <point x="625.0327868852459" y="275.5081967213115" type="line"/>
      <point x="625.0327868852459" y="174.49180327868854" type="line"/>
      <point x="505.0" y="174.49180327868854" type="line"/>
      <point x="505.0" y="0.0" type="line"/>
      <point x="398.44262295081967" y="0.0" type="line"/>
      <point x="398.44262295081967" y="174.49180327868854" type="line"/>
      <point x="277.0" y="174.49180327868854" type="line"/>
      <point x="277.0" y="0.0" type="line"/>
      <point x="170.44262295081967" y="0.0" type="line"/>
      <point x="170.44262295081967" y="174.49180327868854" type="line"/>
    </contour>
    <contour>
      <point x="277.0" y="275.5081967213115" type="line"/>
      <point x="398.44262295081967" y="275.5081967213115" type="line"/>
      <point x="398.44262295081967" y="414.4918032786885" type="line"/>
      <point x="277.0" y="414.4918032786885" type="line"/>
    </contour>
  </outline>
</glyph>
<glyph name="dollar" format="2">
  <advance width="578.0"/>
  <unicode hex="0024"/>
  <outline>
    <contour>
      <point x="61.24590163934426" y="45.65573770491803" type="line"/>
      <point x="61.24590163934426" y="110.68852459016394" type="line"/>
      <point x="350.60655737704917" y="110.68852459016394" type="line" smooth="yes"/>
      <point x="394.39344262295083" y="110.68852459016394"/>
      <point x="394.39344262295083" y="154.0655737704918" type="qcurve" smooth="yes"/>
      <point x="394.39344262295083" y="215.85245901639345" type="line" smooth="yes"/>
      <point x="394.39344262295083" y="254.44262295081967"/>
      <point x="359.8524590163934" y="260.95081967213116" type="qcurve" smooth="yes"/>
      <point x="177.63934426229508" y="297.04918032786884" type="line" smooth="yes"/>
      <point x="61.24590163934426" y="319.40983606557376"/>
      <point x="61.24590163934426" y="453.57377049180326" type="qcurve" smooth="yes"/>
      <point x="61.24590163934426" y="491.21311475409834" type="line" smooth="yes"/>
      <point x="61.24590163934426" y="660.0"/>
      <point x="215.27868852459017" y="660.0" type="qcurve" smooth="yes"/>
      <point x="237.72131147540983" y="660.0" type="line"/>
      <point x="237.72131147540983" y="780.0" type="line"/>
      <point x="340.27868852459017" y="780.0" type="line"/>
      <point x="340.27868852459017" y="660.0" type="line"/>
      <point x="437.60655737704917" y="660.0" type="line"/>
      <point x="496.75409836065575" y="614.344262295082" type="line"/>
      <point x="496.75409836065575" y="549.311475409836" type="line"/>
      <point x="227.39344262295083" y="549.311475409836" type="line" smooth="yes"/>
      <point x="183.60655737704917" y="549.311475409836"/>
      <point x="183.60655737704917" y="505.9344262295082" type="qcurve" smooth="yes"/>
      <point x="183.60655737704917" y="451.0655737704918" type="line" smooth="yes"/>
      <point x="183.60655737704917" y="412.0655737704918"/>
      <point x="218.14754098360655" y="405.55737704918033" type="qcurve" smooth="yes"/>
      <point x="400.3606557377049" y="368.6885245901639" type="line" smooth="yes"/>
      <point x="516.7540983606557" y="344.73770491803276"/>
      <point x="516.7540983606557" y="212.75409836065575" type="qcurve" smooth="yes"/>
      <point x="516.7540983606557" y="168.78688524590163" type="line" smooth="yes"/>
      <point x="516.7540983606557" y="0.0"/>
      <point x="362.72131147540983" y="0.0" type="qcurve" smooth="yes"/>
      <point x="340.27868852459017" y="0.0" type="line"/>
      <point x="340.27868852459017" y="-120.0" type="line"/>
      <point x="237.72131147540983" y="-120.0" type="line"/>
      <point x="237.72131147540983" y="0.0" type="line"/>
      <point x="120.39344262295081" y="0.0" type="line"/>
    </contour>
  </outline>
</glyph>
<glyph name="ampersand" format="2">
  <advance width="670.0655737704918"/>
  <unicode hex="0026"/>
  <outline>
    <contour>
      <point x="64.9672131147541" y="157.75409836065575" type="qcurve" smooth="yes"/>
      <point x="64.9672131147541" y="250.9672131147541" type="line" smooth="yes"/>
      <point x="64.9672131147541" y="302.9672131147541"/>
      <point x="97.9672131147541" y="330.9672131147541" type="qcurve" smooth="yes"/>
      <point x="139.9672131147541" y="365.9672131147541" type="line"/>
      <point x="104.9672131147541" y="407.9672131147541" type="line" smooth="yes"/>
      <point x="84.9672131147541" y="431.9672131147541"/>
      <point x="84.9672131147541" y="465.9672131147541" type="qcurve" smooth="yes"/>
      <point x="84.9672131147541" y="532.2459016393443" type="line" smooth="yes"/>
      <point x="84.9672131147541" y="690.0"/>
      <point x="242.72131147540983" y="690.0" type="qcurve" smooth="yes"/>
      <point x="427.27868852459017" y="690.0" type="line"/>
      <point x="480.0655737704918" y="650.7049180327868" type="line"/>
      <point x="480.0655737704918" y="588.0327868852459" type="line"/>
      <point x="247.75409836065575" y="588.0327868852459" type="line" smooth="yes"/>
      <point x="201.9672131147541" y="588.0327868852459"/>
      <point x="201.9672131147541" y="542.2459016393443" type="qcurve" smooth="yes"/>
      <point x="201.9672131147541" y="458.57377049180326" type="line" smooth="yes"/>
      <point x="201.9672131147541" y="412.78688524590166"/>
      <point x="247.75409836065575" y="412.78688524590166" type="qcurve" smooth="yes"/>
      <point x="630.0655737704918" y="412.78688524590166" type="line"/>
      <point x="630.0655737704918" y="310.8196721311475" type="line"/>
      <point x="530.0655737704918" y="310.8196721311475" type="line"/>
      <point x="530.0655737704918" y="0.0" type="line"/>
      <point x="222.72131147540983" y="0.0" type="line" smooth="yes"/>
      <point x="64.9672131147541" y="0.0"/>
    </contour>
    <contour>
      <point x="181.9672131147541" y="147.75409836065575" type="line" smooth="yes"/>
      <point x="181.9672131147541" y="101.96721311475409"/>
      <point x="227.75409836065575" y="101.96721311475409" type="qcurve" smooth="yes"/>
      <point x="413.0655737704918" y="101.96721311475409" type="line"/>
      <point x="413.0655737704918" y="310.8196721311475" type="line"/>
      <point x="227.75409836065575" y="310.8196721311475" type="line" smooth="yes"/>
      <point x="181.9672131147541" y="310.8196721311475"/>
      <point x="181.9672131147541" y="265.0327868852459" type="qcurve" smooth="yes"/>
    </contour>
  </outline>
</glyph>
<glyph name="quotesingle" format="2">
  <advance width="235.9016393442623"/>
  <unicode hex="0027"/>
  <outline>
    <contour>
      <point x="64.9672131147541" y="477.21311475409834" type="line"/>
      <point x="64.9672131147541" y="740.0" type="line"/>
      <point x="170.9344262295082" y="740.0" type="line"/>
      <point x="170.9344262295082" y="477.21311475409834" type="line"/>
    </contour>
  </outline>
</glyph>
<glyph name="parenleft" format="2">
  <advance width="334.62295081967216"/>
  <unicode hex="0028"/>
  <outline>
    <contour>
      <point x="226.50819672131146" y="776.3934426229508" type="qcurve"/>
      <point x="315.57377049180326" y="709.672131147541" type="line"/>
      <point x="184.14754098360655" y="525.0655737704918"/>
      <point x="184.14754098360655" y="54.9344262295082"/>
      <point x="315.57377049180326" y="-129.672131147541" type="qcurve"/>
      <point x="226.50819672131146" y="-196.39344262295083" type="line"/>
      <point x="67.14754098360656" y="20.098360655737707"/>
      <point x="67.14754098360656" y="559.9016393442623"/>
    </contour>
  </outline>
</glyph>
<glyph name="parenright" format="2">
  <advance width="334.62295081967216"/>
  <unicode hex="0029"/>
  <outline>
    <contour>
      <point x="19.049180327868854" y="-129.672131147541" type="line"/>
      <point x="150.47540983606558" y="54.9344262295082"/>
      <point x="150.47540983606558" y="525.0655737704918"/>
      <point x="19.049180327868854" y="709.672131147541" type="qcurve"/>
      <point x="107.52459016393442" y="776.3934426229508" type="line"/>
      <point x="267.4754098360656" y="559.9016393442623"/>
      <point x="267.4754098360656" y="20.098360655737707"/>
      <point x="107.52459016393442" y="-196.39344262295083" type="qcurve"/>
    </contour>
  </outline>
</glyph>
<glyph name="asterisk" format="2">
  <advance width="509.11475409836066"/>
  <unicode hex="002A"/>
  <outline>
    <contour>
      <point x="41.0" y="502.44262295081967" type="line"/>
      <point x="68.52459016393442" y="585.9672131147541" type="line"/>
      <point x="208.70491803278688" y="544.1803278688525" type="line"/>
      <point x="208.70491803278688" y="690.0" type="line"/>
      <point x="301.0" y="690.0" type="line"/>
      <point x="301.0" y="544.1803278688525" type="line"/>
      <point x="440.7704918032787" y="585.9672131147541" type="line"/>
      <point x="468.11475409836066" y="502.44262295081967" type="line"/>
      <point x="329.9344262295082" y="455.24590163934425" type="line"/>
      <point x="414.27868852459017" y="335.75409836065575" type="line"/>
      <point x="342.60655737704917" y="283.88524590163934" type="line"/>
      <point x="254.2622950819672" y="400.1475409836066" type="line"/>
      <point x="166.50819672131146" y="283.88524590163934" type="line"/>
      <point x="95.42622950819673" y="335.75409836065575" type="line"/>
      <point x="179.18032786885246" y="455.24590163934425" type="line"/>
    </contour>
  </outline>
</glyph>
<glyph name="plus" format="2">
  <advance width="578.0"/>
  <unicode hex="002B"/>
  <outline>
    <contour>
      <point x="61.278688524590166" y="284.4918032786885" type="line"/>
      <point x="61.278688524590166" y="385.5081967213115" type="line"/>
      <point x="235.72131147540983" y="385.5081967213115" type="line"/>
      <point x="235.72131147540983" y="570.0" type="line"/>
      <point x="342.27868852459017" y="570.0" type="line"/>
      <point x="342.27868852459017" y="385.5081967213115" type="line"/>
      <point x="516.7213114754098" y="385.5081967213115" type="line"/>
      <point x="516.7213114754098" y="284.4918032786885" type="line"/>
      <point x="342.27868852459017" y="284.4918032786885" type="line"/>
      <point x="342.27868852459017" y="100.0" type="line"/>
      <point x="235.72131147540983" y="100.0" type="line"/>
      <point x="235.72131147540983" y="284.4918032786885" type="line"/>
    </contour>
  </outline>
</glyph>
<glyph name="comma" format="2">
  <advance width="271.42622950819674"/>
  <unicode hex="002C"/>
  <outline>
    <contour>
      <point x="25.606557377049178" y="-124.81967213114754" type="line"/>
      <point x="83.73770491803279" y="130.2622950819672" type="line"/>
      <point x="196.70491803278688" y="130.2622950819672" type="line"/>
      <point x="209.19672131147541" y="111.40983606557377" type="line"/>
      <point x="113.36065573770492" y="-146.39344262295083" type="line"/>
    </contour>
  </outline>
</glyph>
<glyph name="hyphen" format="2">
  <advance width="372.78688524590166"/>
  <unicode hex="002D"/>
  <outline>
    <contour>
      <point x="40.0" y="254.49180327868854" type="line"/>
      <point x="40.0" y="355.5081967213115" type="line"/>
      <point x="332.78688524590166" y="355.5081967213115" type="line"/>
      <point x="332.78688524590166" y="254.49180327868854" type="line"/>
    </contour>
  </outline>
</glyph>
<glyph name="period" format="2">
  <advance width="271.42622950819674"/>
  <unicode hex="002E"/>
  <outline>
    <contour>
      <point x="70.75409836065575" y="0.0" type="line"/>
      <point x="70.75409836065575" y="130.2622950819672" type="line"/>
      <point x="201.08196721311475" y="130.2622950819672" type="line"/>
      <point x="201.08196721311475" y="0.0" type="line"/>
    </contour>
  </outline>
</glyph>
<glyph name="zero" format="2">
  <advance width="578.0"/>
  <unicode hex="0030"/>
  <outline>
    <contour>
      <point x="56.24590163934426" y="162.88524590163934" type="qcurve" smooth="yes"/>
      <point x="56.24590163934426" y="527.1147540983607" type="line" smooth="yes"/>
      <point x="56.24590163934426" y="690.0"/>
      <point x="219.13114754098362" y="690.0" type="qcurve" smooth="yes"/>
      <point x="358.8688524590164" y="690.0" type="line" smooth="yes"/>
      <point x="521.7540983606557" y="690.0"/>
      <point x="521.7540983606557" y="527.1147540983607" type="qcurve" smooth="yes"/>
      <point x="521.7540983606557" y="162.88524590163934" type="line" smooth="yes"/>
      <point x="521.7540983606557" y="0.0"/>
      <point x="358.8688524590164" y="0.0" type="qcurve" smooth="yes"/>
      <point x="219.13114754098362" y="0.0" type="line" smooth="yes"/>
      <point x="56.24590163934426" y="0.0"/>
    </contour>
    <contour>
      <point x="178.60655737704917" y="154.0655737704918" type="line" smooth="yes"/>
      <point x="178.60655737704917" y="110.68852459016394"/>
      <point x="222.39344262295083" y="110.68852459016394" type="qcurve" smooth="yes"/>
      <point x="355.60655737704917" y="110.68852459016394" type="line" smooth="yes"/>
      <point x="399.39344262295083" y="110.68852459016394"/>
      <point x="399.39344262295083" y="154.0655737704918" type="qcurve" smooth="yes"/>
      <point x="399.39344262295083" y="535.9344262295082" type="line" smooth="yes"/>
      <point x="399.39344262295083" y="579.311475409836"/>
      <point x="355.60655737704917" y="579.311475409836" type="qcurve" smooth="yes"/>
      <point x="222.39344262295083" y="579.311475409836" type="line" smooth="yes"/>
      <point x="178.60655737704917" y="579.311475409836"/>
      <point x="178.60655737704917" y="535.9344262295082" type="qcurve" smooth="yes"/>
    </contour>
  </outline>
</glyph>
<glyph name="one" format="2">
  <advance width="578.0"/>
  <unicode hex="0031"/>
  <outline>
    <contour>
      <point x="84.24590163934427" y="0.0" type="line"/>
      <point x="84.24590163934427" y="110.68852459016394" type="line"/>
      <point x="243.81967213114754" y="110.68852459016394" type="line"/>
      <point x="243.81967213114754" y="579.311475409836" type="line"/>
      <point x="112.85245901639344" y="579.311475409836" type="line"/>
      <point x="112.85245901639344" y="644.344262295082" type="line"/>
      <point x="172.0" y="690.0" type="line"/>
      <point x="366.1803278688525" y="690.0" type="line"/>
      <point x="366.1803278688525" y="110.68852459016394" type="line"/>
      <point x="509.75409836065575" y="110.68852459016394" type="line"/>
      <point x="509.75409836065575" y="0.0" type="line"/>
    </contour>
  </outline>
</glyph>
<glyph name="two" format="2">
  <advance width="578.0"/>
  <unicode hex="0032"/>
  <outline>
    <contour>
      <point x="56.24590163934426" y="0.0" type="line"/>
      <point x="56.24590163934426" y="219.29508196721312" type="line" smooth="yes"/>
      <point x="56.24590163934426" y="352.45901639344265"/>
      <point x="172.63934426229508" y="375.8196721311475" type="qcurve" smooth="yes"/>
      <point x="364.8524590163934" y="414.5081967213115" type="line" smooth="yes"/>
      <point x="399.39344262295083" y="421.60655737704917"/>
      <point x="399.39344262295083" y="459.60655737704917" type="qcurve" smooth="yes"/>
      <point x="399.39344262295083" y="535.9344262295082" type="line" smooth="yes"/>
      <point x="399.39344262295083" y="579.311475409836"/>
      <point x="355.60655737704917" y="579.311475409836" type="qcurve" smooth="yes"/>
      <point x="76.24590163934427" y="579.311475409836" type="line"/>
      <point x="76.24590163934427" y="644.344262295082" type="line"/>
      <point x="135.39344262295083" y="690.0" type="line"/>
      <point x="358.8688524590164" y="690.0" type="line" smooth="yes"/>
      <point x="521.7540983606557" y="690.0"/>
      <point x="521.7540983606557" y="527.1147540983607" type="qcurve" smooth="yes"/>
      <point x="521.7540983606557" y="462.7049180327869" type="line" smooth="yes"/>
      <point x="521.7540983606557" y="329.54098360655735"/>
      <point x="405.3606557377049" y="306.1803278688525" type="qcurve" smooth="yes"/>
      <point x="213.14754098360655" y="267.4918032786885" type="line" smooth="yes"/>
      <point x="178.60655737704917" y="260.39344262295083"/>
      <point x="178.60655737704917" y="222.39344262295083" type="qcurve" smooth="yes"/>
      <point x="178.60655737704917" y="110.68852459016394" type="line"/>
      <point x="521.7540983606557" y="110.68852459016394" type="line"/>
      <point x="521.7540983606557" y="0.0" type="line"/>
    </contour>
  </outline>
</glyph>
<glyph name="three" format="2">
  <advance width="578.0"/>
  <unicode hex="0033"/>
  <outline>
    <contour>
      <point x="66.24590163934427" y="45.65573770491803" type="line"/>
      <point x="66.24590163934427" y="110.68852459016394" type="line"/>
      <point x="355.60655737704917" y="110.68852459016394" type="line" smooth="yes"/>
      <point x="399.39344262295083" y="110.68852459016394"/>
      <point x="399.39344262295083" y="154.0655737704918" type="qcurve" smooth="yes"/>
      <point x="399.39344262295083" y="258.72131147540983" type="line" smooth="yes"/>
      <point x="399.39344262295083" y="302.0983606557377"/>
      <point x="355.60655737704917" y="302.0983606557377" type="qcurve" smooth="yes"/>
      <point x="140.24590163934425" y="302.0983606557377" type="line"/>
      <point x="140.24590163934425" y="412.78688524590166" type="line"/>
      <point x="355.60655737704917" y="412.78688524590166" type="line" smooth="yes"/>
      <point x="399.39344262295083" y="412.78688524590166"/>
      <point x="399.39344262295083" y="456.57377049180326" type="qcurve" smooth="yes"/>
      <point x="399.39344262295083" y="535.9344262295082" type="line" smooth="yes"/>
      <point x="399.39344262295083" y="579.311475409836"/>
      <point x="355.60655737704917" y="579.311475409836" type="qcurve" smooth="yes"/>
      <point x="76.24590163934427" y="579.311475409836" type="line"/>
      <point x="76.24590163934427" y="644.344262295082" type="line"/>
      <point x="135.39344262295083" y="690.0" type="line"/>
      <point x="358.8688524590164" y="690.0" type="line" smooth="yes"/>
      <point x="521.7540983606557" y="690.0"/>
      <point x="521.7540983606557" y="527.1147540983607" type="qcurve" smooth="yes"/>
      <point x="521.7540983606557" y="460.327868852459" type="line" smooth="yes"/>
      <point x="521.7540983606557" y="420.327868852459"/>
      <point x="496.75409836065575" y="395.327868852459" type="qcurve" smooth="yes"/>
      <point x="461.75409836065575" y="360.327868852459" type="line"/>
      <point x="496.75409836065575" y="325.327868852459" type="line" smooth="yes"/>
      <point x="521.7540983606557" y="300.327868852459"/>
      <point x="521.7540983606557" y="260.327868852459" type="qcurve" smooth="yes"/>
      <point x="521.7540983606557" y="162.88524590163934" type="line" smooth="yes"/>
      <point x="521.7540983606557" y="0.0"/>
      <point x="358.8688524590164" y="0.0" type="qcurve" smooth="yes"/>
      <point x="125.39344262295081" y="0.0" type="line"/>
    </contour>
  </outline>
</glyph>
<glyph name="four" format="2">
  <advance width="578.0"/>
  <unicode hex="0034"/>
  <outline>
    <contour>
      <point x="56.24590163934426" y="111.36065573770492" type="line"/>
      <point x="56.24590163934426" y="211.9672131147541" type="line"/>
      <point x="274.45901639344265" y="690.0" type="line"/>
      <point x="377.78688524590166" y="690.0" type="line"/>
      <point x="392.45901639344265" y="663.6065573770492" type="line"/>
      <point x="190.5081967213115" y="222.63934426229508" type="line"/>
      <point x="399.39344262295083" y="222.63934426229508" type="line"/>
      <point x="399.39344262295083" y="430.0" type="line"/>
      <point x="521.7540983606557" y="430.0" type="line"/>
      <point x="521.7540983606557" y="0.0" type="line"/>
      <point x="399.39344262295083" y="0.0" type="line"/>
      <point x="399.39344262295083" y="111.36065573770492" type="line"/>
    </contour>
  </outline>
</glyph>
<glyph name="five" format="2">
  <advance width="578.0"/>
  <unicode hex="0035"/>
  <outline>
    <contour>
      <point x="46.24590163934426" y="45.65573770491803" type="line"/>
      <point x="46.24590163934426" y="110.68852459016394" type="line"/>
      <point x="355.60655737704917" y="110.68852459016394" type="line" smooth="yes"/>
      <point x="399.39344262295083" y="110.68852459016394"/>
      <point x="399.39344262295083" y="154.0655737704918" type="qcurve" smooth="yes"/>
      <point x="399.39344262295083" y="268.72131147540983" type="line" smooth="yes"/>
      <point x="399.39344262295083" y="312.0983606557377"/>
      <point x="355.60655737704917" y="312.0983606557377" type="qcurve" smooth="yes"/>
      <point x="56.24590163934426" y="312.0983606557377" type="line"/>
      <point x="56.24590163934426" y="690.0" type="line"/>
      <point x="491.75409836065575" y="690.0" type="line"/>
      <point x="491.75409836065575" y="579.311475409836" type="line"/>
      <point x="178.60655737704917" y="579.311475409836" type="line"/>
      <point x="178.60655737704917" y="422.78688524590166" type="line"/>
      <point x="358.8688524590164" y="422.78688524590166" type="line" smooth="yes"/>
      <point x="521.7540983606557" y="422.78688524590166"/>
      <point x="521.7540983606557" y="259.9016393442623" type="qcurve" smooth="yes"/>
      <point x="521.7540983606557" y="162.88524590163934" type="line" smooth="yes"/>
      <point x="521.7540983606557" y="0.0"/>
      <point x="358.8688524590164" y="0.0" type="qcurve" smooth="yes"/>
      <point x="105.39344262295081" y="0.0" type="line"/>
    </contour>
  </outline>
</glyph>
<glyph name="six" format="2">
  <advance width="578.0"/>
  <unicode hex="0036"/>
  <outline>
    <contour>
      <point x="56.24590163934426" y="162.88524590163934" type="qcurve" smooth="yes"/>
      <point x="56.24590163934426" y="494.57377049180326" type="line" smooth="yes"/>
      <point x="56.24590163934426" y="690.0"/>
      <point x="251.672131147541" y="690.0" type="qcurve" smooth="yes"/>
      <point x="422.60655737704917" y="690.0" type="line"/>
      <point x="481.75409836065575" y="644.344262295082" type="line"/>
      <point x="481.75409836065575" y="579.311475409836" type="line"/>
      <point x="247.672131147541" y="579.311475409836" type="line" smooth="yes"/>
      <point x="178.60655737704917" y="579.311475409836"/>
      <point x="178.60655737704917" y="510.24590163934425" type="qcurve" smooth="yes"/>
      <point x="178.60655737704917" y="422.78688524590166" type="line"/>
      <point x="358.8688524590164" y="422.78688524590166" type="line" smooth="yes"/>
      <point x="521.7540983606557" y="422.78688524590166"/>
      <point x="521.7540983606557" y="259.9016393442623" type="qcurve" smooth="yes"/>
      <point x="521.7540983606557" y="162.88524590163934" type="line" smooth="yes"/>
      <point x="521.7540983606557" y="0.0"/>
      <point x="358.8688524590164" y="0.0" type="qcurve" smooth="yes"/>
      <point x="219.13114754098362" y="0.0" type="line" smooth="yes"/>
      <point x="56.24590163934426" y="0.0"/>
    </contour>
    <contour>
      <point x="178.60655737704917" y="154.0655737704918" type="line" smooth="yes"/>
      <point x="178.60655737704917" y="110.68852459016394"/>
      <point x="222.39344262295083" y="110.68852459016394" type="qcurve" smooth="yes"/>
      <point x="355.60655737704917" y="110.68852459016394" type="line" smooth="yes"/>
      <point x="399.39344262295083" y="110.68852459016394"/>
      <point x="399.39344262295083" y="154.0655737704918" type="qcurve" smooth="yes"/>
      <point x="399.39344262295083" y="268.72131147540983" type="line" smooth="yes"/>
      <point x="399.39344262295083" y="312.0983606557377"/>
      <point x="355.60655737704917" y="312.0983606557377" type="qcurve" smooth="yes"/>
      <point x="178.60655737704917" y="312.0983606557377" type="line"/>
    </contour>
  </outline>
</glyph>
<glyph name="seven" format="2">
  <advance width="578.0"/>
  <unicode hex="0037"/>
  <outline>
    <contour>
      <point x="56.24590163934426" y="579.311475409836" type="line"/>
      <point x="56.24590163934426" y="690.0" type="line"/>
      <point x="521.7540983606557" y="690.0" type="line"/>
      <point x="521.7540983606557" y="489.42622950819674" type="line"/>
      <point x="265.3114754098361" y="0.0" type="line"/>
      <point x="156.0327868852459" y="0.0" type="line"/>
      <point x="140.95081967213116" y="26.393442622950822" type="line"/>
      <point x="399.39344262295083" y="515.0" type="line"/>
      <point x="399.39344262295083" y="579.311475409836" type="line"/>
    </contour>
  </outline>
</glyph>
<glyph name="eight" format="2">
  <advance width="578.0"/>
  <unicode hex="0038"/>
  <outline>
    <contour>
      <point x="56.24590163934426" y="162.88524590163934" type="qcurve" smooth="yes"/>
      <point x="56.24590163934426" y="259.73770491803276" type="line" smooth="yes"/>
      <point x="56.24590163934426" y="299.73770491803276"/>
      <point x="81.24590163934427" y="324.1475409836066" type="qcurve" smooth="yes"/>
      <point x="116.24590163934427" y="359.73770491803276" type="line"/>
      <point x="81.24590163934427" y="394.1475409836066" type="line" smooth="yes"/>
      <point x="56.24590163934426" y="419.73770491803276"/>
      <point x="56.24590163934426" y="459.73770491803276" type="qcurve" smooth="yes"/>
      <point x="56.24590163934426" y="527.1147540983607" type="line" smooth="yes"/>
      <point x="56.24590163934426" y="690.0"/>
      <point x="219.13114754098362" y="690.0" type="qcurve" smooth="yes"/>
      <point x="358.8688524590164" y="690.0" type="line" smooth="yes"/>
      <point x="521.7540983606557" y="690.0"/>
      <point x="521.7540983606557" y="527.1147540983607" type="qcurve" smooth="yes"/>
      <point x="521.7540983606557" y="459.73770491803276" type="line" smooth="yes"/>
      <point x="521.7540983606557" y="419.73770491803276"/>
      <point x="496.75409836065575" y="394.1475409836066" type="qcurve" smooth="yes"/>
      <point x="461.75409836065575" y="359.73770491803276" type="line"/>
      <point x="496.75409836065575" y="324.1475409836066" type="line" smooth="yes"/>
      <point x="521.7540983606557" y="299.73770491803276"/>
      <point x="521.7540983606557" y="259.73770491803276" type="qcurve" smooth="yes"/>
      <point x="521.7540983606557" y="162.88524590163934" type="line" smooth="yes"/>
      <point x="521.7540983606557" y="0.0"/>
      <point x="358.8688524590164" y="0.0" type="qcurve" smooth="yes"/>
      <point x="219.13114754098362" y="0.0" type="line" smooth="yes"/>
      <point x="56.24590163934426" y="0.0"/>
    </contour>
    <contour>
      <point x="178.60655737704917" y="154.0655737704918" type="line" smooth="yes"/>
      <point x="178.60655737704917" y="110.68852459016394"/>
      <point x="222.39344262295083" y="110.68852459016394" type="qcurve" smooth="yes"/>
      <point x="355.60655737704917" y="110.68852459016394" type="line" smooth="yes"/>
      <point x="399.39344262295083" y="110.68852459016394"/>
      <point x="399.39344262295083" y="154.0655737704918" type="qcurve" smooth="yes"/>
      <point x="399.39344262295083" y="258.72131147540983" type="line" smooth="yes"/>
      <point x="399.39344262295083" y="302.0983606557377"/>
      <point x="355.60655737704917" y="302.0983606557377" type="qcurve" smooth="yes"/>
      <point x="222.39344262295083" y="302.0983606557377" type="line" smooth="yes"/>
      <point x="178.60655737704917" y="302.0983606557377"/>
      <point x="178.60655737704917" y="258.72131147540983" type="qcurve" smooth="yes"/>
    </contour>
    <contour>
      <point x="178.60655737704917" y="456.57377049180326" type="line" smooth="yes"/>
      <point x="178.60655737704917" y="412.78688524590166"/>
      <point x="222.39344262295083" y="412.78688524590166" type="qcurve" smooth="yes"/>
      <point x="355.60655737704917" y="412.78688524590166" type="line" smooth="yes"/>
      <point x="399.39344262295083" y="412.78688524590166"/>
      <point x="399.39344262295083" y="456.57377049180326" type="qcurve" smooth="yes"/>
      <point x="399.39344262295083" y="535.9344262295082" type="line" smooth="yes"/>
      <point x="399.39344262295083" y="579.311475409836"/>
      <point x="355.60655737704917" y="579.311475409836" type="qcurve" smooth="yes"/>
      <point x="222.39344262295083" y="579.311475409836" type="line" smooth="yes"/>
      <point x="178.60655737704917" y="579.311475409836"/>
      <point x="178.60655737704917" y="535.9344262295082" type="qcurve" smooth="yes"/>
    </contour>
  </outline>
</glyph>
<glyph name="nine" format="2">
  <advance width="578.0"/>
  <unicode hex="0039"/>
  <outline>
    <contour>
      <point x="56.24590163934426" y="429.5081967213115" type="qcurve" smooth="yes"/>
      <point x="56.24590163934426" y="527.1147540983607" type="line" smooth="yes"/>
      <point x="56.24590163934426" y="690.0"/>
      <point x="219.13114754098362" y="690.0" type="qcurve" smooth="yes"/>
      <point x="358.8688524590164" y="690.0" type="line" smooth="yes"/>
      <point x="521.7540983606557" y="690.0"/>
      <point x="521.7540983606557" y="527.1147540983607" type="qcurve" smooth="yes"/>
      <point x="521.7540983606557" y="195.4262295081967" type="line" smooth="yes"/>
      <point x="521.7540983606557" y="0.0"/>
      <point x="326.327868852459" y="0.0" type="qcurve" smooth="yes"/>
      <point x="145.39344262295083" y="0.0" type="line"/>
      <point x="86.24590163934427" y="45.65573770491803" type="line"/>
      <point x="86.24590163934427" y="110.68852459016394" type="line"/>
      <point x="330.327868852459" y="110.68852459016394" type="line" smooth="yes"/>
      <point x="399.39344262295083" y="110.68852459016394"/>
      <point x="399.39344262295083" y="179.75409836065575" type="qcurve" smooth="yes"/>
      <point x="399.39344262295083" y="267.21311475409834" type="line"/>
      <point x="219.13114754098362" y="267.21311475409834" type="line" smooth="yes"/>
      <point x="56.24590163934426" y="267.21311475409834"/>
    </contour>
    <contour>
      <point x="178.60655737704917" y="421.6885245901639" type="line" smooth="yes"/>
      <point x="178.60655737704917" y="377.9016393442623"/>
      <point x="222.39344262295083" y="377.9016393442623" type="qcurve" smooth="yes"/>
      <point x="399.39344262295083" y="377.9016393442623" type="line"/>
      <point x="399.39344262295083" y="535.9344262295082" type="line" smooth="yes"/>
      <point x="399.39344262295083" y="579.311475409836"/>
      <point x="355.60655737704917" y="579.311475409836" type="qcurve" smooth="yes"/>
      <point x="222.39344262295083" y="579.311475409836" type="line" smooth="yes"/>
      <point x="178.60655737704917" y="579.311475409836"/>
      <point x="178.60655737704917" y="535.9344262295082" type="qcurve" smooth="yes"/>
    </contour>
  </outline>
</glyph>
<glyph name="less" format="2">
  <advance width="578.0"/>
  <unicode hex="003C"/>
  <outline>
    <contour>
      <point x="64.0" y="279.54098360655735" type="line"/>
      <point x="64.0" y="390.45901639344265" type="line"/>
      <point x="477.60655737704917" y="587.9672131147541" type="line"/>
      <point x="520.3934426229508" y="498.44262295081967" type="line"/>
      <point x="170.8688524590164" y="335.0" type="line"/>
      <point x="520.3934426229508" y="171.55737704918033" type="line"/>
      <point x="477.60655737704917" y="82.0327868852459" type="line"/>
    </contour>
  </outline>
</glyph>
<glyph name="equal" format="2">
  <advance width="578.0"/>
  <unicode hex="003D"/>
  <outline>
    <contour>
      <point x="61.278688524590166" y="174.49180327868854" type="line"/>
      <point x="61.278688524590166" y="275.5081967213115" type="line"/>
      <point x="516.7213114754098" y="275.5081967213115" type="line"/>
      <point x="516.7213114754098" y="174.49180327868854" type="line"/>
    </contour>
    <contour>
      <point x="61.278688524590166" y="394.4918032786885" type="line"/>
      <point x="61.278688524590166" y="495.5081967213115" type="line"/>
      <point x="516.7213114754098" y="495.5081967213115" type="line"/>
      <point x="516.7213114754098" y="394.4918032786885" type="line"/>
    </contour>
  </outline>
</glyph>
<glyph name="greater" format="2">
  <advance width="578.0"/>
  <unicode hex="003E"/>
  <outline>
    <contour>
      <point x="57.60655737704918" y="171.55737704918033" type="line"/>
      <point x="407.1311475409836" y="335.0" type="line"/>
      <point x="57.60655737704918" y="498.44262295081967" type="line"/>
      <point x="100.39344262295081" y="587.9672131147541" type="line"/>
      <point x="514.0" y="390.45901639344265" type="line"/>
      <point x="514.0" y="279.54098360655735" type="line"/>
      <point x="100.39344262295081" y="82.0327868852459" type="line"/>
    </contour>
  </outline>
</glyph>
<glyph name="question" format="2">
  <advance width="515.5081967213115"/>
  <unicode hex="003F"/>
  <outline>
    <contour>
      <point x="40.0" y="579.311475409836" type="line"/>
      <point x="40.0" y="644.344262295082" type="line"/>
      <point x="99.14754098360656" y="690.0" type="line"/>
      <point x="302.62295081967216" y="690.0" type="line" smooth="yes"/>
      <point x="465.5081967213115" y="690.0"/>
      <point x="465.5081967213115" y="527.1147540983607" type="qcurve" smooth="yes"/>
      <point x="465.5081967213115" y="447.27868852459017" type="line" smooth="yes"/>
      <point x="465.5081967213115" y="278.4918032786885"/>
      <point x="309.11475409836066" y="278.4918032786885" type="qcurve" smooth="yes"/>
      <point x="280.9344262295082" y="278.4918032786885" type="line"/>
      <point x="280.9344262295082" y="217.75409836065575" type="line"/>
      <point x="158.5737704918033" y="217.75409836065575" type="line"/>
      <point x="158.5737704918033" y="389.1803278688525" type="line"/>
      <point x="299.3606557377049" y="389.1803278688525" type="line" smooth="yes"/>
      <point x="343.1475409836066" y="389.1803278688525"/>
      <point x="343.1475409836066" y="432.9672131147541" type="qcurve" smooth="yes"/>
      <point x="343.1475409836066" y="535.9344262295082" type="line" smooth="yes"/>
      <point x="343.1475409836066" y="579.311475409836"/>
      <point x="299.3606557377049" y="579.311475409836" type="qcurve" smooth="yes"/>
    </contour>
    <contour>
      <point x="154.29508196721312" y="0.0" type="line"/>
      <point x="154.29508196721312" y="130.2622950819672" type="line"/>
      <point x="285.21311475409834" y="130.2622950819672" type="line"/>
      <point x="285.21311475409834" y="0.0" type="line"/>
    </contour>
  </outline>
</glyph>
<glyph name="at" format="2">
  <advance width="805.0327868852459"/>
  <unicode hex="0040"/>
  <outline>
    <contour>
      <point x="84.9672131147541" y="12.62295081967213" type="qcurve" smooth="yes"/>
      <point x="84.9672131147541" y="537.3770491803278" type="line" smooth="yes"/>
      <point x="84.9672131147541" y="690.0"/>
      <point x="237.18032786885246" y="690.0" type="qcurve" smooth="yes"/>
      <point x="720.0655737704918" y="690.0" type="line"/>
      <point x="720.0655737704918" y="60.0" type="line"/>
      <point x="462.72131147540983" y="60.0" type="line" smooth="yes"/>
      <point x="304.9672131147541" y="60.0"/>
      <point x="304.9672131147541" y="217.75409836065575" type="qcurve" smooth="yes"/>
      <point x="304.9672131147541" y="332.24590163934425" type="line" smooth="yes"/>
      <point x="304.9672131147541" y="490.0"/>
      <point x="462.72131147540983" y="490.0" type="qcurve" smooth="yes"/>
      <point x="614.0983606557377" y="490.0" type="line"/>
      <point x="614.0983606557377" y="597.7049180327868" type="line"/>
      <point x="239.9016393442623" y="597.7049180327868" type="line" smooth="yes"/>
      <point x="190.9344262295082" y="597.7049180327868"/>
      <point x="190.9344262295082" y="548.1475409836065" type="qcurve" smooth="yes"/>
      <point x="190.9344262295082" y="1.8524590163934427" type="line" smooth="yes"/>
      <point x="190.9344262295082" y="-47.704918032786885"/>
      <point x="239.9016393442623" y="-47.704918032786885" type="qcurve" smooth="yes"/>
      <point x="700.0655737704918" y="-47.704918032786885" type="line"/>
      <point x="700.0655737704918" y="-100.70491803278688" type="line"/>
      <point x="647.2786885245902" y="-140.0" type="line"/>
      <point x="237.18032786885246" y="-140.0" type="line" smooth="yes"/>
      <point x="84.9672131147541" y="-140.0"/>
    </contour>
    <contour>
      <point x="421.9672131147541" y="207.75409836065575" type="line" smooth="yes"/>
      <point x="421.9672131147541" y="161.9672131147541"/>
      <point x="467.75409836065575" y="161.9672131147541" type="qcurve" smooth="yes"/>
      <point x="603.0655737704918" y="161.9672131147541" type="line"/>
      <point x="603.0655737704918" y="388.0327868852459" type="line"/>
      <point x="467.75409836065575" y="388.0327868852459" type="line" smooth="yes"/>
      <point x="421.9672131147541" y="388.0327868852459"/>
      <point x="421.9672131147541" y="342.24590163934425" type="qcurve" smooth="yes"/>
    </contour>
  </outline>
</glyph>
<glyph name="A" format="2">
  <advance width="652.8524590163935"/>
  <unicode hex="0041"/>
  <outline>
    <contour>
      <point x="18.639344262295083" y="24.21311475409836" type="line"/>
      <point x="231.672131147541" y="690.0" type="line"/>
      <point x="421.59016393442624" y="690.0" type="line"/>
      <point x="634.2131147540983" y="24.21311475409836" type="line"/>
      <point x="618.5409836065573" y="0.0" type="line"/>
      <point x="516.3934426229508" y="0.0" type="line"/>
      <point x="469.27868852459017" y="152.0983606557377" type="line"/>
      <point x="183.5737704918033" y="152.0983606557377" type="line"/>
      <point x="136.45901639344262" y="0.0" type="line"/>
      <point x="34.721311475409834" y="0.0" type="line"/>
    </contour>
    <contour>
      <point x="217.68852459016392" y="262.78688524590166" type="line"/>
      <point x="435.57377049180326" y="262.78688524590166" type="line"/>
      <point x="336.11475409836066" y="579.311475409836" type="line"/>
      <point x="317.1475409836066" y="579.311475409836" type="line"/>
    </contour>
  </outline>
</glyph>
<glyph name="B" format="2">
  <advance width="649.0327868852459"/>
  <unicode hex="0042"/>
  <outline>
    <contour>
      <point x="84.9672131147541" y="0.0" type="line"/>
      <point x="84.9672131147541" y="690.0" type="line"/>
      <point x="407.1803278688525" y="690.0" type="line" smooth="yes"/>
      <point x="570.0655737704918" y="690.0"/>
      <point x="570.0655737704918" y="527.1147540983607" type="qcurve" smooth="yes"/>
      <point x="570.0655737704918" y="464.327868852459" type="line" smooth="yes"/>
      <point x="570.0655737704918" y="430.327868852459"/>
      <point x="550.0655737704918" y="406.327868852459" type="qcurve" smooth="yes"/>
      <point x="515.0655737704918" y="364.327868852459" type="line"/>
      <point x="557.0655737704918" y="329.327868852459" type="line" smooth="yes"/>
      <point x="590.0655737704918" y="302.327868852459"/>
      <point x="590.0655737704918" y="249.327868852459" type="qcurve" smooth="yes"/>
      <point x="590.0655737704918" y="162.88524590163934" type="line" smooth="yes"/>
      <point x="590.0655737704918" y="0.0"/>
      <point x="427.1803278688525" y="0.0" type="qcurve" smooth="yes"/>
    </contour>
    <contour>
      <point x="207.327868852459" y="110.68852459016394" type="line"/>
      <point x="424.327868852459" y="110.68852459016394" type="line" smooth="yes"/>
      <point x="467.7049180327869" y="110.68852459016394"/>
      <point x="467.7049180327869" y="154.0655737704918" type="qcurve" smooth="yes"/>
      <point x="467.7049180327869" y="258.72131147540983" type="line" smooth="yes"/>
      <point x="467.7049180327869" y="302.0983606557377"/>
      <point x="424.327868852459" y="302.0983606557377" type="qcurve" smooth="yes"/>
      <point x="207.327868852459" y="302.0983606557377" type="line"/>
    </contour>
    <contour>
      <point x="207.327868852459" y="412.78688524590166" type="line"/>
      <point x="404.327868852459" y="412.78688524590166" type="line" smooth="yes"/>
      <point x="447.7049180327869" y="412.78688524590166"/>
      <point x="447.7049180327869" y="456.57377049180326" type="qcurve" smooth="yes"/>
      <point x="447.7049180327869" y="535.9344262295082" type="line" smooth="yes"/>
      <point x="447.7049180327869" y="579.311475409836"/>
      <point x="404.327868852459" y="579.311475409836" type="qcurve" smooth="yes"/>
      <point x="207.327868852459" y="579.311475409836" type="line"/>
    </contour>
  </outline>
</glyph>
<glyph name="C" format="2">
  <advance width="619.1147540983607"/>
  <unicode hex="0043"/>
  <outline>
    <contour>
      <point x="74.9672131147541" y="162.88524590163934" type="qcurve" smooth="yes"/>
      <point x="74.9672131147541" y="527.1147540983607" type="line" smooth="yes"/>
      <point x="74.9672131147541" y="690.0"/>
      <point x="237.85245901639345" y="690.0" type="qcurve" smooth="yes"/>
      <point x="509.9672131147541" y="690.0" type="line"/>
      <point x="569.1147540983607" y="644.344262295082" type="line"/>
      <point x="569.1147540983607" y="579.311475409836" type="line"/>
      <point x="241.11475409836066" y="579.311475409836" type="line" smooth="yes"/>
      <point x="197.327868852459" y="579.311475409836"/>
      <point x="197.327868852459" y="535.9344262295082" type="qcurve" smooth="yes"/>
      <point x="197.327868852459" y="154.0655737704918" type="line" smooth="yes"/>
      <point x="197.327868852459" y="110.68852459016394"/>
      <point x="241.11475409836066" y="110.68852459016394" type="qcurve" smooth="yes"/>
      <point x="569.1147540983607" y="110.68852459016394" type="line"/>
      <point x="569.1147540983607" y="45.65573770491803" type="line"/>
      <point x="509.9672131147541" y="0.0" type="line"/>
      <point x="237.85245901639345" y="0.0" type="line" smooth="yes"/>
      <point x="74.9672131147541" y="0.0"/>
    </contour>
  </outline>
</glyph>
<glyph name="D" format="2">
  <advance width="685.0327868852459"/>
  <unicode hex="0044"/>
  <outline>
    <contour>
      <point x="84.9672131147541" y="0.0" type="line"/>
      <point x="84.9672131147541" y="690.0" type="line"/>
      <point x="349.9344262295082" y="690.0" type="line" smooth="yes"/>
      <point x="620.0655737704918" y="690.0"/>
      <point x="620.0655737704918" y="419.45901639344265" type="qcurve" smooth="yes"/>
      <point x="620.0655737704918" y="270.54098360655735" type="line" smooth="yes"/>
      <point x="620.0655737704918" y="0.0"/>
      <point x="349.9344262295082" y="0.0" type="qcurve" smooth="yes"/>
    </contour>
    <contour>
      <point x="207.327868852459" y="110.68852459016394" type="line"/>
      <point x="357.0655737704918" y="110.68852459016394" type="line" smooth="yes"/>
      <point x="497.7049180327869" y="110.68852459016394"/>
      <point x="497.7049180327869" y="251.91803278688525" type="qcurve" smooth="yes"/>
      <point x="497.7049180327869" y="438.08196721311475" type="line" smooth="yes"/>
      <point x="497.7049180327869" y="579.311475409836"/>
      <point x="357.0655737704918" y="579.311475409836" type="qcurve" smooth="yes"/>
      <point x="207.327868852459" y="579.311475409836" type="line"/>
    </contour>
  </outline>
</glyph>
<glyph name="E" format="2">
  <advance width="599.1147540983607"/>
  <unicode hex="0045"/>
  <outline>
    <contour>
      <point x="84.9672131147541" y="0.0" type="line"/>
      <point x="84.9672131147541" y="690.0" type="line"/>
      <point x="549.1147540983607" y="690.0" type="line"/>
      <point x="549.1147540983607" y="579.311475409836" type="line"/>
      <point x="207.327868852459" y="579.311475409836" type="line"/>
      <point x="207.327868852459" y="412.78688524590166" type="line"/>
      <point x="519.1147540983607" y="412.78688524590166" type="line"/>
      <point x="519.1147540983607" y="302.0983606557377" type="line"/>
      <point x="207.327868852459" y="302.0983606557377" type="line"/>
      <point x="207.327868852459" y="110.68852459016394" type="line"/>
      <point x="549.1147540983607" y="110.68852459016394" type="line"/>
      <point x="549.1147540983607" y="0.0" type="line"/>
    </contour>
  </outline>
</glyph>
<glyph name="F" format="2">
  <advance width="579.1147540983607"/>
  <unicode hex="0046"/>
  <outline>
    <contour>
      <point x="84.9672131147541" y="0.0" type="line"/>
      <point x="84.9672131147541" y="690.0" type="line"/>
      <point x="549.1147540983607" y="690.0" type="line"/>
      <point x="549.1147540983607" y="579.311475409836" type="line"/>
      <point x="207.327868852459" y="579.311475409836" type="line"/>
      <point x="207.327868852459" y="382.78688524590166" type="line"/>
      <point x="519.1147540983607" y="382.78688524590166" type="line"/>
      <point x="519.1147540983607" y="272.0983606557377" type="line"/>
      <point x="207.327868852459" y="272.0983606557377" type="line"/>
      <point x="207.327868852459" y="0.0" type="line"/>
    </contour>
  </outline>
</glyph>
<glyph name="G" format="2">
  <advance width="675.0327868852459"/>
  <unicode hex="0047"/>
  <outline>
    <contour>
      <point x="74.9672131147541" y="162.88524590163934" type="qcurve" smooth="yes"/>
      <point x="74.9672131147541" y="527.1147540983607" type="line" smooth="yes"/>
      <point x="74.9672131147541" y="690.0"/>
      <point x="237.85245901639345" y="690.0" type="qcurve" smooth="yes"/>
      <point x="531.327868852459" y="690.0" type="line"/>
      <point x="590.0655737704918" y="644.344262295082" type="line"/>
      <point x="590.0655737704918" y="579.311475409836" type="line"/>
      <point x="241.11475409836066" y="579.311475409836" type="line" smooth="yes"/>
      <point x="197.327868852459" y="579.311475409836"/>
      <point x="197.327868852459" y="535.9344262295082" type="qcurve" smooth="yes"/>
      <point x="197.327868852459" y="154.0655737704918" type="line" smooth="yes"/>
      <point x="197.327868852459" y="110.68852459016394"/>
      <point x="241.11475409836066" y="110.68852459016394" type="qcurve" smooth="yes"/>
      <point x="487.7049180327869" y="110.68852459016394" type="line"/>
      <point x="487.7049180327869" y="302.0983606557377" type="line"/>
      <point x="342.327868852459" y="302.0983606557377" type="line"/>
      <point x="342.327868852459" y="412.78688524590166" type="line"/>
      <point x="610.0655737704918" y="412.78688524590166" type="line"/>
      <point x="610.0655737704918" y="0.0" type="line"/>
      <point x="237.85245901639345" y="0.0" type="line" smooth="yes"/>
      <point x="74.9672131147541" y="0.0"/>
    </contour>
  </outline>
</glyph>
<glyph name="H" format="2">
  <advance width="705.0327868852459"/>
  <unicode hex="0048"/>
  <outline>
    <contour>
      <point x="84.9672131147541" y="0.0" type="line"/>
      <point x="84.9672131147541" y="690.0" type="line"/>
      <point x="207.327868852459" y="690.0" type="line"/>
      <point x="207.327868852459" y="412.78688524590166" type="line"/>
      <point x="497.7049180327869" y="412.78688524590166" type="line"/>
      <point x="497.7049180327869" y="690.0" type="line"/>
      <point x="620.0655737704918" y="690.0" type="line"/>
      <point x="620.0655737704918" y="0.0" type="line"/>
      <point x="497.7049180327869" y="0.0" type="line"/>
      <point x="497.7049180327869" y="302.0983606557377" type="line"/>
      <point x="207.327868852459" y="302.0983606557377" type="line"/>
      <point x="207.327868852459" y="0.0" type="line"/>
    </contour>
  </outline>
</glyph>
<glyph name="I" format="2">
  <advance width="292.2950819672131"/>
  <unicode hex="0049"/>
  <outline>
    <contour>
      <point x="84.9672131147541" y="0.0" type="line"/>
      <point x="84.9672131147541" y="690.0" type="line"/>
      <point x="207.327868852459" y="690.0" type="line"/>
      <point x="207.327868852459" y="0.0" type="line"/>
    </contour>
  </outline>
</glyph>
<glyph name="J" format="2">
  <advance width="609.0327868852459"/>
  <unicode hex="004A"/>
  <outline>
    <contour>
      <point x="54.9672131147541" y="162.88524590163934" type="qcurve" smooth="yes"/>
      <point x="54.9672131147541" y="285.57377049180326" type="line"/>
      <point x="177.327868852459" y="285.57377049180326" type="line"/>
      <point x="177.327868852459" y="154.0655737704918" type="line" smooth="yes"/>
      <point x="177.327868852459" y="110.68852459016394"/>
      <point x="221.11475409836066" y="110.68852459016394" type="qcurve" smooth="yes"/>
      <point x="364.327868852459" y="110.68852459016394" type="line" smooth="yes"/>
      <point x="407.7049180327869" y="110.68852459016394"/>
      <point x="407.7049180327869" y="154.0655737704918" type="qcurve" smooth="yes"/>
      <point x="407.7049180327869" y="579.311475409836" type="line"/>
      <point x="206.327868852459" y="579.311475409836" type="line"/>
      <point x="206.327868852459" y="690.0" type="line"/>
      <point x="530.0655737704918" y="690.0" type="line"/>
      <point x="530.0655737704918" y="162.88524590163934" type="line" smooth="yes"/>
      <point x="530.0655737704918" y="0.0"/>
      <point x="367.1803278688525" y="0.0" type="qcurve" smooth="yes"/>
      <point x="217.85245901639345" y="0.0" type="line" smooth="yes"/>
      <point x="54.9672131147541" y="0.0"/>
    </contour>
  </outline>
</glyph>
<glyph name="K" format="2">
  <advance width="656.9344262295082"/>
  <unicode hex="004B"/>
  <outline>
    <contour>
      <point x="84.9672131147541" y="0.0" type="line"/>
      <point x="84.9672131147541" y="690.0" type="line"/>
      <point x="207.327868852459" y="690.0" type="line"/>
      <point x="207.327868852459" y="387.91803278688525" type="line"/>
      <point x="478.0327868852459" y="690.0" type="line"/>
      <point x="592.0327868852459" y="690.0" type="line"/>
      <point x="603.9344262295082" y="664.6065573770492" type="line"/>
      <point x="371.73770491803276" y="406.0" type="line"/>
      <point x="628.2950819672132" y="25.393442622950822" type="line"/>
      <point x="616.3934426229508" y="0.0" type="line"/>
      <point x="503.9344262295082" y="0.0" type="line"/>
      <point x="292.5245901639344" y="317.2950819672131" type="line"/>
      <point x="207.327868852459" y="224.7704918032787" type="line"/>
      <point x="207.327868852459" y="0.0" type="line"/>
    </contour>
  </outline>
</glyph>
<glyph name="L" format="2">
  <advance width="543.1147540983607"/>
  <unicode hex="004C"/>
  <outline>
    <contour>
      <point x="84.9672131147541" y="0.0" type="line"/>
      <point x="84.9672131147541" y="690.0" type="line"/>
      <point x="207.327868852459" y="690.0" type="line"/>
      <point x="207.327868852459" y="110.68852459016394" type="line"/>
      <point x="519.1147540983607" y="110.68852459016394" type="line"/>
      <point x="519.1147540983607" y="0.0" type="line"/>
    </contour>
  </outline>
</glyph>
<glyph name="M" format="2">
  <advance width="883.7213114754098"/>
  <unicode hex="004D"/>
  <outline>
    <contour>
      <point x="84.9672131147541" y="0.0" type="line"/>
      <point x="84.9672131147541" y="690.0" type="line"/>
      <point x="234.5081967213115" y="690.0" type="line"/>
      <point x="442.0655737704918" y="248.4262295081967" type="line"/>
      <point x="649.2131147540983" y="690.0" type="line"/>
      <point x="798.7540983606557" y="690.0" type="line"/>
      <point x="798.7540983606557" y="0.0" type="line"/>
      <point x="676.3934426229508" y="0.0" type="line"/>
      <point x="676.3934426229508" y="482.24590163934425" type="line"/>
      <point x="494.44262295081967" y="93.60655737704919" type="line"/>
      <point x="389.27868852459017" y="93.60655737704919" type="line"/>
      <point x="207.327868852459" y="482.24590163934425" type="line"/>
      <point x="207.327868852459" y="0.0" type="line"/>
    </contour>
  </outline>
</glyph>
<glyph name="N" format="2">
  <advance width="731.4262295081967"/>
  <unicode hex="004E"/>
  <outline>
    <contour>
      <point x="84.9672131147541" y="0.0" type="line"/>
      <point x="84.9672131147541" y="690.0" type="line"/>
      <point x="218.45901639344262" y="690.0" type="line"/>
      <point x="524.0983606557377" y="198.19672131147541" type="line"/>
      <point x="524.0983606557377" y="690.0" type="line"/>
      <point x="646.4590163934427" y="690.0" type="line"/>
      <point x="646.4590163934427" y="0.0" type="line"/>
      <point x="513.5573770491803" y="0.0" type="line"/>
      <point x="207.327868852459" y="491.8032786885246" type="line"/>
      <point x="207.327868852459" y="0.0" type="line"/>
    </contour>
  </outline>
</glyph>
<glyph name="O" format="2">
  <advance width="705.0327868852459"/>
  <unicode hex="004F"/>
  <outline>
    <contour>
      <point x="74.9672131147541" y="162.88524590163934" type="qcurve" smooth="yes"/>
      <point x="74.9672131147541" y="527.1147540983607" type="line" smooth="yes"/>
      <point x="74.9672131147541" y="690.0"/>
      <point x="237.85245901639345" y="690.0" type="qcurve" smooth="yes"/>
      <point x="467.1803278688525" y="690.0" type="line" smooth="yes"/>
      <point x="630.0655737704918" y="690.0"/>
      <point x="630.0655737704918" y="527.1147540983607" type="qcurve" smooth="yes"/>
      <point x="630.0655737704918" y="162.88524590163934" type="line" smooth="yes"/>
      <point x="630.0655737704918" y="0.0"/>
      <point x="467.1803278688525" y="0.0" type="qcurve" smooth="yes"/>
      <point x="237.85245901639345" y="0.0" type="line" smooth="yes"/>
      <point x="74.9672131147541" y="0.0"/>
    </contour>
    <contour>
      <point x="197.327868852459" y="154.0655737704918" type="line" smooth="yes"/>
      <point x="197.327868852459" y="110.68852459016394"/>
      <point x="241.11475409836066" y="110.68852459016394" type="qcurve" smooth="yes"/>
      <point x="464.327868852459" y="110.68852459016394" type="line" smooth="yes"/>
      <point x="507.7049180327869" y="110.68852459016394"/>
      <point x="507.7049180327869" y="154.0655737704918" type="qcurve" smooth="yes"/>
      <point x="507.7049180327869" y="535.9344262295082" type="line" smooth="yes"/>
      <point x="507.7049180327869" y="579.311475409836"/>
      <point x="464.327868852459" y="579.311475409836" type="qcurve" smooth="yes"/>
      <point x="241.11475409836066" y="579.311475409836" type="line" smooth="yes"/>
      <point x="197.327868852459" y="579.311475409836"/>
      <point x="197.327868852459" y="535.9344262295082" type="qcurve" smooth="yes"/>
    </contour>
  </outline>
</glyph>
<glyph name="P" format="2">
  <advance width="635.0327868852459"/>
  <unicode hex="0050"/>
  <outline>
    <contour>
      <point x="84.9672131147541" y="0.0" type="line"/>
      <point x="84.9672131147541" y="690.0" type="line"/>
      <point x="417.1803278688525" y="690.0" type="line" smooth="yes"/>
      <point x="580.0655737704918" y="690.0"/>
      <point x="580.0655737704918" y="527.1147540983607" type="qcurve" smooth="yes"/>
      <point x="580.0655737704918" y="394.39344262295083" type="line" smooth="yes"/>
      <point x="580.0655737704918" y="232.0983606557377"/>
      <point x="417.1803278688525" y="232.0983606557377" type="qcurve" smooth="yes"/>
      <point x="207.327868852459" y="232.0983606557377" type="line"/>
      <point x="207.327868852459" y="0.0" type="line"/>
    </contour>
    <contour>
      <point x="207.327868852459" y="342.78688524590166" type="line"/>
      <point x="414.327868852459" y="342.78688524590166" type="line" smooth="yes"/>
      <point x="457.7049180327869" y="342.78688524590166"/>
      <point x="457.7049180327869" y="386.57377049180326" type="qcurve" smooth="yes"/>
      <point x="457.7049180327869" y="535.9344262295082" type="line" smooth="yes"/>
      <point x="457.7049180327869" y="579.311475409836"/>
      <point x="414.327868852459" y="579.311475409836" type="qcurve" smooth="yes"/>
      <point x="207.327868852459" y="579.311475409836" type="line"/>
    </contour>
  </outline>
</glyph>
<glyph name="Q" format="2">
  <advance width="705.0327868852459"/>
  <unicode hex="0051"/>
  <outline>
    <contour>
      <point x="74.9672131147541" y="162.88524590163934" type="qcurve" smooth="yes"/>
      <point x="74.9672131147541" y="527.1147540983607" type="line" smooth="yes"/>
      <point x="74.9672131147541" y="690.0"/>
      <point x="237.85245901639345" y="690.0" type="qcurve" smooth="yes"/>
      <point x="467.1803278688525" y="690.0" type="line" smooth="yes"/>
      <point x="630.0655737704918" y="690.0"/>
      <point x="630.0655737704918" y="527.1147540983607" type="qcurve" smooth="yes"/>
      <point x="630.0655737704918" y="162.47540983606558" type="line" smooth="yes"/>
      <point x="630.0655737704918" y="24.42622950819672"/>
      <point x="510.9016393442623" y="5.9016393442622945" type="qcurve"/>
      <point x="576.9508196721312" y="-123.60655737704919" type="line"/>
      <point x="562.2786885245902" y="-150.0" type="line"/>
      <point x="457.1803278688525" y="-150.0" type="line"/>
      <point x="381.1803278688525" y="0.0" type="line"/>
      <point x="237.85245901639345" y="0.0" type="line" smooth="yes"/>
      <point x="74.9672131147541" y="0.0"/>
    </contour>
    <contour>
      <point x="197.327868852459" y="154.0655737704918" type="line" smooth="yes"/>
      <point x="197.327868852459" y="110.68852459016394"/>
      <point x="241.11475409836066" y="110.68852459016394" type="qcurve" smooth="yes"/>
      <point x="464.327868852459" y="110.68852459016394" type="line" smooth="yes"/>
      <point x="507.7049180327869" y="110.68852459016394"/>
      <point x="507.7049180327869" y="154.0655737704918" type="qcurve" smooth="yes"/>
      <point x="507.7049180327869" y="535.9344262295082" type="line" smooth="yes"/>
      <point x="507.7049180327869" y="579.311475409836"/>
      <point x="464.327868852459" y="579.311475409836" type="qcurve" smooth="yes"/>
      <point x="241.11475409836066" y="579.311475409836" type="line" smooth="yes"/>
      <point x="197.327868852459" y="579.311475409836"/>
      <point x="197.327868852459" y="535.9344262295082" type="qcurve" smooth="yes"/>
    </contour>
  </outline>
</glyph>
<glyph name="R" format="2">
  <advance width="645.0327868852459"/>
  <unicode hex="0052"/>
  <outline>
    <contour>
      <point x="84.9672131147541" y="0.0" type="line"/>
      <point x="84.9672131147541" y="690.0" type="line"/>
      <point x="417.1803278688525" y="690.0" type="line" smooth="yes"/>
      <point x="580.0655737704918" y="690.0"/>
      <point x="580.0655737704918" y="527.1147540983607" type="qcurve" smooth="yes"/>
      <point x="580.0655737704918" y="414.39344262295083" type="line" smooth="yes"/>
      <point x="580.0655737704918" y="287.88524590163934"/>
      <point x="480.4918032786885" y="261.3606557377049" type="qcurve"/>
      <point x="600.0655737704918" y="26.393442622950822" type="line"/>
      <point x="585.3934426229508" y="0.0" type="line"/>
      <point x="480.88524590163934" y="0.0" type="line"/>
      <point x="352.54098360655735" y="252.0983606557377" type="line"/>
      <point x="207.327868852459" y="252.0983606557377" type="line"/>
      <point x="207.327868852459" y="0.0" type="line"/>
    </contour>
    <contour>
      <point x="207.327868852459" y="362.78688524590166" type="line"/>
      <point x="414.327868852459" y="362.78688524590166" type="line" smooth="yes"/>
      <point x="457.7049180327869" y="362.78688524590166"/>
      <point x="457.7049180327869" y="406.57377049180326" type="qcurve" smooth="yes"/>
      <point x="457.7049180327869" y="535.9344262295082" type="line" smooth="yes"/>
      <point x="457.7049180327869" y="579.311475409836"/>
      <point x="414.327868852459" y="579.311475409836" type="qcurve" smooth="yes"/>
      <point x="207.327868852459" y="579.311475409836" type="line"/>
    </contour>
  </outline>
</glyph>
<glyph name="S" format="2">
  <advance width="585.0327868852459"/>
  <unicode hex="0053"/>
  <outline>
    <contour>
      <point x="54.9672131147541" y="45.65573770491803" type="line"/>
      <point x="54.9672131147541" y="110.68852459016394" type="line"/>
      <point x="364.327868852459" y="110.68852459016394" type="line" smooth="yes"/>
      <point x="407.7049180327869" y="110.68852459016394"/>
      <point x="407.7049180327869" y="154.0655737704918" type="qcurve" smooth="yes"/>
      <point x="407.7049180327869" y="229.85245901639345" type="line" smooth="yes"/>
      <point x="407.7049180327869" y="268.44262295081967"/>
      <point x="373.57377049180326" y="274.95081967213116" type="qcurve" smooth="yes"/>
      <point x="171.36065573770492" y="316.2295081967213" type="line" smooth="yes"/>
      <point x="54.9672131147541" y="339.0"/>
      <point x="54.9672131147541" y="472.1639344262295" type="qcurve" smooth="yes"/>
      <point x="54.9672131147541" y="527.1147540983607" type="line" smooth="yes"/>
      <point x="54.9672131147541" y="690.0"/>
      <point x="217.85245901639345" y="690.0" type="qcurve" smooth="yes"/>
      <point x="451.327868852459" y="690.0" type="line"/>
      <point x="510.0655737704918" y="644.344262295082" type="line"/>
      <point x="510.0655737704918" y="579.311475409836" type="line"/>
      <point x="221.11475409836066" y="579.311475409836" type="line" smooth="yes"/>
      <point x="177.327868852459" y="579.311475409836"/>
      <point x="177.327868852459" y="535.9344262295082" type="qcurve" smooth="yes"/>
      <point x="177.327868852459" y="469.4754098360656" type="line" smooth="yes"/>
      <point x="177.327868852459" y="431.0655737704918"/>
      <point x="211.45901639344262" y="423.9672131147541" type="qcurve" smooth="yes"/>
      <point x="413.672131147541" y="384.27868852459017" type="line" smooth="yes"/>
      <point x="530.0655737704918" y="360.327868852459"/>
      <point x="530.0655737704918" y="227.75409836065575" type="qcurve" smooth="yes"/>
      <point x="530.0655737704918" y="162.88524590163934" type="line" smooth="yes"/>
      <point x="530.0655737704918" y="0.0"/>
      <point x="367.1803278688525" y="0.0" type="qcurve" smooth="yes"/>
      <point x="114.11475409836066" y="0.0" type="line"/>
    </contour>
  </outline>
</glyph>
<glyph name="T" format="2">
  <advance width="604.7868852459017"/>
  <unicode hex="0054"/>
  <outline>
    <contour>
      <point x="24.0" y="579.311475409836" type="line"/>
      <point x="24.0" y="690.0" type="line"/>
      <point x="580.7868852459017" y="690.0" type="line"/>
      <point x="580.7868852459017" y="579.311475409836" type="line"/>
      <point x="363.57377049180326" y="579.311475409836" type="line"/>
      <point x="363.57377049180326" y="0.0" type="line"/>
      <point x="241.21311475409837" y="0.0" type="line"/>
      <point x="241.21311475409837" y="579.311475409836" type="line"/>
    </contour>
  </outline>
</glyph>
<glyph name="U" format="2">
  <advance width="693.0327868852459"/>
  <unicode hex="0055"/>
  <outline>
    <contour>
      <point x="78.9672131147541" y="162.88524590163934" type="qcurve" smooth="yes"/>
      <point x="78.9672131147541" y="690.0" type="line"/>
      <point x="201.327868852459" y="690.0" type="line"/>
      <point x="201.327868852459" y="154.0655737704918" type="line" smooth="yes"/>
      <point x="201.327868852459" y="110.68852459016394"/>
      <point x="245.11475409836066" y="110.68852459016394" type="qcurve" smooth="yes"/>
      <point x="448.327868852459" y="110.68852459016394" type="line" smooth="yes"/>
      <point x="491.7049180327869" y="110.68852459016394"/>
      <point x="491.7049180327869" y="154.0655737704918" type="qcurve" smooth="yes"/>
      <point x="491.7049180327869" y="690.0" type="line"/>
      <point x="614.0655737704918" y="690.0" type="line"/>
      <point x="614.0655737704918" y="162.88524590163934" type="line" smooth="yes"/>
      <point x="614.0655737704918" y="0.0"/>
      <point x="451.1803278688525" y="0.0" type="qcurve" smooth="yes"/>
      <point x="241.85245901639345" y="0.0" type="line" smooth="yes"/>
      <point x="78.9672131147541" y="0.0"/>
    </contour>
  </outline>
</glyph>
<glyph name="V" format="2">
  <advance width="642.8524590163935"/>
  <unicode hex="0056"/>
  <outline>
    <contour>
      <point x="18.639344262295083" y="665.7868852459017" type="line"/>
      <point x="34.721311475409834" y="690.0" type="line"/>
      <point x="141.18032786885246" y="690.0" type="line"/>
      <point x="312.1475409836066" y="110.68852459016394" type="line"/>
      <point x="331.11475409836066" y="110.68852459016394" type="line"/>
      <point x="502.08196721311475" y="690.0" type="line"/>
      <point x="608.5409836065573" y="690.0" type="line"/>
      <point x="624.2131147540983" y="665.7868852459017" type="line"/>
      <point x="420.3606557377049" y="0.0" type="line"/>
      <point x="222.49180327868854" y="0.0" type="line"/>
    </contour>
  </outline>
</glyph>
<glyph name="W" format="2">
  <advance width="942.8524590163935"/>
  <unicode hex="0057"/>
  <outline>
    <contour>
      <point x="28.639344262295083" y="665.7868852459017" type="line"/>
      <point x="45.90163934426229" y="690.0" type="line"/>
      <point x="145.63934426229508" y="690.0" type="line"/>
      <point x="268.91803278688525" y="110.68852459016394" type="line"/>
      <point x="280.37704918032784" y="110.68852459016394" type="line"/>
      <point x="411.42622950819674" y="620.3934426229508" type="line"/>
      <point x="531.8360655737705" y="620.3934426229508" type="line"/>
      <point x="662.4754098360655" y="110.68852459016394" type="line"/>
      <point x="674.344262295082" y="110.68852459016394" type="line"/>
      <point x="797.2131147540983" y="690.0" type="line"/>
      <point x="896.9508196721312" y="690.0" type="line"/>
      <point x="914.2131147540983" y="665.7868852459017" type="line"/>
      <point x="770.7213114754098" y="0.0" type="line"/>
      <point x="574.1803278688525" y="0.0" type="line"/>
      <point x="471.42622950819674" y="405.95081967213116" type="line"/>
      <point x="368.672131147541" y="0.0" type="line"/>
      <point x="172.54098360655738" y="0.0" type="line"/>
    </contour>
  </outline>
</glyph>
<glyph name="X" format="2">
  <advance width="632.8524590163935"/>
  <unicode hex="0058"/>
  <outline>
    <contour>
      <point x="28.639344262295083" y="25.393442622950822" type="line"/>
      <point x="248.88524590163934" y="355.0" type="line"/>
      <point x="41.63934426229508" y="664.6065573770492" type="line"/>
      <point x="53.540983606557376" y="690.0" type="line"/>
      <point x="160.63934426229508" y="690.0" type="line"/>
      <point x="316.42622950819674" y="451.9672131147541" type="line"/>
      <point x="472.21311475409834" y="690.0" type="line"/>
      <point x="579.311475409836" y="690.0" type="line"/>
      <point x="591.2131147540983" y="664.6065573770492" type="line"/>
      <point x="383.9672131147541" y="355.0" type="line"/>
      <point x="604.2131147540983" y="25.393442622950822" type="line"/>
      <point x="591.7213114754098" y="0.0" type="line"/>
      <point x="485.21311475409834" y="0.0" type="line"/>
      <point x="316.42622950819674" y="257.8524590163934" type="line"/>
      <point x="147.63934426229508" y="0.0" type="line"/>
      <point x="41.131147540983605" y="0.0" type="line"/>
    </contour>
  </outline>
</glyph>
<glyph name="Y" format="2">
  <advance width="602.8524590163935"/>
  <unicode hex="0059"/>
  <outline>
    <contour>
      <point x="18.639344262295083" y="665.7868852459017" type="line"/>
      <point x="33.721311475409834" y="690.0" type="line"/>
      <point x="137.63934426229508" y="690.0" type="line"/>
      <point x="301.42622950819674" y="376.6393442622951" type="line"/>
      <point x="465.21311475409834" y="690.0" type="line"/>
      <point x="569.5409836065573" y="690.0" type="line"/>
      <point x="584.2131147540983" y="665.7868852459017" type="line"/>
      <point x="362.60655737704917" y="248.24590163934425" type="line"/>
      <point x="362.60655737704917" y="0.0" type="line"/>
      <point x="240.24590163934425" y="0.0" type="line"/>
      <point x="240.24590163934425" y="248.24590163934425" type="line"/>
    </contour>
  </outline>
</glyph>
<glyph name="Z" format="2">
  <advance width="605.0327868852459"/>
  <unicode hex="005A"/>
  <outline>
    <contour>
      <point x="44.9672131147541" y="0.0" type="line"/>
      <point x="44.9672131147541" y="95.47540983606558" type="line"/>
      <point x="396.27868852459017" y="579.311475409836" type="line"/>
      <point x="54.9672131147541" y="579.311475409836" type="line"/>
      <point x="54.9672131147541" y="690.0" type="line"/>
      <point x="550.0655737704918" y="690.0" type="line"/>
      <point x="550.0655737704918" y="594.5245901639345" type="line"/>
      <point x="198.75409836065575" y="110.68852459016394" type="line"/>
      <point x="560.0655737704918" y="110.68852459016394" type="line"/>
      <point x="560.0655737704918" y="0.0" type="line"/>
    </contour>
  </outline>
</glyph>
<glyph name="bracketleft" format="2">
  <advance width="366.9344262295082"/>
  <unicode hex="005B"/>
  <outline>
    <contour>
      <point x="84.9672131147541" y="-180.0" type="line"/>
      <point x="84.9672131147541" y="760.0" type="line"/>
      <point x="336.9344262295082" y="760.0" type="line"/>
      <point x="336.9344262295082" y="658.0327868852459" type="line"/>
      <point x="201.9672131147541" y="658.0327868852459" type="line"/>
      <point x="201.9672131147541" y="-78.03278688524591" type="line"/>
      <point x="336.9344262295082" y="-78.03278688524591" type="line"/>
      <point x="336.9344262295082" y="-180.0" type="line"/>
    </contour>
  </outline>
</glyph>
<glyph name="backslash" format="2">
  <advance width="419.24590163934425"/>
  <unicode hex="005C"/>
  <outline>
    <contour>
      <point x="20.0" y="709.3770491803278" type="line"/>
      <point x="119.42622950819671" y="745.0327868852459" type="line"/>
      <point x="399.24590163934425" y="-19.37704918032787" type="line"/>
      <point x="300.8196721311475" y="-55.0327868852459" type="line"/>
    </contour>
  </outline>
</glyph>
<glyph name="bracketright" format="2">
  <advance width="366.9344262295082"/>
  <unicode hex="005D"/>
  <outline>
    <contour>
      <point x="30.0" y="-78.03278688524591" type="line"/>
      <point x="164.9672131147541" y="-78.03278688524591" type="line"/>
      <point x="164.9672131147541" y="658.0327868852459" type="line"/>
      <point x="30.0" y="658.0327868852459" type="line"/>
      <point x="30.0" y="760.0" type="line"/>
      <point x="281.9672131147541" y="760.0" type="line"/>
      <point x="281.9672131147541" y="-180.0" type="line"/>
      <point x="30.0" y="-180.0" type="line"/>
    </contour>
  </outline>
</glyph>
<glyph name="asciicircum" format="2">
  <advance width="555.5081967213115"/>
  <unicode hex="005E"/>
  <outline>
    <contour>
      <point x="34.9672131147541" y="352.1639344262295" type="line"/>
      <point x="221.11475409836066" y="690.0" type="line"/>
      <point x="334.39344262295083" y="690.0" type="line"/>
      <point x="520.5409836065573" y="352.1639344262295" type="line"/>
      <point x="430.60655737704917" y="302.24590163934425" type="line"/>
      <point x="277.75409836065575" y="582.2622950819672" type="line"/>
      <point x="124.90163934426229" y="302.24590163934425" type="line"/>
    </contour>
  </outline>
</glyph>
<glyph name="a" format="2">
  <advance width="547.0327868852459"/>
  <unicode hex="0061"/>
  <outline>
    <contour>
      <point x="205.13114754098362" y="0.0" type="line" smooth="yes"/>
      <point x="46.9672131147541" y="0.0"/>
      <point x="46.9672131147541" y="312.0655737704918"/>
      <point x="205.13114754098362" y="312.0655737704918" type="qcurve" smooth="yes"/>
      <point x="359.0655737704918" y="312.0655737704918" type="line"/>
      <point x="359.0655737704918" y="377.27868852459017" type="line" smooth="yes"/>
      <point x="359.0655737704918" y="423.0655737704918"/>
      <point x="313.27868852459017" y="423.0655737704918" type="qcurve" smooth="yes"/>
      <point x="100.63934426229508" y="423.0655737704918" type="line"/>
      <point x="100.63934426229508" y="485.73770491803276" type="line"/>
      <point x="153.4262295081967" y="525.0327868852459" type="line"/>
      <point x="318.72131147540983" y="525.0327868852459" type="line" smooth="yes"/>
      <point x="476.0655737704918" y="525.0327868852459"/>
      <point x="476.0655737704918" y="367.27868852459017" type="qcurve" smooth="yes"/>
      <point x="476.0655737704918" y="0.0" type="line"/>
    </contour>
    <contour>
      <point x="163.9672131147541" y="147.75409836065575" type="line" smooth="yes"/>
      <point x="163.9672131147541" y="101.96721311475409"/>
      <point x="209.75409836065575" y="101.96721311475409" type="qcurve" smooth="yes"/>
      <point x="359.0655737704918" y="101.96721311475409" type="line"/>
      <point x="359.0655737704918" y="221.31147540983608" type="line"/>
      <point x="209.75409836065575" y="221.31147540983608" type="line" smooth="yes"/>
      <point x="163.9672131147541" y="221.31147540983608"/>
      <point x="163.9672131147541" y="175.52459016393442" type="qcurve" smooth="yes"/>
    </contour>
  </outline>
</glyph>
<glyph name="c" format="2">
  <advance width="513.1147540983607"/>
  <unicode hex="0063"/>
  <outline>
    <contour>
      <point x="66.9672131147541" y="157.75409836065575" type="qcurve" smooth="yes"/>
      <point x="66.9672131147541" y="367.27868852459017" type="line" smooth="yes"/>
      <point x="66.9672131147541" y="525.0327868852459"/>
      <point x="224.72131147540983" y="525.0327868852459" type="qcurve" smooth="yes"/>
      <point x="414.327868852459" y="525.0327868852459" type="line"/>
      <point x="467.11475409836066" y="485.73770491803276" type="line"/>
      <point x="467.11475409836066" y="423.0655737704918" type="line"/>
      <point x="229.75409836065575" y="423.0655737704918" type="line" smooth="yes"/>
      <point x="183.9672131147541" y="423.0655737704918"/>
      <point x="183.9672131147541" y="377.27868852459017" type="qcurve" smooth="yes"/>
      <point x="183.9672131147541" y="147.75409836065575" type="line" smooth="yes"/>
      <point x="183.9672131147541" y="101.96721311475409"/>
      <point x="229.75409836065575" y="101.96721311475409" type="qcurve" smooth="yes"/>
      <point x="467.11475409836066" y="101.96721311475409" type="line"/>
      <point x="467.11475409836066" y="39.295081967213115" type="line"/>
      <point x="414.327868852459" y="0.0" type="line"/>
      <point x="224.72131147540983" y="0.0" type="line" smooth="yes"/>
      <point x="66.9672131147541" y="0.0"/>
    </contour>
  </outline>
</glyph>
<glyph name="e" format="2">
  <advance width="579.0327868852459"/>
  <unicode hex="0065"/>
  <outline>
    <contour>
      <point x="66.9672131147541" y="157.75409836065575" type="qcurve" smooth="yes"/>
      <point x="66.9672131147541" y="367.27868852459017" type="line" smooth="yes"/>
      <point x="66.9672131147541" y="525.0327868852459"/>
      <point x="224.72131147540983" y="525.0327868852459" type="qcurve" smooth="yes"/>
      <point x="354.72131147540983" y="525.0327868852459" type="line" smooth="yes"/>
      <point x="512.0655737704918" y="525.0327868852459"/>
      <point x="512.0655737704918" y="367.27868852459017" type="qcurve" smooth="yes"/>
      <point x="512.0655737704918" y="218.9344262295082" type="line"/>
      <point x="183.9672131147541" y="218.9344262295082" type="line"/>
      <point x="183.9672131147541" y="147.75409836065575" type="line" smooth="yes"/>
      <point x="183.9672131147541" y="101.96721311475409"/>
      <point x="229.75409836065575" y="101.96721311475409" type="qcurve" smooth="yes"/>
      <point x="492.0655737704918" y="101.96721311475409" type="line"/>
      <point x="492.0655737704918" y="39.295081967213115" type="line"/>
      <point x="439.27868852459017" y="0.0" type="line"/>
      <point x="224.72131147540983" y="0.0" type="line" smooth="yes"/>
      <point x="66.9672131147541" y="0.0"/>
    </contour>
    <contour>
      <point x="183.9672131147541" y="309.6885245901639" type="line"/>
      <point x="395.0655737704918" y="309.6885245901639" type="line"/>
      <point x="395.0655737704918" y="377.27868852459017" type="line" smooth="yes"/>
      <point x="395.0655737704918" y="423.0655737704918"/>
      <point x="349.27868852459017" y="423.0655737704918" type="qcurve" smooth="yes"/>
      <point x="229.75409836065575" y="423.0655737704918" type="line" smooth="yes"/>
      <point x="183.9672131147541" y="423.0655737704918"/>
      <point x="183.9672131147541" y="377.27868852459017" type="qcurve" smooth="yes"/>
    </contour>
  </outline>
</glyph>
<glyph name="f" format="2">
  <advance width="400.54098360655735"/>
  <unicode hex="0066"/>
  <outline>
    <contour>
      <point x="74.9672131147541" y="0.0" type="line"/>
      <point x="74.9672131147541" y="582.2459016393443" type="line" smooth="yes"/>
      <point x="74.9672131147541" y="740.0"/>
      <point x="232.72131147540983" y="740.0" type="qcurve" smooth="yes"/>
      <point x="327.75409836065575" y="740.0" type="line"/>
      <point x="380.54098360655735" y="700.7049180327868" type="line"/>
      <point x="380.54098360655735" y="638.0327868852459" type="line"/>
      <point x="237.75409836065575" y="638.0327868852459" type="line" smooth="yes"/>
      <point x="191.9672131147541" y="638.0327868852459"/>
      <point x="191.9672131147541" y="592.2459016393443" type="qcurve" smooth="yes"/>
      <point x="191.9672131147541" y="525.0327868852459" type="line"/>
      <point x="370.54098360655735" y="525.0327868852459" type="line"/>
      <point x="370.54098360655735" y="423.0655737704918" type="line"/>
      <point x="191.9672131147541" y="423.0655737704918" type="line"/>
      <point x="191.9672131147541" y="0.0" type="line"/>
    </contour>
  </outline>
</glyph>
<glyph name="g" format="2">
  <advance width="582.0"/>
  <unicode hex="0067"/>
  <outline>
    <contour>
      <point x="64.24590163934427" y="157.75409836065575" type="qcurve" smooth="yes"/>
      <point x="64.24590163934427" y="367.27868852459017" type="line" smooth="yes"/>
      <point x="64.24590163934427" y="525.0327868852459"/>
      <point x="222.0" y="525.0327868852459" type="qcurve" smooth="yes"/>
      <point x="509.75409836065575" y="525.0327868852459" type="line"/>
      <point x="509.75409836065575" y="-42.24590163934426" type="line" smooth="yes"/>
      <point x="509.75409836065575" y="-200.0"/>
      <point x="352.0" y="-200.0" type="qcurve" smooth="yes"/>
      <point x="160.52459016393442" y="-200.0" type="line"/>
      <point x="107.73770491803279" y="-160.70491803278688" type="line"/>
      <point x="107.73770491803279" y="-98.03278688524591" type="line"/>
      <point x="346.9672131147541" y="-98.03278688524591" type="line" smooth="yes"/>
      <point x="392.75409836065575" y="-98.03278688524591"/>
      <point x="392.75409836065575" y="-52.24590163934426" type="qcurve" smooth="yes"/>
      <point x="392.75409836065575" y="0.0" type="line"/>
      <point x="222.0" y="0.0" type="line" smooth="yes"/>
      <point x="64.24590163934427" y="0.0"/>
    </contour>
    <contour>
      <point x="181.24590163934425" y="147.75409836065575" type="line" smooth="yes"/>
      <point x="181.24590163934425" y="101.96721311475409"/>
      <point x="227.0327868852459" y="101.96721311475409" type="qcurve" smooth="yes"/>
      <point x="392.75409836065575" y="101.96721311475409" type="line"/>
      <point x="392.75409836065575" y="423.0655737704918" type="line"/>
      <point x="227.0327868852459" y="423.0655737704918" type="line" smooth="yes"/>
      <point x="181.24590163934425" y="423.0655737704918"/>
      <point x="181.24590163934425" y="377.27868852459017" type="qcurve" smooth="yes"/>
    </contour>
  </outline>
</glyph>
<glyph name="i" format="2">
  <advance width="266.9344262295082"/>
  <unicode hex="0069"/>
  <outline>
    <contour>
      <point x="71.73770491803279" y="615.639344262295" type="line"/>
      <point x="71.73770491803279" y="735.3934426229508" type="line"/>
      <point x="195.19672131147541" y="735.3934426229508" type="line"/>
      <point x="195.19672131147541" y="615.639344262295" type="line"/>
    </contour>
    <contour>
      <point x="74.9672131147541" y="0.0" type="line"/>
      <point x="74.9672131147541" y="525.0327868852459" type="line"/>
      <point x="191.9672131147541" y="525.0327868852459" type="line"/>
      <point x="191.9672131147541" y="0.0" type="line"/>
    </contour>
  </outline>
</glyph>
<glyph name="j" format="2">
  <advance width="266.9344262295082"/>
  <unicode hex="006A"/>
  <outline>
    <contour>
      <point x="-9.360655737704917" y="-110.1639344262295" type="line"/>
      <point x="74.9672131147541" y="-105.80327868852459"/>
      <point x="74.9672131147541" y="-22.065573770491802" type="qcurve" smooth="yes"/>
      <point x="74.9672131147541" y="525.0327868852459" type="line"/>
      <point x="191.9672131147541" y="525.0327868852459" type="line"/>
      <point x="191.9672131147541" y="-8.032786885245905" type="line" smooth="yes"/>
      <point x="191.9672131147541" y="-209.36065573770492"/>
      <point x="-9.360655737704917" y="-209.36065573770492" type="qcurve"/>
    </contour>
    <contour>
      <point x="71.73770491803279" y="615.639344262295" type="line"/>
      <point x="71.73770491803279" y="735.3934426229508" type="line"/>
      <point x="195.19672131147541" y="735.3934426229508" type="line"/>
      <point x="195.19672131147541" y="615.639344262295" type="line"/>
    </contour>
  </outline>
</glyph>
<glyph name="k" format="2">
  <advance width="561.327868852459"/>
  <unicode hex="006B"/>
  <outline>
    <contour>
      <point x="74.9672131147541" y="0.0" type="line"/>
      <point x="74.9672131147541" y="740.0" type="line"/>
      <point x="191.9672131147541" y="740.0" type="line"/>
      <point x="191.9672131147541" y="302.4754098360656" type="line"/>
      <point x="395.9672131147541" y="525.0327868852459" type="line"/>
      <point x="510.9672131147541" y="525.0327868852459" type="line"/>
      <point x="520.688524590164" y="505.0" type="line"/>
      <point x="336.8196721311475" y="305.672131147541" type="line"/>
      <point x="534.688524590164" y="20.0327868852459" type="line"/>
      <point x="524.9672131147541" y="0.0" type="line"/>
      <point x="410.1475409836066" y="0.0" type="line"/>
      <point x="259.60655737704917" y="221.91803278688525" type="line"/>
      <point x="191.9672131147541" y="148.63934426229508" type="line"/>
      <point x="191.9672131147541" y="0.0" type="line"/>
    </contour>
  </outline>
</glyph>
<glyph name="l" format="2">
  <advance width="291.9672131147541"/>
  <unicode hex="006C"/>
  <outline>
    <contour>
      <point x="70.9672131147541" y="173.9672131147541" type="qcurve" smooth="yes"/>
      <point x="70.9672131147541" y="740.0" type="line"/>
      <point x="187.9672131147541" y="740.0" type="line"/>
      <point x="187.9672131147541" y="162.29508196721312" type="line" smooth="yes"/>
      <point x="187.9672131147541" y="97.14754098360655"/>
      <point x="254.29508196721312" y="92.19672131147541" type="qcurve"/>
      <point x="254.29508196721312" y="-9.360655737704917" type="line"/>
      <point x="70.9672131147541" y="-9.360655737704917"/>
    </contour>
  </outline>
</glyph>
<glyph name="m" format="2">
  <advance width="901.0327868852459"/>
  <unicode hex="006D"/>
  <outline>
    <contour>
      <point x="74.9672131147541" y="0.0" type="line"/>
      <point x="74.9672131147541" y="525.0327868852459" type="line"/>
      <point x="672.7213114754098" y="525.0327868852459" type="line" smooth="yes"/>
      <point x="830.0655737704918" y="525.0327868852459"/>
      <point x="830.0655737704918" y="367.27868852459017" type="qcurve" smooth="yes"/>
      <point x="830.0655737704918" y="0.0" type="line"/>
      <point x="713.0655737704918" y="0.0" type="line"/>
      <point x="713.0655737704918" y="377.27868852459017" type="line" smooth="yes"/>
      <point x="713.0655737704918" y="423.0655737704918"/>
      <point x="667.2786885245902" y="423.0655737704918" type="qcurve" smooth="yes"/>
      <point x="511.3114754098361" y="423.0655737704918" type="line"/>
      <point x="511.3114754098361" y="0.0" type="line"/>
      <point x="393.72131147540983" y="0.0" type="line"/>
      <point x="393.72131147540983" y="423.0655737704918" type="line"/>
      <point x="191.9672131147541" y="423.0655737704918" type="line"/>
      <point x="191.9672131147541" y="0.0" type="line"/>
    </contour>
  </outline>
</glyph>
<glyph name="n" format="2">
  <advance width="591.0327868852459"/>
  <unicode hex="006E"/>
  <outline>
    <contour>
      <point x="74.9672131147541" y="0.0" type="line"/>
      <point x="74.9672131147541" y="525.0327868852459" type="line"/>
      <point x="362.72131147540983" y="525.0327868852459" type="line" smooth="yes"/>
      <point x="520.0655737704918" y="525.0327868852459"/>
      <point x="520.0655737704918" y="367.27868852459017" type="qcurve" smooth="yes"/>
      <point x="520.0655737704918" y="0.0" type="line"/>
      <point x="403.0655737704918" y="0.0" type="line"/>
      <point x="403.0655737704918" y="377.27868852459017" type="line" smooth="yes"/>
      <point x="403.0655737704918" y="423.0655737704918"/>
      <point x="357.27868852459017" y="423.0655737704918" type="qcurve" smooth="yes"/>
      <point x="191.9672131147541" y="423.0655737704918" type="line"/>
      <point x="191.9672131147541" y="0.0" type="line"/>
    </contour>
  </outline>
</glyph>
<glyph name="p" format="2">
  <advance width="587.0327868852459"/>
  <unicode hex="0070"/>
  <outline>
    <contour>
      <point x="74.9672131147541" y="-200.0" type="line"/>
      <point x="74.9672131147541" y="525.0327868852459" type="line"/>
      <point x="362.72131147540983" y="525.0327868852459" type="line" smooth="yes"/>
      <point x="520.0655737704918" y="525.0327868852459"/>
      <point x="520.0655737704918" y="367.27868852459017" type="qcurve" smooth="yes"/>
      <point x="520.0655737704918" y="157.75409836065575" type="line" smooth="yes"/>
      <point x="520.0655737704918" y="0.0"/>
      <point x="362.72131147540983" y="0.0" type="qcurve" smooth="yes"/>
      <point x="191.9672131147541" y="0.0" type="line"/>
      <point x="191.9672131147541" y="-200.0" type="line"/>
    </contour>
    <contour>
      <point x="191.9672131147541" y="101.96721311475409" type="line"/>
      <point x="357.27868852459017" y="101.96721311475409" type="line" smooth="yes"/>
      <point x="403.0655737704918" y="101.96721311475409"/>
      <point x="403.0655737704918" y="147.75409836065575" type="qcurve" smooth="yes"/>
      <point x="403.0655737704918" y="377.27868852459017" type="line" smooth="yes"/>
      <point x="403.0655737704918" y="423.0655737704918"/>
      <point x="357.27868852459017" y="423.0655737704918" type="qcurve" smooth="yes"/>
      <point x="191.9672131147541" y="423.0655737704918" type="line"/>
    </contour>
  </outline>
</glyph>
<glyph name="r" format="2">
  <advance width="392.54098360655735"/>
  <unicode hex="0072"/>
  <outline>
    <contour>
      <point x="70.9672131147541" y="0.0" type="line"/>
      <point x="70.9672131147541" y="460.0" type="line"/>
      <point x="107.32786885245902" y="525.0327868852459"/>
      <point x="208.72131147540983" y="525.0327868852459" type="qcurve" smooth="yes"/>
      <point x="313.75409836065575" y="525.0327868852459" type="line"/>
      <point x="366.54098360655735" y="485.73770491803276" type="line"/>
      <point x="366.54098360655735" y="423.0655737704918" type="line"/>
      <point x="236.18032786885246" y="423.0655737704918" type="line" smooth="yes"/>
      <point x="201.52459016393442" y="423.0655737704918"/>
      <point x="187.9672131147541" y="405.5081967213115" type="qcurve"/>
      <point x="187.9672131147541" y="0.0" type="line"/>
    </contour>
  </outline>
</glyph>
<glyph name="s" format="2">
  <advance width="505.0327868852459"/>
  <unicode hex="0073"/>
  <outline>
    <contour>
      <point x="55.91803278688525" y="39.295081967213115" type="line"/>
      <point x="55.91803278688525" y="101.96721311475409" type="line"/>
      <point x="286.73770491803276" y="101.96721311475409" type="line" smooth="yes"/>
      <point x="333.4754098360656" y="101.96721311475409"/>
      <point x="333.4754098360656" y="151.4262295081967" type="qcurve" smooth="yes"/>
      <point x="333.4754098360656" y="201.88524590163934"/>
      <point x="295.11475409836066" y="208.5737704918033" type="qcurve" smooth="yes"/>
      <point x="183.27868852459017" y="227.21311475409837" type="line" smooth="yes"/>
      <point x="55.91803278688525" y="248.80327868852459"/>
      <point x="55.91803278688525" y="370.78688524590166" type="qcurve" smooth="yes"/>
      <point x="55.91803278688525" y="525.0327868852459"/>
      <point x="214.08196721311475" y="525.0327868852459" type="qcurve" smooth="yes"/>
      <point x="372.91803278688525" y="525.0327868852459" type="line"/>
      <point x="425.7049180327869" y="485.73770491803276" type="line"/>
      <point x="425.7049180327869" y="423.0655737704918" type="line"/>
      <point x="218.88524590163934" y="423.0655737704918" type="line" smooth="yes"/>
      <point x="171.7377049180328" y="423.0655737704918"/>
      <point x="171.7377049180328" y="373.60655737704917" type="qcurve" smooth="yes"/>
      <point x="171.7377049180328" y="324.9344262295082"/>
      <point x="212.327868852459" y="318.42622950819674" type="qcurve" smooth="yes"/>
      <point x="324.1639344262295" y="299.78688524590166" type="line" smooth="yes"/>
      <point x="449.7049180327869" y="279.1967213114754"/>
      <point x="449.7049180327869" y="154.65573770491804" type="qcurve" smooth="yes"/>
      <point x="449.7049180327869" y="0.0"/>
      <point x="291.1311475409836" y="0.0" type="qcurve" smooth="yes"/>
      <point x="108.70491803278688" y="0.0" type="line"/>
    </contour>
  </outline>
</glyph>
<glyph name="t" format="2">
  <advance width="412.54098360655735"/>
  <unicode hex="0074"/>
  <outline>
    <contour>
      <point x="70.9672131147541" y="157.75409836065575" type="qcurve" smooth="yes"/>
      <point x="70.9672131147541" y="690.0" type="line"/>
      <point x="187.9672131147541" y="690.0" type="line"/>
      <point x="187.9672131147541" y="525.0327868852459" type="line"/>
      <point x="366.54098360655735" y="525.0327868852459" type="line"/>
      <point x="366.54098360655735" y="423.0655737704918" type="line"/>
      <point x="187.9672131147541" y="423.0655737704918" type="line"/>
      <point x="187.9672131147541" y="147.75409836065575" type="line" smooth="yes"/>
      <point x="187.9672131147541" y="101.96721311475409"/>
      <point x="233.75409836065575" y="101.96721311475409" type="qcurve" smooth="yes"/>
      <point x="376.54098360655735" y="101.96721311475409" type="line"/>
      <point x="376.54098360655735" y="39.295081967213115" type="line"/>
      <point x="323.75409836065575" y="0.0" type="line"/>
      <point x="228.72131147540983" y="0.0" type="line" smooth="yes"/>
      <point x="70.9672131147541" y="0.0"/>
    </contour>
  </outline>
</glyph>
<glyph name="u" format="2">
  <advance width="591.0327868852459"/>
  <unicode hex="0075"/>
  <outline>
    <contour>
      <point x="70.9672131147541" y="157.75409836065575" type="qcurve" smooth="yes"/>
      <point x="70.9672131147541" y="525.0327868852459" type="line"/>
      <point x="187.9672131147541" y="525.0327868852459" type="line"/>
      <point x="187.9672131147541" y="147.75409836065575" type="line" smooth="yes"/>
      <point x="187.9672131147541" y="101.96721311475409"/>
      <point x="233.75409836065575" y="101.96721311475409" type="qcurve" smooth="yes"/>
      <point x="399.0655737704918" y="101.96721311475409" type="line"/>
      <point x="399.0655737704918" y="525.0327868852459" type="line"/>
      <point x="516.0655737704918" y="525.0327868852459" type="line"/>
      <point x="516.0655737704918" y="0.0" type="line"/>
      <point x="228.72131147540983" y="0.0" type="line" smooth="yes"/>
      <point x="70.9672131147541" y="0.0"/>
    </contour>
  </outline>
</glyph>
<glyph name="v" format="2">
  <advance width="542.8524590163935"/>
  <unicode hex="0076"/>
  <outline>
    <contour>
      <point x="18.639344262295083" y="506.7704918032787" type="line"/>
      <point x="31.131147540983605" y="525.0327868852459" type="line"/>
      <point x="132.0983606557377" y="525.0327868852459" type="line"/>
      <point x="264.327868852459" y="101.96721311475409" type="line"/>
      <point x="278.5245901639344" y="101.96721311475409" type="line"/>
      <point x="410.75409836065575" y="525.0327868852459" type="line"/>
      <point x="511.72131147540983" y="525.0327868852459" type="line"/>
      <point x="524.2131147540983" y="506.7704918032787" type="line"/>
      <point x="359.6885245901639" y="0.0" type="line"/>
      <point x="183.5737704918033" y="0.0" type="line"/>
    </contour>
  </outline>
</glyph>
<glyph name="w" format="2">
  <advance width="810.7540983606557"/>
  <unicode hex="0077"/>
  <outline>
    <contour>
      <point x="22.639344262295083" y="506.7704918032787" type="line"/>
      <point x="35.540983606557376" y="525.0327868852459" type="line"/>
      <point x="133.5081967213115" y="525.0327868852459" type="line"/>
      <point x="223.04918032786884" y="101.96721311475409" type="line"/>
      <point x="232.78688524590163" y="101.96721311475409" type="line"/>
      <point x="340.0163934426229" y="525.0327868852459" type="line"/>
      <point x="470.73770491803276" y="525.0327868852459" type="line"/>
      <point x="577.9672131147541" y="101.96721311475409" type="line"/>
      <point x="588.1147540983607" y="101.96721311475409" type="line"/>
      <point x="677.655737704918" y="525.0327868852459" type="line"/>
      <point x="775.2131147540983" y="525.0327868852459" type="line"/>
      <point x="788.1147540983607" y="506.7704918032787" type="line"/>
      <point x="676.5901639344262" y="0.0" type="line"/>
      <point x="498.39344262295083" y="0.0" type="line"/>
      <point x="405.37704918032784" y="386.55737704918033" type="line"/>
      <point x="312.3606557377049" y="0.0" type="line"/>
      <point x="134.5737704918033" y="0.0" type="line"/>
    </contour>
  </outline>
</glyph>
<glyph name="x" format="2">
  <advance width="542.8524590163935"/>
  <unicode hex="0078"/>
  <outline>
    <contour>
      <point x="28.639344262295083" y="20.0327868852459" type="line"/>
      <point x="205.47540983606558" y="266.3606557377049" type="line"/>
      <point x="34.278688524590166" y="505.0" type="line"/>
      <point x="44.0" y="525.0327868852459" type="line"/>
      <point x="152.0983606557377" y="525.0327868852459" type="line"/>
      <point x="271.42622950819674" y="353.42622950819674" type="line"/>
      <point x="390.75409836065575" y="525.0327868852459" type="line"/>
      <point x="498.8524590163934" y="525.0327868852459" type="line"/>
      <point x="508.57377049180326" y="505.0" type="line"/>
      <point x="337.78688524590166" y="266.3606557377049" type="line"/>
      <point x="514.2131147540983" y="20.0327868852459" type="line"/>
      <point x="504.9016393442623" y="0.0" type="line"/>
      <point x="396.39344262295083" y="0.0" type="line"/>
      <point x="271.42622950819674" y="178.70491803278688" type="line"/>
      <point x="146.45901639344262" y="0.0" type="line"/>
      <point x="38.36065573770492" y="0.0" type="line"/>
    </contour>
  </outline>
</glyph>
<glyph name="y" format="2">
  <advance width="542.8524590163935"/>
  <unicode hex="0079"/>
  <outline>
    <contour>
      <point x="18.639344262295083" y="506.7704918032787" type="line"/>
      <point x="31.131147540983605" y="525.0327868852459" type="line"/>
      <point x="132.0983606557377" y="525.0327868852459" type="line"/>
      <point x="264.327868852459" y="101.96721311475409" type="line"/>
      <point x="278.5245901639344" y="101.96721311475409" type="line"/>
      <point x="410.75409836065575" y="525.0327868852459" type="line"/>
      <point x="511.72131147540983" y="525.0327868852459" type="line"/>
      <point x="524.2131147540983" y="506.7704918032787" type="line"/>
      <point x="295.1311475409836" y="-200.0" type="line"/>
      <point x="194.1639344262295" y="-200.0" type="line"/>
      <point x="181.672131147541" y="-181.7377049180328" type="line"/>
      <point x="244.81967213114754" y="0.0" type="line"/>
      <point x="183.5737704918033" y="0.0" type="line"/>
    </contour>
  </outline>
</glyph>
<glyph name="z" format="2">
  <advance width="515.0327868852459"/>
  <unicode hex="007A"/>
  <outline>
    <contour>
      <point x="44.9672131147541" y="0.0" type="line"/>
      <point x="44.9672131147541" y="88.9344262295082" type="line"/>
      <point x="310.6393442622951" y="423.0655737704918" type="line"/>
      <point x="54.9672131147541" y="423.0655737704918" type="line"/>
      <point x="54.9672131147541" y="525.0327868852459" type="line"/>
      <point x="460.0655737704918" y="525.0327868852459" type="line"/>
      <point x="460.0655737704918" y="436.0983606557377" type="line"/>
      <point x="194.98360655737704" y="101.96721311475409" type="line"/>
      <point x="470.0655737704918" y="101.96721311475409" type="line"/>
      <point x="470.0655737704918" y="0.0" type="line"/>
    </contour>
  </outline>
</glyph>
<glyph name="braceleft" format="2">
  <advance width="405.57377049180326"/>
  <unicode hex="007B"/>
  <outline>
    <contour>
      <point x="50.0" y="257.9836065573771" type="line"/>
      <point x="50.0" y="316.21311475409834" type="line"/>
      <point x="133.60655737704917" y="399.2295081967213" type="line"/>
      <point x="133.60655737704917" y="602.2459016393443" type="line" smooth="yes"/>
      <point x="133.60655737704917" y="760.0"/>
      <point x="291.3606557377049" y="760.0" type="qcurve" smooth="yes"/>
      <point x="375.57377049180326" y="760.0" type="line"/>
      <point x="375.57377049180326" y="658.0327868852459" type="line"/>
      <point x="296.39344262295083" y="658.0327868852459" type="line" smooth="yes"/>
      <point x="250.60655737704917" y="658.0327868852459"/>
      <point x="250.60655737704917" y="612.2459016393443" type="qcurve" smooth="yes"/>
      <point x="250.60655737704917" y="371.4754098360656" type="line"/>
      <point x="164.81967213114754" y="286.5081967213115" type="line"/>
      <point x="250.60655737704917" y="201.54098360655738" type="line"/>
      <point x="250.60655737704917" y="-32.24590163934426" type="line" smooth="yes"/>
      <point x="250.60655737704917" y="-78.03278688524591"/>
      <point x="296.39344262295083" y="-78.03278688524591" type="qcurve" smooth="yes"/>
      <point x="375.57377049180326" y="-78.03278688524591" type="line"/>
      <point x="375.57377049180326" y="-180.0" type="line"/>
      <point x="291.3606557377049" y="-180.0" type="line" smooth="yes"/>
      <point x="133.60655737704917" y="-180.0"/>
      <point x="133.60655737704917" y="-22.24590163934426" type="qcurve" smooth="yes"/>
      <point x="133.60655737704917" y="173.78688524590163" type="line"/>
    </contour>
  </outline>
</glyph>
<glyph name="braceright" format="2">
  <advance width="405.57377049180326"/>
  <unicode hex="007D"/>
  <outline>
    <contour>
      <point x="30.0" y="-78.03278688524591" type="line"/>
      <point x="109.18032786885246" y="-78.03278688524591" type="line" smooth="yes"/>
      <point x="154.9672131147541" y="-78.03278688524591"/>
      <point x="154.9672131147541" y="-32.24590163934426" type="qcurve" smooth="yes"/>
      <point x="154.9672131147541" y="201.54098360655738" type="line"/>
      <point x="240.75409836065575" y="286.5081967213115" type="line"/>
      <point x="154.9672131147541" y="371.4754098360656" type="line"/>
      <point x="154.9672131147541" y="612.2459016393443" type="line" smooth="yes"/>
      <point x="154.9672131147541" y="658.0327868852459"/>
      <point x="109.18032786885246" y="658.0327868852459" type="qcurve" smooth="yes"/>
      <point x="30.0" y="658.0327868852459" type="line"/>
      <point x="30.0" y="760.0" type="line"/>
      <point x="114.21311475409836" y="760.0" type="line" smooth="yes"/>
      <point x="271.9672131147541" y="760.0"/>
      <point x="271.9672131147541" y="602.2459016393443" type="qcurve" smooth="yes"/>
      <point x="271.9672131147541" y="399.2295081967213" type="line"/>
      <point x="355.57377049180326" y="316.21311475409834" type="line"/>
      <point x="355.57377049180326" y="257.9836065573771" type="line"/>
      <point x="271.9672131147541" y="173.78688524590163" type="line"/>
      <point x="271.9672131147541" y="-22.24590163934426" type="line" smooth="yes"/>
      <point x="271.9672131147541" y="-180.0"/>
      <point x="114.21311475409836" y="-180.0" type="qcurve" smooth="yes"/>
      <point x="30.0" y="-180.0" type="line"/>
    </contour>
  </outline>
</glyph>
<glyph name="asciitilde" format="2">
  <advance width="578.0"/>
  <unicode hex="007E"/>
  <outline>
    <contour>
      <point x="38.34426229508197" y="315.655737704918" type="line"/>
      <point x="130.65573770491804" y="407.55737704918033" type="line" smooth="yes"/>
      <point x="163.37704918032787" y="440.6885245901639"/>
      <point x="254.62295081967213" y="440.6885245901639"/>
      <point x="287.344262295082" y="407.55737704918033" type="qcurve" smooth="yes"/>
      <point x="348.11475409836066" y="347.1967213114754" type="line" smooth="yes"/>
      <point x="359.26229508196724" y="336.04918032786884"/>
      <point x="378.73770491803276" y="336.04918032786884"/>
      <point x="389.88524590163934" y="347.1967213114754" type="qcurve" smooth="yes"/>
      <point x="468.344262295082" y="425.655737704918" type="line"/>
      <point x="539.655737704918" y="354.344262295082" type="line"/>
      <point x="447.344262295082" y="262.44262295081967" type="line" smooth="yes"/>
      <point x="414.62295081967216" y="229.31147540983608"/>
      <point x="323.37704918032784" y="229.31147540983608"/>
      <point x="290.655737704918" y="262.44262295081967" type="qcurve" smooth="yes"/>
      <point x="229.88524590163934" y="322.8032786885246" type="line" smooth="yes"/>
      <point x="218.7377049180328" y="333.95081967213116"/>
      <point x="199.2622950819672" y="333.95081967213116"/>
      <point x="188.11475409836066" y="322.8032786885246" type="qcurve" smooth="yes"/>
      <point x="109.65573770491804" y="244.34426229508196" type="line"/>
    </contour>
  </outline>
</glyph>
<glyph name="exclamdown" format="2">
  <advance width="271.42622950819674"/>
  <unicode hex="00A1"/>
  <outline>
    <contour>
      <point x="70.75409836065575" y="395.1803278688525" type="line"/>
      <point x="70.75409836065575" y="525.0327868852459" type="line"/>
      <point x="201.08196721311475" y="525.0327868852459" type="line"/>
      <point x="201.08196721311475" y="395.1803278688525" type="line"/>
    </contour>
    <contour>
      <point x="74.44262295081967" y="-164.9672131147541" type="line"/>
      <point x="74.44262295081967" y="307.27868852459017" type="line"/>
      <point x="196.80327868852459" y="307.27868852459017" type="line"/>
      <point x="196.80327868852459" y="-164.9672131147541" type="line"/>
    </contour>
  </outline>
</glyph>
<glyph name="cent" format="2">
  <advance width="578.0"/>
  <unicode hex="00A2"/>
  <outline>
    <contour>
      <point x="86.24590163934427" y="157.75409836065575" type="qcurve" smooth="yes"/>
      <point x="86.24590163934427" y="367.27868852459017" type="line" smooth="yes"/>
      <point x="86.24590163934427" y="525.0327868852459"/>
      <point x="244.0" y="525.0327868852459" type="qcurve" smooth="yes"/>
      <point x="267.4918032786885" y="525.0327868852459" type="line"/>
      <point x="267.4918032786885" y="635.0327868852459" type="line"/>
      <point x="364.5081967213115" y="635.0327868852459" type="line"/>
      <point x="364.5081967213115" y="525.0327868852459" type="line"/>
      <point x="433.60655737704917" y="525.0327868852459" type="line"/>
      <point x="486.39344262295083" y="485.73770491803276" type="line"/>
      <point x="486.39344262295083" y="423.0655737704918" type="line"/>
      <point x="249.0327868852459" y="423.0655737704918" type="line" smooth="yes"/>
      <point x="203.24590163934425" y="423.0655737704918"/>
      <point x="203.24590163934425" y="377.27868852459017" type="qcurve" smooth="yes"/>
      <point x="203.24590163934425" y="147.75409836065575" type="line" smooth="yes"/>
      <point x="203.24590163934425" y="101.96721311475409"/>
      <point x="249.0327868852459" y="101.96721311475409" type="qcurve" smooth="yes"/>
      <point x="486.39344262295083" y="101.96721311475409" type="line"/>
      <point x="486.39344262295083" y="39.295081967213115" type="line"/>
      <point x="433.60655737704917" y="0.0" type="line"/>
      <point x="364.5081967213115" y="0.0" type="line"/>
      <point x="364.5081967213115" y="-110.0" type="line"/>
      <point x="267.4918032786885" y="-110.0" type="line"/>
      <point x="267.4918032786885" y="0.0" type="line"/>
      <point x="244.0" y="0.0" type="line" smooth="yes"/>
      <point x="86.24590163934427" y="0.0"/>
    </contour>
  </outline>
</glyph>
<glyph name="sterling" format="2">
  <advance width="578.0"/>
  <unicode hex="00A3"/>
  <outline>
    <contour>
      <point x="57.60655737704918" y="0.0" type="line"/>
      <point x="57.60655737704918" y="110.68852459016394" type="line"/>
      <point x="146.24590163934425" y="110.68852459016394" type="line"/>
      <point x="146.24590163934425" y="296.4918032786885" type="line"/>
      <point x="57.60655737704918" y="296.4918032786885" type="line"/>
      <point x="57.60655737704918" y="393.5081967213115" type="line"/>
      <point x="146.24590163934425" y="393.5081967213115" type="line"/>
      <point x="146.24590163934425" y="527.1147540983607" type="line" smooth="yes"/>
      <point x="146.24590163934425" y="690.0"/>
      <point x="309.1311475409836" y="690.0" type="qcurve" smooth="yes"/>
      <point x="451.24590163934425" y="690.0" type="line"/>
      <point x="510.39344262295083" y="644.344262295082" type="line"/>
      <point x="510.39344262295083" y="579.311475409836" type="line"/>
      <point x="312.39344262295083" y="579.311475409836" type="line" smooth="yes"/>
      <point x="268.60655737704917" y="579.311475409836"/>
      <point x="268.60655737704917" y="535.9344262295082" type="qcurve" smooth="yes"/>
      <point x="268.60655737704917" y="393.5081967213115" type="line"/>
      <point x="424.39344262295083" y="393.5081967213115" type="line"/>
      <point x="424.39344262295083" y="296.4918032786885" type="line"/>
      <point x="268.60655737704917" y="296.4918032786885" type="line"/>
      <point x="268.60655737704917" y="110.68852459016394" type="line"/>
      <point x="530.3934426229508" y="110.68852459016394" type="line"/>
      <point x="530.3934426229508" y="0.0" type="line"/>
    </contour>
  </outline>
</glyph>
<glyph name="currency" format="2">
  <advance width="578.0"/>
  <unicode hex="00A4"/>
  <outline>
    <contour>
      <point x="48.704918032786885" y="166.88524590163934" type="line"/>
      <point x="130.327868852459" y="248.50819672131146" type="line"/>
      <point x="130.327868852459" y="451.4918032786885" type="line"/>
      <point x="48.704918032786885" y="533.1147540983607" type="line"/>
      <point x="110.88524590163934" y="595.2950819672132" type="line"/>
      <point x="192.50819672131146" y="513.672131147541" type="line"/>
      <point x="385.4918032786885" y="513.672131147541" type="line"/>
      <point x="467.11475409836066" y="595.2950819672132" type="line"/>
      <point x="529.2950819672132" y="533.1147540983607" type="line"/>
      <point x="447.672131147541" y="451.4918032786885" type="line"/>
      <point x="447.672131147541" y="248.50819672131146" type="line"/>
      <point x="529.2950819672132" y="166.88524590163934" type="line"/>
      <point x="467.11475409836066" y="104.70491803278688" type="line"/>
      <point x="385.4918032786885" y="186.327868852459" type="line"/>
      <point x="192.50819672131146" y="186.327868852459" type="line"/>
      <point x="110.88524590163934" y="104.70491803278688" type="line"/>
    </contour>
    <contour>
      <point x="222.21311475409834" y="293.1967213114754" type="line" smooth="yes"/>
      <point x="222.21311475409834" y="272.8032786885246"/>
      <point x="242.60655737704917" y="272.8032786885246" type="qcurve" smooth="yes"/>
      <point x="335.39344262295083" y="272.8032786885246" type="line" smooth="yes"/>
      <point x="355.78688524590166" y="272.8032786885246"/>
      <point x="355.78688524590166" y="293.1967213114754" type="qcurve" smooth="yes"/>
      <point x="355.78688524590166" y="406.8032786885246" type="line" smooth="yes"/>
      <point x="355.78688524590166" y="427.1967213114754"/>
      <point x="335.39344262295083" y="427.1967213114754" type="qcurve" smooth="yes"/>
      <point x="242.60655737704917" y="427.1967213114754" type="line" smooth="yes"/>
      <point x="222.21311475409834" y="427.1967213114754"/>
      <point x="222.21311475409834" y="406.8032786885246" type="qcurve" smooth="yes"/>
    </contour>
  </outline>
</glyph>
<glyph name="yen" format="2">
  <advance width="578.0"/>
  <unicode hex="00A5"/>
  <outline>
    <contour>
      <point x="16.442622950819672" y="665.7868852459017" type="line"/>
      <point x="31.114754098360656" y="690.0" type="line"/>
      <point x="135.44262295081967" y="690.0" type="line"/>
      <point x="289.0" y="396.6393442622951" type="line"/>
      <point x="442.55737704918033" y="690.0" type="line"/>
      <point x="546.8852459016393" y="690.0" type="line"/>
      <point x="561.5573770491803" y="665.7868852459017" type="line"/>
      <point x="379.11475409836066" y="323.7049180327869" type="line"/>
      <point x="487.39344262295083" y="323.7049180327869" type="line"/>
      <point x="487.39344262295083" y="252.60655737704917" type="line"/>
      <point x="350.1803278688525" y="252.60655737704917" type="line"/>
      <point x="350.1803278688525" y="180.31147540983608" type="line"/>
      <point x="487.39344262295083" y="180.31147540983608" type="line"/>
      <point x="487.39344262295083" y="109.21311475409836" type="line"/>
      <point x="350.1803278688525" y="109.21311475409836" type="line"/>
      <point x="350.1803278688525" y="0.0" type="line"/>
      <point x="227.81967213114754" y="0.0" type="line"/>
      <point x="227.81967213114754" y="109.21311475409836" type="line"/>
      <point x="90.60655737704919" y="109.21311475409836" type="line"/>
      <point x="90.60655737704919" y="180.31147540983608" type="line"/>
      <point x="227.81967213114754" y="180.31147540983608" type="line"/>
      <point x="227.81967213114754" y="252.60655737704917" type="line"/>
      <point x="90.60655737704919" y="252.60655737704917" type="line"/>
      <point x="90.60655737704919" y="323.7049180327869" type="line"/>
      <point x="198.88524590163934" y="323.7049180327869" type="line"/>
    </contour>
  </outline>
</glyph>
<glyph name="brokenbar" format="2">
  <advance width="298.21311475409834"/>
  <unicode hex="00A6"/>
  <outline>
    <contour>
      <point x="96.32786885245902" y="173.672131147541" type="line"/>
      <point x="202.29508196721312" y="173.672131147541" type="line"/>
      <point x="202.29508196721312" y="-200.0" type="line"/>
      <point x="96.32786885245902" y="-200.0" type="line"/>
    </contour>
    <contour>
      <point x="96.32786885245902" y="366.327868852459" type="line"/>
      <point x="96.32786885245902" y="740.0" type="line"/>
      <point x="202.29508196721312" y="740.0" type="line"/>
      <point x="202.29508196721312" y="366.327868852459" type="line"/>
    </contour>
  </outline>
</glyph>
<glyph name="section" format="2">
  <advance width="542.7213114754098"/>
  <unicode hex="00A7"/>
  <outline>
    <contour>
      <point x="75.37704918032787" y="1.9672131147540952" type="line"/>
      <point x="303.73770491803276" y="1.9672131147540952" type="line" smooth="yes"/>
      <point x="351.7049180327869" y="1.9672131147540952"/>
      <point x="351.7049180327869" y="51.42622950819672" type="qcurve" smooth="yes"/>
      <point x="351.7049180327869" y="92.8688524590164"/>
      <point x="326.45901639344265" y="98.73770491803279" type="qcurve" smooth="yes"/>
      <point x="189.21311475409837" y="128.0327868852459" type="line" smooth="yes"/>
      <point x="75.37704918032787" y="150.44262295081967"/>
      <point x="75.37704918032787" y="270.78688524590166" type="qcurve" smooth="yes"/>
      <point x="75.37704918032787" y="389.55737704918033" type="line"/>
      <point x="115.59016393442623" y="429.7704918032787" type="line"/>
      <point x="75.37704918032787" y="464.9016393442623"/>
      <point x="75.37704918032787" y="534.9344262295082" type="qcurve" smooth="yes"/>
      <point x="75.37704918032787" y="690.0"/>
      <point x="231.49180327868854" y="690.0" type="qcurve" smooth="yes"/>
      <point x="392.1475409836066" y="690.0" type="line"/>
      <point x="444.9344262295082" y="650.7049180327868" type="line"/>
      <point x="444.9344262295082" y="588.0327868852459" type="line"/>
      <point x="240.1639344262295" y="588.0327868852459" type="line" smooth="yes"/>
      <point x="192.19672131147541" y="588.0327868852459"/>
      <point x="192.19672131147541" y="538.5737704918033" type="qcurve" smooth="yes"/>
      <point x="192.19672131147541" y="497.1311475409836"/>
      <point x="216.85245901639342" y="491.26229508196724" type="qcurve" smooth="yes"/>
      <point x="354.0983606557377" y="461.9672131147541" type="line" smooth="yes"/>
      <point x="468.5245901639344" y="439.55737704918033"/>
      <point x="468.5245901639344" y="319.21311475409834" type="qcurve" smooth="yes"/>
      <point x="468.5245901639344" y="200.44262295081967" type="line"/>
      <point x="428.3114754098361" y="160.22950819672133" type="line"/>
      <point x="468.5245901639344" y="125.09836065573771"/>
      <point x="468.5245901639344" y="55.0655737704918" type="qcurve" smooth="yes"/>
      <point x="468.5245901639344" y="-100.0"/>
      <point x="312.40983606557376" y="-100.0" type="qcurve" smooth="yes"/>
      <point x="128.1639344262295" y="-100.0" type="line"/>
      <point x="75.37704918032787" y="-60.704918032786885" type="line"/>
    </contour>
    <contour>
      <point x="192.19672131147541" y="273.1967213114754" type="line" smooth="yes"/>
      <point x="192.19672131147541" y="226.5737704918033"/>
      <point x="225.86885245901638" y="218.8360655737705" type="qcurve" smooth="yes"/>
      <point x="351.7049180327869" y="191.21311475409834" type="line"/>
      <point x="351.7049180327869" y="316.8032786885246" type="line" smooth="yes"/>
      <point x="351.7049180327869" y="363.42622950819674"/>
      <point x="317.44262295081967" y="371.1639344262295" type="qcurve" smooth="yes"/>
      <point x="192.19672131147541" y="398.78688524590166" type="line"/>
    </contour>
  </outline>
</glyph>
<glyph name="copyright" format="2">
  <advance width="842.7213114754098"/>
  <unicode hex="00A9"/>
  <outline>
    <contour>
      <point x="74.9672131147541" y="108.60655737704917" type="qcurve" smooth="yes"/>
      <point x="74.9672131147541" y="581.3934426229508" type="line" smooth="yes"/>
      <point x="74.9672131147541" y="690.0"/>
      <point x="183.5737704918033" y="690.0" type="qcurve" smooth="yes"/>
      <point x="659.1475409836065" y="690.0" type="line" smooth="yes"/>
      <point x="767.7540983606557" y="690.0"/>
      <point x="767.7540983606557" y="581.3934426229508" type="qcurve" smooth="yes"/>
      <point x="767.7540983606557" y="108.60655737704917" type="line" smooth="yes"/>
      <point x="767.7540983606557" y="0.0"/>
      <point x="659.1475409836065" y="0.0" type="qcurve" smooth="yes"/>
      <point x="183.5737704918033" y="0.0" type="line" smooth="yes"/>
      <point x="74.9672131147541" y="0.0"/>
    </contour>
    <contour>
      <point x="161.9016393442623" y="100.24590163934425" type="line" smooth="yes"/>
      <point x="161.9016393442623" y="78.21311475409836"/>
      <point x="183.52459016393442" y="78.21311475409836" type="qcurve" smooth="yes"/>
      <point x="658.7868852459017" y="78.21311475409836" type="line" smooth="yes"/>
      <point x="680.8196721311475" y="78.21311475409836"/>
      <point x="680.8196721311475" y="100.24590163934425" type="qcurve" smooth="yes"/>
      <point x="680.8196721311475" y="589.7540983606557" type="line" smooth="yes"/>
      <point x="680.8196721311475" y="611.7868852459017"/>
      <point x="658.7868852459017" y="611.7868852459017" type="qcurve" smooth="yes"/>
      <point x="183.52459016393442" y="611.7868852459017" type="line" smooth="yes"/>
      <point x="161.9016393442623" y="611.7868852459017"/>
      <point x="161.9016393442623" y="589.7540983606557" type="qcurve" smooth="yes"/>
    </contour>
    <contour>
      <point x="258.4590163934426" y="268.7704918032787" type="qcurve" smooth="yes"/>
      <point x="258.4590163934426" y="421.2295081967213" type="line" smooth="yes"/>
      <point x="258.4590163934426" y="534.9672131147541"/>
      <point x="371.60655737704917" y="534.9672131147541" type="qcurve" smooth="yes"/>
      <point x="512.9672131147541" y="534.9672131147541" type="line"/>
      <point x="554.2622950819672" y="502.21311475409834" type="line"/>
      <point x="554.2622950819672" y="451.39344262295083" type="line"/>
      <point x="371.55737704918033" y="451.39344262295083" type="line" smooth="yes"/>
      <point x="350.344262295082" y="451.39344262295083"/>
      <point x="350.344262295082" y="430.1803278688525" type="qcurve" smooth="yes"/>
      <point x="350.344262295082" y="259.8196721311475" type="line" smooth="yes"/>
      <point x="350.344262295082" y="238.60655737704917"/>
      <point x="371.55737704918033" y="238.60655737704917" type="qcurve" smooth="yes"/>
      <point x="554.2622950819672" y="238.60655737704917" type="line"/>
      <point x="554.2622950819672" y="187.78688524590163" type="line"/>
      <point x="512.9672131147541" y="155.0327868852459" type="line"/>
      <point x="371.60655737704917" y="155.0327868852459" type="line" smooth="yes"/>
      <point x="258.4590163934426" y="155.0327868852459"/>
    </contour>
  </outline>
</glyph>
<glyph name="ordfeminine" format="2">
  <advance width="402.72131147540983"/>
  <unicode hex="00AA"/>
  <outline>
    <contour>
      <point x="36.32786885245902" y="405.11475409836066" type="qcurve" smooth="yes"/>
      <point x="36.32786885245902" y="427.1967213114754" type="line" smooth="yes"/>
      <point x="36.32786885245902" y="535.0327868852459"/>
      <point x="155.9672131147541" y="535.0327868852459" type="qcurve" smooth="yes"/>
      <point x="264.0983606557377" y="535.0327868852459" type="line"/>
      <point x="264.0983606557377" y="585.2131147540983" type="line" smooth="yes"/>
      <point x="264.0983606557377" y="606.4262295081967"/>
      <point x="242.88524590163934" y="606.4262295081967" type="qcurve" smooth="yes"/>
      <point x="71.36065573770492" y="606.4262295081967" type="line"/>
      <point x="71.36065573770492" y="657.2459016393443" type="line"/>
      <point x="113.24590163934425" y="690.0" type="line"/>
      <point x="242.65573770491804" y="690.0" type="line" smooth="yes"/>
      <point x="356.39344262295083" y="690.0"/>
      <point x="356.39344262295083" y="576.2622950819672" type="qcurve" smooth="yes"/>
      <point x="356.39344262295083" y="297.27868852459017" type="line"/>
      <point x="155.9672131147541" y="297.27868852459017" type="line" smooth="yes"/>
      <point x="36.32786885245902" y="297.27868852459017"/>
    </contour>
    <contour>
      <point x="128.21311475409834" y="402.0655737704918" type="line" smooth="yes"/>
      <point x="128.21311475409834" y="380.8524590163934"/>
      <point x="149.4262295081967" y="380.8524590163934" type="qcurve" smooth="yes"/>
      <point x="264.0983606557377" y="380.8524590163934" type="line"/>
      <point x="264.0983606557377" y="462.08196721311475" type="line"/>
      <point x="149.4262295081967" y="462.08196721311475" type="line" smooth="yes"/>
      <point x="128.21311475409834" y="462.08196721311475"/>
      <point x="128.21311475409834" y="440.8688524590164" type="qcurve" smooth="yes"/>
    </contour>
  </outline>
</glyph>
<glyph name="logicalnot" format="2">
  <advance width="578.0"/>
  <unicode hex="00AC"/>
  <outline>
    <contour>
      <point x="61.278688524590166" y="334.4918032786885" type="line"/>
      <point x="61.278688524590166" y="435.5081967213115" type="line"/>
      <point x="516.7213114754098" y="435.5081967213115" type="line"/>
      <point x="516.7213114754098" y="147.27868852459017" type="line"/>
      <point x="410.75409836065575" y="147.27868852459017" type="line"/>
      <point x="410.75409836065575" y="334.4918032786885" type="line"/>
    </contour>
  </outline>
</glyph>
<glyph name="registered" format="2">
  <advance width="842.7213114754098"/>
  <unicode hex="00AE"/>
  <outline>
    <contour>
      <point x="74.9672131147541" y="108.60655737704917" type="qcurve" smooth="yes"/>
      <point x="74.9672131147541" y="581.3934426229508" type="line" smooth="yes"/>
      <point x="74.9672131147541" y="690.0"/>
      <point x="183.5737704918033" y="690.0" type="qcurve" smooth="yes"/>
      <point x="659.1475409836065" y="690.0" type="line" smooth="yes"/>
      <point x="767.7540983606557" y="690.0"/>
      <point x="767.7540983606557" y="581.3934426229508" type="qcurve" smooth="yes"/>
      <point x="767.7540983606557" y="108.60655737704917" type="line" smooth="yes"/>
      <point x="767.7540983606557" y="0.0"/>
      <point x="659.1475409836065" y="0.0" type="qcurve" smooth="yes"/>
      <point x="183.5737704918033" y="0.0" type="line" smooth="yes"/>
      <point x="74.9672131147541" y="0.0"/>
    </contour>
    <contour>
      <point x="161.9016393442623" y="100.24590163934425" type="line" smooth="yes"/>
      <point x="161.9016393442623" y="78.21311475409836"/>
      <point x="183.52459016393442" y="78.21311475409836" type="qcurve" smooth="yes"/>
      <point x="658.7868852459017" y="78.21311475409836" type="line" smooth="yes"/>
      <point x="680.8196721311475" y="78.21311475409836"/>
      <point x="680.8196721311475" y="100.24590163934425" type="qcurve" smooth="yes"/>
      <point x="680.8196721311475" y="589.7540983606557" type="line" smooth="yes"/>
      <point x="680.8196721311475" y="611.7868852459017"/>
      <point x="658.7868852459017" y="611.7868852459017" type="qcurve" smooth="yes"/>
      <point x="183.52459016393442" y="611.7868852459017" type="line" smooth="yes"/>
      <point x="161.9016393442623" y="611.7868852459017"/>
      <point x="161.9016393442623" y="589.7540983606557" type="qcurve" smooth="yes"/>
    </contour>
    <contour>
      <point x="274.1475409836066" y="155.0327868852459" type="line"/>
      <point x="274.1475409836066" y="534.9672131147541" type="line"/>
      <point x="459.88524590163934" y="534.9672131147541" type="line" smooth="yes"/>
      <point x="574.2131147540983" y="534.9672131147541"/>
      <point x="574.2131147540983" y="421.2295081967213" type="qcurve" smooth="yes"/>
      <point x="574.2131147540983" y="392.4590163934426" type="line" smooth="yes"/>
      <point x="574.2131147540983" y="316.4590163934426"/>
      <point x="521.1967213114754" y="291.5245901639344" type="qcurve"/>
      <point x="579.5409836065573" y="175.0655737704918" type="line"/>
      <point x="569.2295081967213" y="155.0327868852459" type="line"/>
      <point x="489.24590163934425" y="155.0327868852459" type="line"/>
      <point x="426.08196721311475" y="279.3114754098361" type="line"/>
      <point x="366.44262295081967" y="279.3114754098361" type="line"/>
      <point x="366.44262295081967" y="155.0327868852459" type="line"/>
    </contour>
    <contour>
      <point x="366.44262295081967" y="362.88524590163934" type="line"/>
      <point x="460.7049180327869" y="362.88524590163934" type="line" smooth="yes"/>
      <point x="481.91803278688525" y="362.88524590163934"/>
      <point x="481.91803278688525" y="384.0983606557377" type="qcurve" smooth="yes"/>
      <point x="481.91803278688525" y="430.1803278688525" type="line" smooth="yes"/>
      <point x="481.91803278688525" y="451.39344262295083"/>
      <point x="460.7049180327869" y="451.39344262295083" type="qcurve" smooth="yes"/>
      <point x="366.44262295081967" y="451.39344262295083" type="line"/>
    </contour>
  </outline>
</glyph>
<glyph name="degree" format="2">
  <advance width="411.3606557377049"/>
  <unicode hex="00B0"/>
  <outline>
    <contour>
      <point x="54.9672131147541" y="479.0163934426229" type="qcurve" smooth="yes"/>
      <point x="54.9672131147541" y="580.983606557377" type="line" smooth="yes"/>
      <point x="54.9672131147541" y="690.0"/>
      <point x="163.98360655737704" y="690.0" type="qcurve" smooth="yes"/>
      <point x="247.37704918032787" y="690.0" type="line" smooth="yes"/>
      <point x="356.39344262295083" y="690.0"/>
      <point x="356.39344262295083" y="580.983606557377" type="qcurve" smooth="yes"/>
      <point x="356.39344262295083" y="479.0163934426229" type="line" smooth="yes"/>
      <point x="356.39344262295083" y="370.0"/>
      <point x="247.37704918032787" y="370.0" type="qcurve" smooth="yes"/>
      <point x="163.98360655737704" y="370.0" type="line" smooth="yes"/>
      <point x="54.9672131147541" y="370.0"/>
    </contour>
    <contour>
      <point x="141.9016393442623" y="471.0655737704918" type="line" smooth="yes"/>
      <point x="141.9016393442623" y="448.21311475409834"/>
      <point x="164.75409836065575" y="448.21311475409834" type="qcurve" smooth="yes"/>
      <point x="246.60655737704917" y="448.21311475409834" type="line" smooth="yes"/>
      <point x="269.45901639344265" y="448.21311475409834"/>
      <point x="269.45901639344265" y="471.0655737704918" type="qcurve" smooth="yes"/>
      <point x="269.45901639344265" y="588.9344262295082" type="line" smooth="yes"/>
      <point x="269.45901639344265" y="611.7868852459017"/>
      <point x="246.60655737704917" y="611.7868852459017" type="qcurve" smooth="yes"/>
      <point x="164.75409836065575" y="611.7868852459017" type="line" smooth="yes"/>
      <point x="141.9016393442623" y="611.7868852459017"/>
      <point x="141.9016393442623" y="588.9344262295082" type="qcurve" smooth="yes"/>
    </contour>
  </outline>
</glyph>
<glyph name="plusminus" format="2">
  <advance width="578.0"/>
  <unicode hex="00B1"/>
  <outline>
    <contour>
      <point x="61.278688524590166" y="0.0" type="line"/>
      <point x="61.278688524590166" y="100.60655737704917" type="line"/>
      <point x="516.7213114754098" y="100.60655737704917" type="line"/>
      <point x="516.7213114754098" y="0.0" type="line"/>
    </contour>
    <contour>
      <point x="61.278688524590166" y="317.27868852459017" type="line"/>
      <point x="61.278688524590166" y="418.2950819672131" type="line"/>
      <point x="235.72131147540983" y="418.2950819672131" type="line"/>
      <point x="235.72131147540983" y="590.0655737704918" type="line"/>
      <point x="342.27868852459017" y="590.0655737704918" type="line"/>
      <point x="342.27868852459017" y="418.2950819672131" type="line"/>
      <point x="516.7213114754098" y="418.2950819672131" type="line"/>
      <point x="516.7213114754098" y="317.27868852459017" type="line"/>
      <point x="342.27868852459017" y="317.27868852459017" type="line"/>
      <point x="342.27868852459017" y="145.50819672131146" type="line"/>
      <point x="235.72131147540983" y="145.50819672131146" type="line"/>
      <point x="235.72131147540983" y="317.27868852459017" type="line"/>
    </contour>
  </outline>
</glyph>
<glyph name="uni00B2" format="2">
  <advance width="363.672131147541"/>
  <unicode hex="00B2"/>
  <outline>
    <contour>
      <point x="36.32786885245902" y="276.327868852459" type="line"/>
      <point x="36.32786885245902" y="405.3114754098361" type="line" smooth="yes"/>
      <point x="36.32786885245902" y="493.4754098360656"/>
      <point x="120.62295081967213" y="510.0163934426229" type="qcurve" smooth="yes"/>
      <point x="214.9344262295082" y="528.5245901639345" type="line" smooth="yes"/>
      <point x="235.45901639344262" y="532.3934426229508"/>
      <point x="235.45901639344262" y="553.688524590164" type="qcurve" smooth="yes"/>
      <point x="235.45901639344262" y="585.2131147540983" type="line" smooth="yes"/>
      <point x="235.45901639344262" y="606.4262295081967"/>
      <point x="214.24590163934425" y="606.4262295081967" type="qcurve" smooth="yes"/>
      <point x="48.32786885245902" y="606.4262295081967" type="line"/>
      <point x="48.32786885245902" y="657.2459016393443" type="line"/>
      <point x="90.21311475409836" y="690.0" type="line"/>
      <point x="214.01639344262296" y="690.0" type="line" smooth="yes"/>
      <point x="327.75409836065575" y="690.0"/>
      <point x="327.75409836065575" y="576.2622950819672" type="qcurve" smooth="yes"/>
      <point x="327.75409836065575" y="553.4262295081967" type="line" smooth="yes"/>
      <point x="327.75409836065575" y="464.26229508196724"/>
      <point x="242.86885245901638" y="447.72131147540983" type="qcurve" smooth="yes"/>
      <point x="149.14754098360655" y="429.21311475409834" type="line" smooth="yes"/>
      <point x="128.21311475409834" y="425.344262295082"/>
      <point x="128.21311475409834" y="404.6393442622951" type="qcurve" smooth="yes"/>
      <point x="128.21311475409834" y="359.9016393442623" type="line"/>
      <point x="327.75409836065575" y="359.9016393442623" type="line"/>
      <point x="327.75409836065575" y="276.327868852459" type="line"/>
    </contour>
  </outline>
</glyph>
<glyph name="uni00B3" format="2">
  <advance width="363.672131147541"/>
  <unicode hex="00B3"/>
  <outline>
    <contour>
      <point x="42.32786885245902" y="308.672131147541" type="line"/>
      <point x="42.32786885245902" y="359.9016393442623" type="line"/>
      <point x="214.24590163934425" y="359.9016393442623" type="line" smooth="yes"/>
      <point x="235.45901639344262" y="359.9016393442623"/>
      <point x="235.45901639344262" y="381.11475409836066" type="qcurve" smooth="yes"/>
      <point x="235.45901639344262" y="424.327868852459" type="line" smooth="yes"/>
      <point x="235.45901639344262" y="445.54098360655735"/>
      <point x="214.24590163934425" y="445.54098360655735" type="qcurve" smooth="yes"/>
      <point x="86.32786885245902" y="445.54098360655735" type="line"/>
      <point x="86.32786885245902" y="529.1147540983607" type="line"/>
      <point x="214.24590163934425" y="529.1147540983607" type="line" smooth="yes"/>
      <point x="235.45901639344262" y="529.1147540983607"/>
      <point x="235.45901639344262" y="550.327868852459" type="qcurve" smooth="yes"/>
      <point x="235.45901639344262" y="585.2131147540983" type="line" smooth="yes"/>
      <point x="235.45901639344262" y="606.4262295081967"/>
      <point x="214.24590163934425" y="606.4262295081967" type="qcurve" smooth="yes"/>
      <point x="48.32786885245902" y="606.4262295081967" type="line"/>
      <point x="48.32786885245902" y="657.2459016393443" type="line"/>
      <point x="90.21311475409836" y="690.0" type="line"/>
      <point x="214.01639344262296" y="690.0" type="line" smooth="yes"/>
      <point x="327.75409836065575" y="690.0"/>
      <point x="327.75409836065575" y="576.2622950819672" type="qcurve" smooth="yes"/>
      <point x="327.75409836065575" y="554.9672131147541" type="line" smooth="yes"/>
      <point x="327.75409836065575" y="527.9672131147541"/>
      <point x="310.75409836065575" y="510.9672131147541" type="qcurve" smooth="yes"/>
      <point x="287.75409836065575" y="487.9672131147541" type="line"/>
      <point x="310.75409836065575" y="464.9672131147541" type="line" smooth="yes"/>
      <point x="327.75409836065575" y="447.9672131147541"/>
      <point x="327.75409836065575" y="420.9672131147541" type="qcurve" smooth="yes"/>
      <point x="327.75409836065575" y="389.655737704918" type="line" smooth="yes"/>
      <point x="327.75409836065575" y="276.327868852459"/>
      <point x="214.01639344262296" y="276.327868852459" type="qcurve" smooth="yes"/>
      <point x="84.21311475409836" y="276.327868852459" type="line"/>
    </contour>
  </outline>
</glyph>
<glyph name="paragraph" format="2">
  <advance width="626.1147540983607"/>
  <unicode hex="00B6"/>
  <outline>
    <contour>
      <point x="64.9672131147541" y="370.8196721311475" type="qcurve" smooth="yes"/>
      <point x="64.9672131147541" y="540.0" type="line" smooth="yes"/>
      <point x="64.9672131147541" y="690.0"/>
      <point x="214.9672131147541" y="690.0" type="qcurve" smooth="yes"/>
      <point x="344.1475409836066" y="690.0" type="line"/>
      <point x="344.1475409836066" y="220.81967213114754" type="line"/>
      <point x="214.9672131147541" y="220.81967213114754" type="line" smooth="yes"/>
      <point x="64.9672131147541" y="220.81967213114754"/>
    </contour>
    <contour>
      <point x="414.1475409836066" y="-170.0" type="line"/>
      <point x="414.1475409836066" y="690.0" type="line"/>
      <point x="531.1475409836065" y="690.0" type="line"/>
      <point x="531.1475409836065" y="-170.0" type="line"/>
    </contour>
  </outline>
</glyph>
<glyph name="uni00B9" format="2">
  <advance width="363.672131147541"/>
  <unicode hex="00B9"/>
  <outline>
    <contour>
      <point x="54.32786885245902" y="276.327868852459" type="line"/>
      <point x="54.32786885245902" y="359.9016393442623" type="line"/>
      <point x="146.39344262295083" y="359.9016393442623" type="line"/>
      <point x="146.39344262295083" y="606.4262295081967" type="line"/>
      <point x="71.24590163934427" y="606.4262295081967" type="line"/>
      <point x="71.24590163934427" y="657.2459016393443" type="line"/>
      <point x="113.1311475409836" y="690.0" type="line"/>
      <point x="238.68852459016392" y="690.0" type="line"/>
      <point x="238.68852459016392" y="359.9016393442623" type="line"/>
      <point x="321.75409836065575" y="359.9016393442623" type="line"/>
      <point x="321.75409836065575" y="276.327868852459" type="line"/>
    </contour>
  </outline>
</glyph>
<glyph name="ordmasculine" format="2">
  <advance width="432.72131147540983"/>
  <unicode hex="00BA"/>
  <outline>
    <contour>
      <point x="46.32786885245902" y="411.0163934426229" type="qcurve" smooth="yes"/>
      <point x="46.32786885245902" y="576.2622950819672" type="line" smooth="yes"/>
      <point x="46.32786885245902" y="690.0"/>
      <point x="160.0655737704918" y="690.0" type="qcurve" smooth="yes"/>
      <point x="272.655737704918" y="690.0" type="line" smooth="yes"/>
      <point x="386.39344262295083" y="690.0"/>
      <point x="386.39344262295083" y="576.2622950819672" type="qcurve" smooth="yes"/>
      <point x="386.39344262295083" y="411.0163934426229" type="line" smooth="yes"/>
      <point x="386.39344262295083" y="297.27868852459017"/>
      <point x="272.655737704918" y="297.27868852459017" type="qcurve" smooth="yes"/>
      <point x="160.0655737704918" y="297.27868852459017" type="line" smooth="yes"/>
      <point x="46.32786885245902" y="297.27868852459017"/>
    </contour>
    <contour>
      <point x="138.21311475409834" y="402.0655737704918" type="line" smooth="yes"/>
      <point x="138.21311475409834" y="380.8524590163934"/>
      <point x="159.4262295081967" y="380.8524590163934" type="qcurve" smooth="yes"/>
      <point x="272.88524590163934" y="380.8524590163934" type="line" smooth="yes"/>
      <point x="294.0983606557377" y="380.8524590163934"/>
      <point x="294.0983606557377" y="402.0655737704918" type="qcurve" smooth="yes"/>
      <point x="294.0983606557377" y="585.2131147540983" type="line" smooth="yes"/>
      <point x="294.0983606557377" y="606.4262295081967"/>
      <point x="272.88524590163934" y="606.4262295081967" type="qcurve" smooth="yes"/>
      <point x="159.4262295081967" y="606.4262295081967" type="line" smooth="yes"/>
      <point x="138.21311475409834" y="606.4262295081967"/>
      <point x="138.21311475409834" y="585.2131147540983" type="qcurve" smooth="yes"/>
    </contour>
  </outline>
</glyph>
<glyph name="questiondown" format="2">
  <advance width="495.5081967213115"/>
  <unicode hex="00BF"/>
  <outline>
    <contour>
      <point x="50.0" y="-2.081967213114755" type="qcurve" smooth="yes"/>
      <point x="50.0" y="77.75409836065573" type="line" smooth="yes"/>
      <point x="50.0" y="246.54098360655738"/>
      <point x="206.98360655737704" y="246.54098360655738" type="qcurve" smooth="yes"/>
      <point x="234.34426229508196" y="246.54098360655738" type="line"/>
      <point x="234.34426229508196" y="307.27868852459017" type="line"/>
      <point x="356.9344262295082" y="307.27868852459017" type="line"/>
      <point x="356.9344262295082" y="135.85245901639345" type="line"/>
      <point x="216.14754098360655" y="135.85245901639345" type="line" smooth="yes"/>
      <point x="172.36065573770492" y="135.85245901639345"/>
      <point x="172.36065573770492" y="92.0655737704918" type="qcurve" smooth="yes"/>
      <point x="172.36065573770492" y="-10.491803278688526" type="line" smooth="yes"/>
      <point x="172.36065573770492" y="-54.278688524590166"/>
      <point x="216.14754098360655" y="-54.278688524590166" type="qcurve" smooth="yes"/>
      <point x="475.5081967213115" y="-54.278688524590166" type="line"/>
      <point x="475.5081967213115" y="-119.31147540983606" type="line"/>
      <point x="416.3606557377049" y="-164.9672131147541" type="line"/>
      <point x="212.88524590163934" y="-164.9672131147541" type="line" smooth="yes"/>
      <point x="50.0" y="-164.9672131147541"/>
    </contour>
    <contour>
      <point x="230.29508196721312" y="395.1803278688525" type="line"/>
      <point x="230.29508196721312" y="525.0327868852459" type="line"/>
      <point x="361.21311475409834" y="525.0327868852459" type="line"/>
      <point x="361.21311475409834" y="395.1803278688525" type="line"/>
    </contour>
  </outline>
</glyph>
<glyph name="AE" format="2">
  <advance width="914.2131147540983"/>
  <unicode hex="00C6"/>
  <outline>
    <contour>
      <point x="18.639344262295083" y="24.21311475409836" type="line"/>
      <point x="231.672131147541" y="690.0" type="line"/>
      <point x="864.2131147540983" y="690.0" type="line"/>
      <point x="864.2131147540983" y="579.311475409836" type="line"/>
      <point x="541.0" y="579.311475409836" type="line"/>
      <point x="541.0" y="412.78688524590166" type="line"/>
      <point x="834.2131147540983" y="412.78688524590166" type="line"/>
      <point x="834.2131147540983" y="302.0983606557377" type="line"/>
      <point x="541.0" y="302.0983606557377" type="line"/>
      <point x="541.0" y="110.68852459016394" type="line"/>
      <point x="864.2131147540983" y="110.68852459016394" type="line"/>
      <point x="864.2131147540983" y="0.0" type="line"/>
      <point x="418.6393442622951" y="0.0" type="line"/>
      <point x="418.6393442622951" y="152.0983606557377" type="line"/>
      <point x="183.5737704918033" y="152.0983606557377" type="line"/>
      <point x="136.45901639344262" y="0.0" type="line"/>
      <point x="34.721311475409834" y="0.0" type="line"/>
    </contour>
    <contour>
      <point x="217.68852459016392" y="262.78688524590166" type="line"/>
      <point x="418.6393442622951" y="262.78688524590166" type="line"/>
      <point x="418.6393442622951" y="579.311475409836" type="line"/>
      <point x="317.1475409836066" y="579.311475409836" type="line"/>
    </contour>
  </outline>
</glyph>
<glyph name="Eth" format="2">
  <advance width="699.1147540983607"/>
  <unicode hex="00D0"/>
  <outline>
    <contour>
      <point x="20.0" y="296.4918032786885" type="line"/>
      <point x="20.0" y="393.5081967213115" type="line"/>
      <point x="98.63934426229508" y="393.5081967213115" type="line"/>
      <point x="98.63934426229508" y="690.0" type="line"/>
      <point x="390.9672131147541" y="690.0" type="line" smooth="yes"/>
      <point x="634.1475409836065" y="690.0"/>
      <point x="634.1475409836065" y="446.8196721311475" type="qcurve" smooth="yes"/>
      <point x="634.1475409836065" y="243.18032786885246" type="line" smooth="yes"/>
      <point x="634.1475409836065" y="0.0"/>
      <point x="390.9672131147541" y="0.0" type="qcurve" smooth="yes"/>
      <point x="98.63934426229508" y="0.0" type="line"/>
      <point x="98.63934426229508" y="296.4918032786885" type="line"/>
    </contour>
    <contour>
      <point x="221.0" y="110.68852459016394" type="line"/>
      <point x="390.9672131147541" y="110.68852459016394" type="line" smooth="yes"/>
      <point x="511.78688524590166" y="110.68852459016394"/>
      <point x="511.78688524590166" y="231.50819672131146" type="qcurve" smooth="yes"/>
      <point x="511.78688524590166" y="458.4918032786885" type="line" smooth="yes"/>
      <point x="511.78688524590166" y="579.311475409836"/>
      <point x="390.9672131147541" y="579.311475409836" type="qcurve" smooth="yes"/>
      <point x="221.0" y="579.311475409836" type="line"/>
      <point x="221.0" y="393.5081967213115" type="line"/>
      <point x="366.39344262295083" y="393.5081967213115" type="line"/>
      <point x="366.39344262295083" y="296.4918032786885" type="line"/>
      <point x="221.0" y="296.4918032786885" type="line"/>
    </contour>
  </outline>
</glyph>
<glyph name="multiply" format="2">
  <advance width="578.0"/>
  <unicode hex="00D7"/>
  <outline>
    <contour>
      <point x="72.75409836065575" y="191.24590163934425" type="line"/>
      <point x="217.0983606557377" y="335.0" type="line"/>
      <point x="72.75409836065575" y="478.75409836065575" type="line"/>
      <point x="145.24590163934425" y="551.2459016393443" type="line"/>
      <point x="289.0" y="406.9016393442623" type="line"/>
      <point x="432.75409836065575" y="551.2459016393443" type="line"/>
      <point x="505.24590163934425" y="478.75409836065575" type="line"/>
      <point x="360.9016393442623" y="335.0" type="line"/>
      <point x="505.24590163934425" y="191.24590163934425" type="line"/>
      <point x="432.75409836065575" y="118.75409836065575" type="line"/>
      <point x="289.0" y="263.0983606557377" type="line"/>
      <point x="145.24590163934425" y="118.75409836065575" type="line"/>
    </contour>
  </outline>
</glyph>
<glyph name="Oslash" format="2">
  <advance width="705.0327868852459"/>
  <unicode hex="00D8"/>
  <outline>
    <contour>
      <point x="74.9672131147541" y="162.88524590163934" type="qcurve" smooth="yes"/>
      <point x="74.9672131147541" y="527.1147540983607" type="line" smooth="yes"/>
      <point x="74.9672131147541" y="690.0"/>
      <point x="237.85245901639345" y="690.0" type="qcurve" smooth="yes"/>
      <point x="467.1803278688525" y="690.0" type="line" smooth="yes"/>
      <point x="630.0655737704918" y="690.0"/>
      <point x="630.0655737704918" y="527.1147540983607" type="qcurve" smooth="yes"/>
      <point x="630.0655737704918" y="162.88524590163934" type="line" smooth="yes"/>
      <point x="630.0655737704918" y="0.0"/>
      <point x="467.1803278688525" y="0.0" type="qcurve" smooth="yes"/>
      <point x="237.85245901639345" y="0.0" type="line" smooth="yes"/>
      <point x="74.9672131147541" y="0.0"/>
    </contour>
    <contour>
      <point x="197.327868852459" y="254.36065573770492" type="line"/>
      <point x="507.2950819672131" y="542.3934426229508" type="line"/>
      <point x="504.4754098360656" y="579.311475409836"/>
      <point x="464.327868852459" y="579.311475409836" type="qcurve" smooth="yes"/>
      <point x="241.11475409836066" y="579.311475409836" type="line" smooth="yes"/>
      <point x="197.327868852459" y="579.311475409836"/>
      <point x="197.327868852459" y="535.9344262295082" type="qcurve" smooth="yes"/>
    </contour>
    <contour>
      <point x="197.7377049180328" y="147.60655737704917" type="line"/>
      <point x="200.55737704918033" y="110.68852459016394"/>
      <point x="241.11475409836066" y="110.68852459016394" type="qcurve" smooth="yes"/>
      <point x="464.327868852459" y="110.68852459016394" type="line" smooth="yes"/>
      <point x="507.7049180327869" y="110.68852459016394"/>
      <point x="507.7049180327869" y="154.0655737704918" type="qcurve" smooth="yes"/>
      <point x="507.7049180327869" y="435.6393442622951" type="line"/>
    </contour>
  </outline>
</glyph>
<glyph name="Thorn" format="2">
  <advance width="635.0327868852459"/>
  <unicode hex="00DE"/>
  <outline>
    <contour>
      <point x="84.9672131147541" y="0.0" type="line"/>
      <point x="84.9672131147541" y="690.0" type="line"/>
      <point x="207.327868852459" y="690.0" type="line"/>
      <point x="207.327868852459" y="582.7868852459017" type="line"/>
      <point x="417.1803278688525" y="582.7868852459017" type="line" smooth="yes"/>
      <point x="580.0655737704918" y="582.7868852459017"/>
      <point x="580.0655737704918" y="419.9016393442623" type="qcurve" smooth="yes"/>
      <point x="580.0655737704918" y="284.0983606557377" type="line" smooth="yes"/>
      <point x="580.0655737704918" y="121.21311475409836"/>
      <point x="417.1803278688525" y="121.21311475409836" type="qcurve" smooth="yes"/>
      <point x="207.327868852459" y="121.21311475409836" type="line"/>
      <point x="207.327868852459" y="0.0" type="line"/>
    </contour>
    <contour>
      <point x="207.327868852459" y="231.9016393442623" type="line"/>
      <point x="414.327868852459" y="231.9016393442623" type="line" smooth="yes"/>
      <point x="457.7049180327869" y="231.9016393442623"/>
      <point x="457.7049180327869" y="275.27868852459017" type="qcurve" smooth="yes"/>
      <point x="457.7049180327869" y="428.72131147540983" type="line" smooth="yes"/>
      <point x="457.7049180327869" y="472.0983606557377"/>
      <point x="414.327868852459" y="472.0983606557377" type="qcurve" smooth="yes"/>
      <point x="207.327868852459" y="472.0983606557377" type="line"/>
    </contour>
  </outline>
</glyph>
<glyph name="germandbls" format="2">
  <advance width="613.4262295081967"/>
  <unicode hex="00DF"/>
  <outline>
    <contour>
      <point x="74.9672131147541" y="0.0" type="line"/>
      <point x="74.9672131147541" y="582.2459016393443" type="line" smooth="yes"/>
      <point x="74.9672131147541" y="740.0"/>
      <point x="232.72131147540983" y="740.0" type="qcurve" smooth="yes"/>
      <point x="369.11475409836066" y="740.0" type="line" smooth="yes"/>
      <point x="526.4590163934427" y="740.0"/>
      <point x="526.4590163934427" y="582.2459016393443" type="qcurve" smooth="yes"/>
      <point x="526.4590163934427" y="491.0" type="line" smooth="yes"/>
      <point x="526.4590163934427" y="457.0"/>
      <point x="506.45901639344265" y="433.0" type="qcurve" smooth="yes"/>
      <point x="471.45901639344265" y="391.0" type="line"/>
      <point x="513.4590163934427" y="356.0" type="line" smooth="yes"/>
      <point x="546.4590163934427" y="328.0"/>
      <point x="546.4590163934427" y="276.0" type="qcurve" smooth="yes"/>
      <point x="546.4590163934427" y="157.75409836065575" type="line" smooth="yes"/>
      <point x="546.4590163934427" y="0.0"/>
      <point x="389.11475409836066" y="0.0" type="qcurve" smooth="yes"/>
      <point x="316.9344262295082" y="0.0" type="line"/>
      <point x="264.1475409836066" y="39.295081967213115" type="line"/>
      <point x="264.1475409836066" y="101.96721311475409" type="line"/>
      <point x="383.672131147541" y="101.96721311475409" type="line" smooth="yes"/>
      <point x="429.45901639344265" y="101.96721311475409"/>
      <point x="429.45901639344265" y="147.75409836065575" type="qcurve" smooth="yes"/>
      <point x="429.45901639344265" y="288.5245901639344" type="line" smooth="yes"/>
      <point x="429.45901639344265" y="333.72131147540983"/>
      <point x="383.672131147541" y="333.72131147540983" type="qcurve" smooth="yes"/>
      <point x="274.1475409836066" y="333.72131147540983" type="line"/>
      <point x="274.1475409836066" y="436.27868852459017" type="line"/>
      <point x="363.672131147541" y="436.27868852459017" type="line" smooth="yes"/>
      <point x="409.45901639344265" y="436.27868852459017"/>
      <point x="409.45901639344265" y="481.4754098360656" type="qcurve" smooth="yes"/>
      <point x="409.45901639344265" y="592.2459016393443" type="line" smooth="yes"/>
      <point x="409.45901639344265" y="638.0327868852459"/>
      <point x="363.672131147541" y="638.0327868852459" type="qcurve" smooth="yes"/>
      <point x="237.75409836065575" y="638.0327868852459" type="line" smooth="yes"/>
      <point x="191.9672131147541" y="638.0327868852459"/>
      <point x="191.9672131147541" y="592.2459016393443" type="qcurve" smooth="yes"/>
      <point x="191.9672131147541" y="0.0" type="line"/>
    </contour>
  </outline>
</glyph>
<glyph name="ae" format="2">
  <advance width="866.2459016393443"/>
  <unicode hex="00E6"/>
  <outline>
    <contour>
      <point x="205.13114754098362" y="0.0" type="line" smooth="yes"/>
      <point x="46.9672131147541" y="0.0"/>
      <point x="46.9672131147541" y="312.0655737704918"/>
      <point x="205.13114754098362" y="312.0655737704918" type="qcurve" smooth="yes"/>
      <point x="357.78688524590166" y="312.0655737704918" type="line"/>
      <point x="357.78688524590166" y="377.27868852459017" type="line" smooth="yes"/>
      <point x="357.78688524590166" y="423.0655737704918"/>
      <point x="312.0" y="423.0655737704918" type="qcurve" smooth="yes"/>
      <point x="100.63934426229508" y="423.0655737704918" type="line"/>
      <point x="100.63934426229508" y="485.73770491803276" type="line"/>
      <point x="153.4262295081967" y="525.0327868852459" type="line"/>
      <point x="302.0983606557377" y="525.0327868852459" type="line" smooth="yes"/>
      <point x="378.24590163934425" y="525.0327868852459"/>
      <point x="416.1967213114754" y="480.11475409836066" type="qcurve"/>
      <point x="454.1475409836066" y="525.0327868852459"/>
      <point x="531.4754098360655" y="525.0327868852459" type="qcurve" smooth="yes"/>
      <point x="641.9344262295082" y="525.0327868852459" type="line" smooth="yes"/>
      <point x="799.2786885245902" y="525.0327868852459"/>
      <point x="799.2786885245902" y="367.27868852459017" type="qcurve" smooth="yes"/>
      <point x="799.2786885245902" y="218.9344262295082" type="line"/>
      <point x="474.78688524590166" y="218.9344262295082" type="line"/>
      <point x="474.78688524590166" y="147.75409836065575" type="line" smooth="yes"/>
      <point x="474.78688524590166" y="101.96721311475409"/>
      <point x="520.5737704918033" y="101.96721311475409" type="qcurve" smooth="yes"/>
      <point x="779.2786885245902" y="101.96721311475409" type="line"/>
      <point x="779.2786885245902" y="39.295081967213115" type="line"/>
      <point x="726.4918032786885" y="0.0" type="line"/>
      <point x="531.4754098360655" y="0.0" type="line" smooth="yes"/>
      <point x="454.1475409836066" y="0.0"/>
      <point x="416.1967213114754" y="44.91803278688525" type="qcurve"/>
      <point x="378.24590163934425" y="0.0"/>
      <point x="302.0983606557377" y="0.0" type="qcurve" smooth="yes"/>
    </contour>
    <contour>
      <point x="163.9672131147541" y="147.75409836065575" type="line" smooth="yes"/>
      <point x="163.9672131147541" y="101.96721311475409"/>
      <point x="209.75409836065575" y="101.96721311475409" type="qcurve" smooth="yes"/>
      <point x="312.0" y="101.96721311475409" type="line" smooth="yes"/>
      <point x="357.78688524590166" y="101.96721311475409"/>
      <point x="357.78688524590166" y="147.75409836065575" type="qcurve" smooth="yes"/>
      <point x="357.78688524590166" y="221.31147540983608" type="line"/>
      <point x="209.75409836065575" y="221.31147540983608" type="line" smooth="yes"/>
      <point x="163.9672131147541" y="221.31147540983608"/>
      <point x="163.9672131147541" y="175.52459016393442" type="qcurve" smooth="yes"/>
    </contour>
    <contour>
      <point x="474.78688524590166" y="309.6885245901639" type="line"/>
      <point x="682.2786885245902" y="309.6885245901639" type="line"/>
      <point x="682.2786885245902" y="377.27868852459017" type="line" smooth="yes"/>
      <point x="682.2786885245902" y="423.0655737704918"/>
      <point x="636.4918032786885" y="423.0655737704918" type="qcurve" smooth="yes"/>
      <point x="520.5737704918033" y="423.0655737704918" type="line" smooth="yes"/>
      <point x="474.78688524590166" y="423.0655737704918"/>
      <point x="474.78688524590166" y="377.27868852459017" type="qcurve" smooth="yes"/>
    </contour>
  </outline>
</glyph>
<glyph name="eth" format="2">
  <advance width="589.0327868852459"/>
  <unicode hex="00F0"/>
  <outline>
    <contour>
      <point x="66.9672131147541" y="157.75409836065575" type="qcurve" smooth="yes"/>
      <point x="66.9672131147541" y="292.24590163934425" type="line" smooth="yes"/>
      <point x="66.9672131147541" y="450.0"/>
      <point x="224.72131147540983" y="450.0" type="qcurve" smooth="yes"/>
      <point x="387.60655737704917" y="450.0" type="line"/>
      <point x="324.75409836065575" y="553.0491803278688" type="line"/>
      <point x="216.34426229508196" y="501.04918032786884" type="line"/>
      <point x="178.327868852459" y="582.0327868852459" type="line"/>
      <point x="277.42622950819674" y="629.672131147541" type="line"/>
      <point x="232.95081967213116" y="705.016393442623" type="line"/>
      <point x="328.37704918032784" y="759.1147540983607" type="line"/>
      <point x="377.0327868852459" y="677.4098360655738" type="line"/>
      <point x="471.60655737704917" y="721.7868852459017" type="line"/>
      <point x="509.0327868852459" y="640.3934426229508" type="line"/>
      <point x="425.3606557377049" y="601.7377049180328" type="line"/>
      <point x="496.26229508196724" y="481.6393442622951" type="line" smooth="yes"/>
      <point x="522.0655737704918" y="436.0327868852459"/>
      <point x="522.0655737704918" y="373.8360655737705" type="qcurve" smooth="yes"/>
      <point x="522.0655737704918" y="157.75409836065575" type="line" smooth="yes"/>
      <point x="522.0655737704918" y="0.0"/>
      <point x="364.72131147540983" y="0.0" type="qcurve" smooth="yes"/>
      <point x="224.72131147540983" y="0.0" type="line" smooth="yes"/>
      <point x="66.9672131147541" y="0.0"/>
    </contour>
    <contour>
      <point x="183.9672131147541" y="147.75409836065575" type="line" smooth="yes"/>
      <point x="183.9672131147541" y="101.96721311475409"/>
      <point x="229.75409836065575" y="101.96721311475409" type="qcurve" smooth="yes"/>
      <point x="359.27868852459017" y="101.96721311475409" type="line" smooth="yes"/>
      <point x="405.0655737704918" y="101.96721311475409"/>
      <point x="405.0655737704918" y="147.75409836065575" type="qcurve" smooth="yes"/>
      <point x="405.0655737704918" y="348.0327868852459" type="line"/>
      <point x="229.75409836065575" y="348.0327868852459" type="line" smooth="yes"/>
      <point x="183.9672131147541" y="348.0327868852459"/>
      <point x="183.9672131147541" y="302.24590163934425" type="qcurve" smooth="yes"/>
    </contour>
  </outline>
</glyph>
<glyph name="divide" format="2">
  <advance width="578.0"/>
  <unicode hex="00F7"/>
  <outline>
    <contour>
      <point x="61.278688524590166" y="284.4918032786885" type="line"/>
      <point x="61.278688524590166" y="385.5081967213115" type="line"/>
      <point x="516.7213114754098" y="385.5081967213115" type="line"/>
      <point x="516.7213114754098" y="284.4918032786885" type="line"/>
    </contour>
    <contour>
      <point x="234.70491803278688" y="90.70491803278688" type="line"/>
      <point x="234.70491803278688" y="199.29508196721312" type="line"/>
      <point x="343.2950819672131" y="199.29508196721312" type="line"/>
      <point x="343.2950819672131" y="90.70491803278688" type="line"/>
    </contour>
    <contour>
      <point x="234.70491803278688" y="470.7049180327869" type="line"/>
      <point x="234.70491803278688" y="579.2950819672132" type="line"/>
      <point x="343.2950819672131" y="579.2950819672132" type="line"/>
      <point x="343.2950819672131" y="470.7049180327869" type="line"/>
    </contour>
  </outline>
</glyph>
<glyph name="oslash" format="2">
  <advance width="589.0327868852459"/>
  <unicode hex="00F8"/>
  <outline>
    <contour>
      <point x="66.9672131147541" y="157.75409836065575" type="qcurve" smooth="yes"/>
      <point x="66.9672131147541" y="367.27868852459017" type="line" smooth="yes"/>
      <point x="66.9672131147541" y="525.0327868852459"/>
      <point x="224.72131147540983" y="525.0327868852459" type="qcurve" smooth="yes"/>
      <point x="364.72131147540983" y="525.0327868852459" type="line" smooth="yes"/>
      <point x="522.0655737704918" y="525.0327868852459"/>
      <point x="522.0655737704918" y="367.27868852459017" type="qcurve" smooth="yes"/>
      <point x="522.0655737704918" y="157.75409836065575" type="line" smooth="yes"/>
      <point x="522.0655737704918" y="0.0"/>
      <point x="364.72131147540983" y="0.0" type="qcurve" smooth="yes"/>
      <point x="224.72131147540983" y="0.0" type="line" smooth="yes"/>
      <point x="66.9672131147541" y="0.0"/>
    </contour>
    <contour>
      <point x="183.9672131147541" y="211.4918032786885" type="line"/>
      <point x="400.42622950819674" y="400.62295081967216" type="line"/>
      <point x="390.8688524590164" y="423.0655737704918"/>
      <point x="359.27868852459017" y="423.0655737704918" type="qcurve" smooth="yes"/>
      <point x="229.75409836065575" y="423.0655737704918" type="line" smooth="yes"/>
      <point x="183.9672131147541" y="423.0655737704918"/>
      <point x="183.9672131147541" y="377.27868852459017" type="qcurve" smooth="yes"/>
    </contour>
    <contour>
      <point x="188.60655737704917" y="124.40983606557377" type="line"/>
      <point x="198.1639344262295" y="101.96721311475409"/>
      <point x="229.75409836065575" y="101.96721311475409" type="qcurve" smooth="yes"/>
      <point x="359.27868852459017" y="101.96721311475409" type="line" smooth="yes"/>
      <point x="405.0655737704918" y="101.96721311475409"/>
      <point x="405.0655737704918" y="147.75409836065575" type="qcurve" smooth="yes"/>
      <point x="405.0655737704918" y="313.54098360655735" type="line"/>
    </contour>
  </outline>
</glyph>
<glyph name="dcroat" format="2">
  <advance width="587.0327868852459"/>
  <unicode hex="0111"/>
  <outline>
    <contour>
      <point x="66.9672131147541" y="157.75409836065575" type="qcurve" smooth="yes"/>
      <point x="66.9672131147541" y="367.27868852459017" type="line" smooth="yes"/>
      <point x="66.9672131147541" y="525.0327868852459"/>
      <point x="224.72131147540983" y="525.0327868852459" type="qcurve" smooth="yes"/>
      <point x="395.0655737704918" y="525.0327868852459" type="line"/>
      <point x="395.0655737704918" y="591.4754098360655" type="line"/>
      <point x="236.9672131147541" y="591.4754098360655" type="line"/>
      <point x="236.9672131147541" y="673.5573770491803" type="line"/>
      <point x="395.0655737704918" y="673.5573770491803" type="line"/>
      <point x="395.0655737704918" y="740.0" type="line"/>
      <point x="512.0655737704918" y="740.0" type="line"/>
      <point x="512.0655737704918" y="673.5573770491803" type="line"/>
      <point x="581.1147540983607" y="673.5573770491803" type="line"/>
      <point x="581.1147540983607" y="591.4754098360655" type="line"/>
      <point x="512.0655737704918" y="591.4754098360655" type="line"/>
      <point x="512.0655737704918" y="0.0" type="line"/>
      <point x="224.72131147540983" y="0.0" type="line" smooth="yes"/>
      <point x="66.9672131147541" y="0.0"/>
    </contour>
    <contour>
      <point x="183.9672131147541" y="147.75409836065575" type="line" smooth="yes"/>
      <point x="183.9672131147541" y="101.96721311475409"/>
      <point x="229.75409836065575" y="101.96721311475409" type="qcurve" smooth="yes"/>
      <point x="395.0655737704918" y="101.96721311475409" type="line"/>
      <point x="395.0655737704918" y="423.0655737704918" type="line"/>
      <point x="229.75409836065575" y="423.0655737704918" type="line" smooth="yes"/>
      <point x="183.9672131147541" y="423.0655737704918"/>
      <point x="183.9672131147541" y="377.27868852459017" type="qcurve" smooth="yes"/>
    </contour>
  </outline>
</glyph>
<glyph name="dotlessi" format="2">
  <advance width="266.9344262295082"/>
  <unicode hex="0131"/>
  <outline>
    <contour>
      <point x="74.9672131147541" y="0.0" type="line"/>
      <point x="74.9672131147541" y="525.0327868852459" type="line"/>
      <point x="191.9672131147541" y="525.0327868852459" type="line"/>
      <point x="191.9672131147541" y="0.0" type="line"/>
    </contour>
  </outline>
</glyph>
<glyph name="Lslash" format="2">
  <advance width="565.311475409836"/>
  <unicode hex="0141"/>
  <outline>
    <contour>
      <point x="10.0" y="295.60655737704917" type="line"/>
      <point x="106.57377049180327" y="350.6885245901639" type="line"/>
      <point x="106.57377049180327" y="690.0" type="line"/>
      <point x="228.93442622950818" y="690.0" type="line"/>
      <point x="228.93442622950818" y="421.3606557377049" type="line"/>
      <point x="351.9672131147541" y="492.60655737704917" type="line"/>
      <point x="399.2950819672131" y="410.0327868852459" type="line"/>
      <point x="228.93442622950818" y="311.672131147541" type="line"/>
      <point x="228.93442622950818" y="110.68852459016394" type="line"/>
      <point x="541.311475409836" y="110.68852459016394" type="line"/>
      <point x="541.311475409836" y="0.0" type="line"/>
      <point x="106.57377049180327" y="0.0" type="line"/>
      <point x="106.57377049180327" y="241.18032786885246" type="line"/>
      <point x="57.91803278688525" y="212.44262295081967" type="line"/>
    </contour>
  </outline>
</glyph>
<glyph name="lslash" format="2">
  <advance width="313.0"/>
  <unicode hex="0142"/>
  <outline>
    <contour>
      <point x="-2.6229508196721305" y="342.9344262295082" type="line"/>
      <point x="86.0" y="394.42622950819674" type="line"/>
      <point x="86.0" y="740.0" type="line"/>
      <point x="203.0" y="740.0" type="line"/>
      <point x="203.0" y="461.73770491803276" type="line"/>
      <point x="269.8360655737705" y="501.0655737704918" type="line"/>
      <point x="314.39344262295083" y="423.0327868852459" type="line"/>
      <point x="203.0" y="359.3606557377049" type="line"/>
      <point x="203.0" y="162.29508196721312" type="line" smooth="yes"/>
      <point x="203.0" y="97.14754098360655"/>
      <point x="269.327868852459" y="92.19672131147541" type="qcurve"/>
      <point x="269.327868852459" y="-9.360655737704917" type="line"/>
      <point x="86.0" y="-9.360655737704917"/>
      <point x="86.0" y="173.9672131147541" type="qcurve" smooth="yes"/>
      <point x="86.0" y="291.45901639344265" type="line"/>
      <point x="41.75409836065574" y="265.4918032786885" type="line"/>
    </contour>
  </outline>
</glyph>
<glyph name="OE" format="2">
  <advance width="971.1147540983607"/>
  <unicode hex="0152"/>
  <outline>
    <contour>
      <point x="74.9672131147541" y="162.88524590163934" type="qcurve" smooth="yes"/>
      <point x="74.9672131147541" y="527.1147540983607" type="line" smooth="yes"/>
      <point x="74.9672131147541" y="690.0"/>
      <point x="237.85245901639345" y="690.0" type="qcurve" smooth="yes"/>
      <point x="921.1147540983607" y="690.0" type="line"/>
      <point x="921.1147540983607" y="579.311475409836" type="line"/>
      <point x="597.9016393442623" y="579.311475409836" type="line"/>
      <point x="597.9016393442623" y="412.78688524590166" type="line"/>
      <point x="891.1147540983607" y="412.78688524590166" type="line"/>
      <point x="891.1147540983607" y="302.0983606557377" type="line"/>
      <point x="597.9016393442623" y="302.0983606557377" type="line"/>
      <point x="597.9016393442623" y="110.68852459016394" type="line"/>
      <point x="921.1147540983607" y="110.68852459016394" type="line"/>
      <point x="921.1147540983607" y="0.0" type="line"/>
      <point x="237.85245901639345" y="0.0" type="line" smooth="yes"/>
      <point x="74.9672131147541" y="0.0"/>
    </contour>
    <contour>
      <point x="197.327868852459" y="154.0655737704918" type="line" smooth="yes"/>
      <point x="197.327868852459" y="110.68852459016394"/>
      <point x="241.11475409836066" y="110.68852459016394" type="qcurve" smooth="yes"/>
      <point x="475.54098360655735" y="110.68852459016394" type="line"/>
      <point x="475.54098360655735" y="579.311475409836" type="line"/>
      <point x="241.11475409836066" y="579.311475409836" type="line" smooth="yes"/>
      <point x="197.327868852459" y="579.311475409836"/>
      <point x="197.327868852459" y="535.9344262295082" type="qcurve" smooth="yes"/>
    </contour>
  </outline>
</glyph>
<glyph name="oe" format="2">
  <advance width="910.327868852459"/>
  <unicode hex="0153"/>
  <outline>
    <contour>
      <point x="66.9672131147541" y="157.75409836065575" type="qcurve" smooth="yes"/>
      <point x="66.9672131147541" y="367.27868852459017" type="line" smooth="yes"/>
      <point x="66.9672131147541" y="525.0327868852459"/>
      <point x="224.72131147540983" y="525.0327868852459" type="qcurve" smooth="yes"/>
      <point x="346.3606557377049" y="525.0327868852459" type="line" smooth="yes"/>
      <point x="422.5081967213115" y="525.0327868852459"/>
      <point x="460.4590163934426" y="480.11475409836066" type="qcurve"/>
      <point x="498.40983606557376" y="525.0327868852459"/>
      <point x="574.5573770491803" y="525.0327868852459" type="qcurve" smooth="yes"/>
      <point x="685.6065573770492" y="525.0327868852459" type="line" smooth="yes"/>
      <point x="843.360655737705" y="525.0327868852459"/>
      <point x="843.360655737705" y="367.27868852459017" type="qcurve" smooth="yes"/>
      <point x="843.360655737705" y="218.9344262295082" type="line"/>
      <point x="518.4590163934427" y="218.9344262295082" type="line"/>
      <point x="518.4590163934427" y="147.75409836065575" type="line" smooth="yes"/>
      <point x="518.4590163934427" y="101.96721311475409"/>
      <point x="564.2459016393443" y="101.96721311475409" type="qcurve" smooth="yes"/>
      <point x="823.360655737705" y="101.96721311475409" type="line"/>
      <point x="823.360655737705" y="39.295081967213115" type="line"/>
      <point x="770.5737704918033" y="0.0" type="line"/>
      <point x="574.5573770491803" y="0.0" type="line" smooth="yes"/>
      <point x="498.40983606557376" y="0.0"/>
      <point x="460.4590163934426" y="44.91803278688525" type="qcurve"/>
      <point x="422.5081967213115" y="0.0"/>
      <point x="346.3606557377049" y="0.0" type="qcurve" smooth="yes"/>
      <point x="224.72131147540983" y="0.0" type="line" smooth="yes"/>
      <point x="66.9672131147541" y="0.0"/>
    </contour>
    <contour>
      <point x="183.9672131147541" y="147.75409836065575" type="line" smooth="yes"/>
      <point x="183.9672131147541" y="101.96721311475409"/>
      <point x="229.75409836065575" y="101.96721311475409" type="qcurve" smooth="yes"/>
      <point x="355.672131147541" y="101.96721311475409" type="line" smooth="yes"/>
      <point x="401.45901639344265" y="101.96721311475409"/>
      <point x="401.45901639344265" y="147.75409836065575" type="qcurve" smooth="yes"/>
      <point x="401.45901639344265" y="377.27868852459017" type="line" smooth="yes"/>
      <point x="401.45901639344265" y="423.0655737704918"/>
      <point x="355.672131147541" y="423.0655737704918" type="qcurve" smooth="yes"/>
      <point x="229.75409836065575" y="423.0655737704918" type="line" smooth="yes"/>
      <point x="183.9672131147541" y="423.0655737704918"/>
      <point x="183.9672131147541" y="377.27868852459017" type="qcurve" smooth="yes"/>
    </contour>
    <contour>
      <point x="518.4590163934427" y="309.6885245901639" type="line"/>
      <point x="726.360655737705" y="309.6885245901639" type="line"/>
      <point x="726.360655737705" y="377.27868852459017" type="line" smooth="yes"/>
      <point x="726.360655737705" y="423.0655737704918"/>
      <point x="680.5737704918033" y="423.0655737704918" type="qcurve" smooth="yes"/>
      <point x="564.2459016393443" y="423.0655737704918" type="line" smooth="yes"/>
      <point x="518.4590163934427" y="423.0655737704918"/>
      <point x="518.4590163934427" y="377.27868852459017" type="qcurve" smooth="yes"/>
    </contour>
  </outline>
</glyph>
<glyph name="florin" format="2">
  <advance width="575.0327868852459"/>
  <unicode hex="0192"/>
  <outline>
    <contour>
      <point x="40.0" y="-52.18032786885246" type="line"/>
      <point x="139.18032786885246" y="-52.18032786885246" type="line" smooth="yes"/>
      <point x="184.9672131147541" y="-52.18032786885246"/>
      <point x="184.9672131147541" y="-6.39344262295082" type="qcurve" smooth="yes"/>
      <point x="184.9672131147541" y="582.2459016393443" type="line" smooth="yes"/>
      <point x="184.9672131147541" y="740.0"/>
      <point x="342.72131147540983" y="740.0" type="qcurve" smooth="yes"/>
      <point x="437.75409836065575" y="740.0" type="line"/>
      <point x="490.54098360655735" y="700.7049180327868" type="line"/>
      <point x="490.54098360655735" y="638.0327868852459" type="line"/>
      <point x="347.75409836065575" y="638.0327868852459" type="line" smooth="yes"/>
      <point x="301.9672131147541" y="638.0327868852459"/>
      <point x="301.9672131147541" y="592.2459016393443" type="qcurve" smooth="yes"/>
      <point x="301.9672131147541" y="525.0327868852459" type="line"/>
      <point x="480.54098360655735" y="525.0327868852459" type="line"/>
      <point x="480.54098360655735" y="423.0655737704918" type="line"/>
      <point x="301.9672131147541" y="423.0655737704918" type="line"/>
      <point x="301.9672131147541" y="3.60655737704918" type="line" smooth="yes"/>
      <point x="301.9672131147541" y="-154.14754098360655"/>
      <point x="144.21311475409834" y="-154.14754098360655" type="qcurve" smooth="yes"/>
      <point x="92.78688524590164" y="-154.14754098360655" type="line"/>
      <point x="40.0" y="-114.26229508196721" type="line"/>
    </contour>
  </outline>
</glyph>
<glyph name="uni0237" format="2">
  <advance width="266.9344262295082"/>
  <unicode hex="0237"/>
  <outline>
    <contour>
      <point x="-9.360655737704917" y="-110.1639344262295" type="line"/>
      <point x="74.9672131147541" y="-105.80327868852459"/>
      <point x="74.9672131147541" y="-22.065573770491802" type="qcurve" smooth="yes"/>
      <point x="74.9672131147541" y="525.0327868852459" type="line"/>
      <point x="191.9672131147541" y="525.0327868852459" type="line"/>
      <point x="191.9672131147541" y="-8.032786885245905" type="line" smooth="yes"/>
      <point x="191.9672131147541" y="-209.36065573770492"/>
      <point x="-9.360655737704917" y="-209.36065573770492" type="qcurve"/>
    </contour>
  </outline>
</glyph>
<glyph name="uni0300" format="2">
  <unicode hex="0300"/>
  <outline>
    <contour>
      <point x="-412.0655737704918" y="719.2950819672132" type="line"/>
      <point x="-346.60655737704917" y="781.8032786885246" type="line"/>
      <point x="-211.98360655737704" y="629.4590163934427" type="line"/>
      <point x="-268.9016393442623" y="574.7213114754098" type="line"/>
    </contour>
  </outline>
</glyph>
<glyph name="uni0301" format="2">
  <unicode hex="0301"/>
  <outline>
    <contour>
      <point x="-365.04918032786884" y="629.4590163934427" type="line"/>
      <point x="-230.4262295081967" y="781.8032786885246" type="line"/>
      <point x="-164.9672131147541" y="719.2950819672132" type="line"/>
      <point x="-308.5409836065574" y="575.1311475409836" type="line"/>
    </contour>
  </outline>
</glyph>
<glyph name="uni0302" format="2">
  <unicode hex="0302"/>
  <outline>
    <contour>
      <point x="-438.327868852459" y="635.6065573770492" type="line"/>
      <point x="-288.72131147540983" y="782.2131147540983" type="line"/>
      <point x="-138.70491803278688" y="635.6065573770492" type="line"/>
      <point x="-189.9016393442623" y="580.639344262295" type="line"/>
      <point x="-288.72131147540983" y="674.4590163934427" type="line"/>
      <point x="-387.1311475409836" y="580.639344262295" type="line"/>
    </contour>
  </outline>
</glyph>
<glyph name="uni0303" format="2">
  <unicode hex="0303"/>
  <outline>
    <contour>
      <point x="-457.45901639344265" y="647.1147540983607" type="line"/>
      <point x="-396.5245901639344" y="708.0491803278688" type="line" smooth="yes"/>
      <point x="-373.7049180327869" y="730.4590163934427"/>
      <point x="-307.5409836065574" y="730.4590163934427"/>
      <point x="-285.5409836065574" y="708.0491803278688" type="qcurve" smooth="yes"/>
      <point x="-247.9672131147541" y="670.4754098360655" type="line" smooth="yes"/>
      <point x="-241.27868852459017" y="663.7868852459017"/>
      <point x="-230.72131147540983" y="663.7868852459017"/>
      <point x="-224.0327868852459" y="670.4754098360655" type="qcurve" smooth="yes"/>
      <point x="-171.36065573770492" y="723.1475409836065" type="line"/>
      <point x="-119.57377049180329" y="671.360655737705" type="line"/>
      <point x="-180.50819672131146" y="610.4262295081967" type="line" smooth="yes"/>
      <point x="-202.91803278688525" y="588.016393442623"/>
      <point x="-269.08196721311475" y="588.016393442623"/>
      <point x="-291.4918032786885" y="610.4262295081967" type="qcurve" smooth="yes"/>
      <point x="-329.0655737704918" y="648.0" type="line" smooth="yes"/>
      <point x="-335.344262295082" y="654.688524590164"/>
      <point x="-345.9016393442623" y="654.688524590164"/>
      <point x="-353.0" y="648.0" type="qcurve" smooth="yes"/>
      <point x="-405.672131147541" y="595.327868852459" type="line"/>
    </contour>
  </outline>
</glyph>
<glyph name="uni0304" format="2">
  <unicode hex="0304"/>
  <outline>
    <contour>
      <point x="-428.78688524590166" y="620.1475409836065" type="line"/>
      <point x="-428.78688524590166" y="704.688524590164" type="line"/>
      <point x="-148.24590163934425" y="704.688524590164" type="line"/>
      <point x="-148.24590163934425" y="620.1475409836065" type="line"/>
    </contour>
  </outline>
</glyph>
<glyph name="uni0306" format="2">
  <unicode hex="0306"/>
  <outline>
    <contour>
      <point x="-421.655737704918" y="676.5737704918033" type="qcurve" smooth="yes"/>
      <point x="-421.655737704918" y="739.4262295081967" type="line"/>
      <point x="-351.37704918032784" y="739.4262295081967" type="line"/>
      <point x="-351.37704918032784" y="679.7049180327868" type="line" smooth="yes"/>
      <point x="-351.37704918032784" y="667.5081967213115"/>
      <point x="-339.1803278688525" y="667.5081967213115" type="qcurve" smooth="yes"/>
      <point x="-237.85245901639345" y="667.5081967213115" type="line" smooth="yes"/>
      <point x="-225.65573770491804" y="667.5081967213115"/>
      <point x="-225.65573770491804" y="679.7049180327868" type="qcurve" smooth="yes"/>
      <point x="-225.65573770491804" y="739.4262295081967" type="line"/>
      <point x="-155.37704918032787" y="739.4262295081967" type="line"/>
      <point x="-155.37704918032787" y="676.5737704918033" type="line" smooth="yes"/>
      <point x="-155.37704918032787" y="596.639344262295"/>
      <point x="-235.72131147540983" y="596.639344262295" type="qcurve" smooth="yes"/>
      <point x="-341.72131147540983" y="596.639344262295" type="line" smooth="yes"/>
      <point x="-421.655737704918" y="596.639344262295"/>
    </contour>
  </outline>
</glyph>
<glyph name="uni0307" format="2">
  <unicode hex="0307"/>
  <outline>
    <contour>
      <point x="-350.54098360655735" y="615.639344262295" type="line"/>
      <point x="-350.54098360655735" y="735.3934426229508" type="line"/>
      <point x="-226.49180327868854" y="735.3934426229508" type="line"/>
      <point x="-226.49180327868854" y="615.639344262295" type="line"/>
    </contour>
  </outline>
</glyph>
<glyph name="uni0308" format="2">
  <unicode hex="0308"/>
  <outline>
    <contour>
      <point x="-437.4918032786885" y="607.016393442623" type="line"/>
      <point x="-437.4918032786885" y="717.8688524590164" type="line"/>
      <point x="-332.327868852459" y="717.8688524590164" type="line"/>
      <point x="-332.327868852459" y="607.016393442623" type="line"/>
    </contour>
    <contour>
      <point x="-245.11475409836066" y="607.016393442623" type="line"/>
      <point x="-245.11475409836066" y="717.8688524590164" type="line"/>
      <point x="-139.95081967213116" y="717.8688524590164" type="line"/>
      <point x="-139.95081967213116" y="607.016393442623" type="line"/>
    </contour>
  </outline>
</glyph>
<glyph name="uni030A" format="2">
  <unicode hex="030A"/>
  <outline>
    <contour>
      <point x="-399.42622950819674" y="645.8524590163935" type="qcurve" smooth="yes"/>
      <point x="-399.42622950819674" y="704.6229508196722" type="line" smooth="yes"/>
      <point x="-399.42622950819674" y="780.016393442623"/>
      <point x="-323.44262295081967" y="780.016393442623" type="qcurve" smooth="yes"/>
      <point x="-253.59016393442624" y="780.016393442623" type="line" smooth="yes"/>
      <point x="-177.60655737704917" y="780.016393442623"/>
      <point x="-177.60655737704917" y="704.6229508196722" type="qcurve" smooth="yes"/>
      <point x="-177.60655737704917" y="645.8524590163935" type="line" smooth="yes"/>
      <point x="-177.60655737704917" y="570.4590163934427"/>
      <point x="-253.59016393442624" y="570.4590163934427" type="qcurve" smooth="yes"/>
      <point x="-323.44262295081967" y="570.4590163934427" type="line" smooth="yes"/>
      <point x="-399.42622950819674" y="570.4590163934427"/>
    </contour>
    <contour>
      <point x="-330.9672131147541" y="643.4426229508197" type="line" smooth="yes"/>
      <point x="-330.9672131147541" y="630.016393442623"/>
      <point x="-317.5409836065574" y="630.016393442623" type="qcurve" smooth="yes"/>
      <point x="-259.9016393442623" y="630.016393442623" type="line" smooth="yes"/>
      <point x="-246.0655737704918" y="630.016393442623"/>
      <point x="-246.0655737704918" y="643.4426229508197" type="qcurve" smooth="yes"/>
      <point x="-246.0655737704918" y="707.0327868852459" type="line" smooth="yes"/>
      <point x="-246.0655737704918" y="720.4590163934427"/>
      <point x="-259.9016393442623" y="720.4590163934427" type="qcurve" smooth="yes"/>
      <point x="-317.5409836065574" y="720.4590163934427" type="line" smooth="yes"/>
      <point x="-330.9672131147541" y="720.4590163934427"/>
      <point x="-330.9672131147541" y="707.0327868852459" type="qcurve" smooth="yes"/>
    </contour>
  </outline>
</glyph>
<glyph name="uni030B" format="2">
  <unicode hex="030B"/>
  <outline>
    <contour>
      <point x="-439.57377049180326" y="623.1475409836065" type="line"/>
      <point x="-324.8524590163934" y="782.2131147540983" type="line"/>
      <point x="-254.21311475409837" y="726.7868852459017" type="line"/>
      <point x="-379.11475409836066" y="574.7213114754098" type="line"/>
    </contour>
    <contour>
      <point x="-261.78688524590166" y="623.1475409836065" type="line"/>
      <point x="-147.0655737704918" y="782.2131147540983" type="line"/>
      <point x="-75.8360655737705" y="726.7868852459017" type="line"/>
      <point x="-201.327868852459" y="574.7213114754098" type="line"/>
    </contour>
  </outline>
</glyph>
<glyph name="uni030C" format="2">
  <unicode hex="030C"/>
  <outline>
    <contour>
      <point x="-438.327868852459" y="717.655737704918" type="line"/>
      <point x="-387.1311475409836" y="772.2131147540983" type="line"/>
      <point x="-288.72131147540983" y="678.8032786885246" type="line"/>
      <point x="-189.9016393442623" y="772.2131147540983" type="line"/>
      <point x="-138.70491803278688" y="717.655737704918" type="line"/>
      <point x="-288.72131147540983" y="570.639344262295" type="line"/>
    </contour>
  </outline>
</glyph>
<glyph name="uni0326" format="2">
  <unicode hex="0326"/>
  <outline>
    <contour>
      <point x="-370.1475409836066" y="-180.50819672131146" type="line"/>
      <point x="-337.8688524590164" y="-50.0" type="line"/>
      <point x="-248.19672131147541" y="-50.0" type="line"/>
      <point x="-235.70491803278688" y="-68.26229508196721" type="line"/>
      <point x="-289.88524590163934" y="-203.49180327868854" type="line"/>
    </contour>
  </outline>
</glyph>
<glyph name="uni0327" format="2">
  <unicode hex="0327"/>
  <outline>
    <contour>
      <point x="-399.672131147541" y="-101.45901639344262" type="line"/>
      <point x="-300.72131147540983" y="-101.45901639344262" type="line" smooth="yes"/>
      <point x="-279.5081967213115" y="-101.45901639344262"/>
      <point x="-279.5081967213115" y="-80.24590163934427" type="qcurve" smooth="yes"/>
      <point x="-279.5081967213115" y="50.68852459016394" type="line"/>
      <point x="-188.5737704918033" y="50.68852459016394" type="line"/>
      <point x="-188.5737704918033" y="-69.9344262295082" type="line" smooth="yes"/>
      <point x="-188.5737704918033" y="-183.672131147541"/>
      <point x="-302.3114754098361" y="-183.672131147541" type="qcurve" smooth="yes"/>
      <point x="-357.78688524590166" y="-183.672131147541" type="line"/>
      <point x="-399.672131147541" y="-151.327868852459" type="line"/>
    </contour>
  </outline>
</glyph>
<glyph name="uni0328" format="2">
  <unicode hex="0328"/>
  <outline>
    <contour>
      <point x="-376.45901639344265" y="-31.524590163934427" type="line" smooth="yes"/>
      <point x="-376.45901639344265" y="82.21311475409836"/>
      <point x="-262.72131147540983" y="82.21311475409836" type="qcurve" smooth="yes"/>
      <point x="-241.0327868852459" y="82.21311475409836" type="line"/>
      <point x="-241.0327868852459" y="0.0" type="line"/>
      <point x="-265.5409836065574" y="0.0" type="line" smooth="yes"/>
      <point x="-285.9344262295082" y="0.0"/>
      <point x="-285.9344262295082" y="-20.393442622950822" type="qcurve" smooth="yes"/>
      <point x="-285.9344262295082" y="-81.06557377049181" type="line" smooth="yes"/>
      <point x="-285.9344262295082" y="-101.45901639344262"/>
      <point x="-265.5409836065574" y="-101.45901639344262" type="qcurve" smooth="yes"/>
      <point x="-169.36065573770492" y="-101.45901639344262" type="line"/>
      <point x="-169.36065573770492" y="-151.327868852459" type="line"/>
      <point x="-211.24590163934425" y="-183.672131147541" type="line"/>
      <point x="-262.72131147540983" y="-183.672131147541" type="line" smooth="yes"/>
      <point x="-376.45901639344265" y="-183.672131147541"/>
      <point x="-376.45901639344265" y="-69.9344262295082" type="qcurve" smooth="yes"/>
    </contour>
  </outline>
</glyph>
<glyph name="pi" format="2">
  <advance width="595.0327868852459"/>
  <unicode hex="03C0"/>
  <outline>
    <contour>
      <point x="74.9672131147541" y="0.0" type="line"/>
      <point x="74.9672131147541" y="525.0327868852459" type="line"/>
      <point x="520.0655737704918" y="525.0327868852459" type="line"/>
      <point x="520.0655737704918" y="0.0" type="line"/>
      <point x="403.0655737704918" y="0.0" type="line"/>
      <point x="403.0655737704918" y="423.0655737704918" type="line"/>
      <point x="191.9672131147541" y="423.0655737704918" type="line"/>
      <point x="191.9672131147541" y="0.0" type="line"/>
    </contour>
  </outline>
</glyph>
<glyph name="uni1E9E" format="2">
  <advance width="695.4262295081967"/>
  <unicode hex="1E9E"/>
  <outline>
    <contour>
      <point x="78.9672131147541" y="0.0" type="line"/>
      <point x="78.9672131147541" y="527.1147540983607" type="line" smooth="yes"/>
      <point x="78.9672131147541" y="690.0"/>
      <point x="241.85245901639345" y="690.0" type="qcurve" smooth="yes"/>
      <point x="574.0655737704918" y="690.0" type="line"/>
      <point x="574.0655737704918" y="594.5245901639345" type="line"/>
      <point x="437.983606557377" y="412.78688524590166" type="line"/>
      <point x="485.8360655737705" y="412.78688524590166" type="line" smooth="yes"/>
      <point x="640.4590163934427" y="412.78688524590166"/>
      <point x="640.4590163934427" y="244.0" type="qcurve" smooth="yes"/>
      <point x="640.4590163934427" y="162.88524590163934" type="line" smooth="yes"/>
      <point x="640.4590163934427" y="0.0"/>
      <point x="478.1639344262295" y="0.0" type="qcurve" smooth="yes"/>
      <point x="341.8524590163934" y="0.0" type="line"/>
      <point x="283.11475409836066" y="45.65573770491803" type="line"/>
      <point x="283.11475409836066" y="110.68852459016394" type="line"/>
      <point x="474.72131147540983" y="110.68852459016394" type="line" smooth="yes"/>
      <point x="518.0983606557377" y="110.68852459016394"/>
      <point x="518.0983606557377" y="154.0655737704918" type="qcurve" smooth="yes"/>
      <point x="518.0983606557377" y="258.72131147540983" type="line" smooth="yes"/>
      <point x="518.0983606557377" y="302.0983606557377"/>
      <point x="474.72131147540983" y="302.0983606557377" type="qcurve" smooth="yes"/>
      <point x="296.72131147540983" y="302.0983606557377" type="line"/>
      <point x="296.72131147540983" y="398.1639344262295" type="line"/>
      <point x="432.8032786885246" y="579.311475409836" type="line"/>
      <point x="245.11475409836066" y="579.311475409836" type="line" smooth="yes"/>
      <point x="201.327868852459" y="579.311475409836"/>
      <point x="201.327868852459" y="535.9344262295082" type="qcurve" smooth="yes"/>
      <point x="201.327868852459" y="0.0" type="line"/>
    </contour>
  </outline>
</glyph>
<glyph name="endash" format="2">
  <advance width="580.0"/>
  <unicode hex="2013"/>
  <outline>
    <contour>
      <point x="40.0" y="254.49180327868854" type="line"/>
      <point x="40.0" y="355.5081967213115" type="line"/>
      <point x="540.0" y="355.5081967213115" type="line"/>
      <point x="540.0" y="254.49180327868854" type="line"/>
    </contour>
  </outline>
</glyph>
<glyph name="emdash" format="2">
  <advance width="1000.0"/>
  <unicode hex="2014"/>
  <outline>
    <contour>
      <point x="40.0" y="254.49180327868854" type="line"/>
      <point x="40.0" y="355.5081967213115" type="line"/>
      <point x="960.0" y="355.5081967213115" type="line"/>
      <point x="960.0" y="254.49180327868854" type="line"/>
    </contour>
  </outline>
</glyph>
<glyph name="quoteleft" format="2">
  <advance width="271.42622950819674"/>
  <unicode hex="2018"/>
  <outline>
    <contour>
      <point x="46.131147540983605" y="498.59016393442624" type="line"/>
      <point x="143.60655737704917" y="756.3934426229508" type="line"/>
      <point x="230.54098360655738" y="734.8196721311475" type="line"/>
      <point x="162.68852459016392" y="479.7377049180328" type="line"/>
      <point x="58.0327868852459" y="479.7377049180328" type="line"/>
    </contour>
  </outline>
</glyph>
<glyph name="quoteright" format="2">
  <advance width="271.42622950819674"/>
  <unicode hex="2019"/>
  <outline>
    <contour>
      <point x="40.49180327868852" y="485.91803278688525" type="line"/>
      <point x="108.34426229508196" y="740.0" type="line"/>
      <point x="213.0" y="740.0" type="line"/>
      <point x="224.9016393442623" y="721.7377049180328" type="line"/>
      <point x="127.42622950819671" y="463.344262295082" type="line"/>
    </contour>
  </outline>
</glyph>
<glyph name="quotesinglbase" format="2">
  <advance width="271.42622950819674"/>
  <unicode hex="201A"/>
  <outline>
    <contour>
      <point x="25.606557377049178" y="-124.81967213114754" type="line"/>
      <point x="93.45901639344262" y="130.2622950819672" type="line"/>
      <point x="197.11475409836066" y="130.2622950819672" type="line"/>
      <point x="209.60655737704917" y="111.40983606557377" type="line"/>
      <point x="112.54098360655738" y="-146.39344262295083" type="line"/>
    </contour>
  </outline>
</glyph>
<glyph name="dagger" format="2">
  <advance width="495.0327868852459"/>
  <unicode hex="2020"/>
  <outline>
    <contour>
      <point x="50.0" y="404.4918032786885" type="line"/>
      <point x="50.0" y="505.5081967213115" type="line"/>
      <point x="194.44262295081967" y="505.5081967213115" type="line"/>
      <point x="194.44262295081967" y="690.0" type="line"/>
      <point x="301.0" y="690.0" type="line"/>
      <point x="301.0" y="505.5081967213115" type="line"/>
      <point x="445.0327868852459" y="505.5081967213115" type="line"/>
      <point x="445.0327868852459" y="404.4918032786885" type="line"/>
      <point x="301.0" y="404.4918032786885" type="line"/>
      <point x="301.0" y="-100.0" type="line"/>
      <point x="194.44262295081967" y="-100.0" type="line"/>
      <point x="194.44262295081967" y="404.4918032786885" type="line"/>
    </contour>
  </outline>
</glyph>
<glyph name="daggerdbl" format="2">
  <advance width="495.0327868852459"/>
  <unicode hex="2021"/>
  <outline>
    <contour>
      <point x="50.0" y="84.49180327868852" type="line"/>
      <point x="50.0" y="185.50819672131146" type="line"/>
      <point x="194.44262295081967" y="185.50819672131146" type="line"/>
      <point x="194.44262295081967" y="404.4918032786885" type="line"/>
      <point x="50.0" y="404.4918032786885" type="line"/>
      <point x="50.0" y="505.5081967213115" type="line"/>
      <point x="194.44262295081967" y="505.5081967213115" type="line"/>
      <point x="194.44262295081967" y="690.0" type="line"/>
      <point x="301.0" y="690.0" type="line"/>
      <point x="301.0" y="505.5081967213115" type="line"/>
      <point x="445.0327868852459" y="505.5081967213115" type="line"/>
      <point x="445.0327868852459" y="404.4918032786885" type="line"/>
      <point x="301.0" y="404.4918032786885" type="line"/>
      <point x="301.0" y="185.50819672131146" type="line"/>
      <point x="445.0327868852459" y="185.50819672131146" type="line"/>
      <point x="445.0327868852459" y="84.49180327868852" type="line"/>
      <point x="301.0" y="84.49180327868852" type="line"/>
      <point x="301.0" y="-100.0" type="line"/>
      <point x="194.44262295081967" y="-100.0" type="line"/>
      <point x="194.44262295081967" y="84.49180327868852" type="line"/>
    </contour>
  </outline>
</glyph>
<glyph name="bullet" format="2">
  <advance width="365.0327868852459"/>
  <unicode hex="2022"/>
  <outline>
    <contour>
      <point x="73.21311475409836" y="248.85245901639345" type="line"/>
      <point x="73.21311475409836" y="471.1475409836066" type="line"/>
      <point x="292.2295081967213" y="471.1475409836066" type="line"/>
      <point x="292.2295081967213" y="248.85245901639345" type="line"/>
    </contour>
  </outline>
</glyph>
<glyph name="guilsinglleft" format="2">
  <advance width="329.0655737704918"/>
  <unicode hex="2039"/>
  <outline>
    <contour>
      <point x="30.0" y="315.0" type="line"/>
      <point x="216.1639344262295" y="549.1147540983607" type="line"/>
      <point x="289.0655737704918" y="488.88524590163934" type="line"/>
      <point x="154.63934426229508" y="315.0" type="line"/>
      <point x="289.0655737704918" y="141.11475409836066" type="line"/>
      <point x="216.1639344262295" y="80.88524590163934" type="line"/>
    </contour>
  </outline>
</glyph>
<glyph name="guilsinglright" format="2">
  <advance width="329.0655737704918"/>
  <unicode hex="203A"/>
  <outline>
    <contour>
      <point x="40.0" y="141.11475409836066" type="line"/>
      <point x="173.8360655737705" y="315.0" type="line"/>
      <point x="40.0" y="488.88524590163934" type="line"/>
      <point x="112.90163934426229" y="549.1147540983607" type="line"/>
      <point x="299.0655737704918" y="315.0" type="line"/>
      <point x="112.90163934426229" y="80.88524590163934" type="line"/>
    </contour>
  </outline>
</glyph>
<glyph name="fraction" format="2">
  <advance width="146.39344262295083"/>
  <unicode hex="2044"/>
  <outline>
    <contour>
      <point x="-134.88524590163934" y="36.39344262295082" type="line"/>
      <point x="195.11475409836066" y="696.3934426229508" type="line"/>
      <point x="280.6885245901639" y="653.6065573770492" type="line"/>
      <point x="-49.31147540983606" y="-6.39344262295082" type="line"/>
    </contour>
  </outline>
</glyph>
<glyph name="uni2070" format="2">
  <advance width="363.672131147541"/>
  <unicode hex="2070"/>
  <outline>
    <contour>
      <point x="36.32786885245902" y="390.0655737704918" type="qcurve" smooth="yes"/>
      <point x="36.32786885245902" y="576.2622950819672" type="line" smooth="yes"/>
      <point x="36.32786885245902" y="690.0"/>
      <point x="150.0655737704918" y="690.0" type="qcurve" smooth="yes"/>
      <point x="214.01639344262296" y="690.0" type="line" smooth="yes"/>
      <point x="327.75409836065575" y="690.0"/>
      <point x="327.75409836065575" y="576.2622950819672" type="qcurve" smooth="yes"/>
      <point x="327.75409836065575" y="390.0655737704918" type="line" smooth="yes"/>
      <point x="327.75409836065575" y="276.327868852459"/>
      <point x="214.01639344262296" y="276.327868852459" type="qcurve" smooth="yes"/>
      <point x="150.0655737704918" y="276.327868852459" type="line" smooth="yes"/>
      <point x="36.32786885245902" y="276.327868852459"/>
    </contour>
    <contour>
      <point x="128.21311475409834" y="381.11475409836066" type="line" smooth="yes"/>
      <point x="128.21311475409834" y="359.9016393442623"/>
      <point x="149.4262295081967" y="359.9016393442623" type="qcurve" smooth="yes"/>
      <point x="214.24590163934425" y="359.9016393442623" type="line" smooth="yes"/>
      <point x="235.45901639344262" y="359.9016393442623"/>
      <point x="235.45901639344262" y="381.11475409836066" type="qcurve" smooth="yes"/>
      <point x="235.45901639344262" y="585.2131147540983" type="line" smooth="yes"/>
      <point x="235.45901639344262" y="606.4262295081967"/>
      <point x="214.24590163934425" y="606.4262295081967" type="qcurve" smooth="yes"/>
      <point x="149.4262295081967" y="606.4262295081967" type="line" smooth="yes"/>
      <point x="128.21311475409834" y="606.4262295081967"/>
      <point x="128.21311475409834" y="585.2131147540983" type="qcurve" smooth="yes"/>
    </contour>
  </outline>
</glyph>
<glyph name="uni2074" format="2">
  <advance width="363.672131147541"/>
  <unicode hex="2074"/>
  <outline>
    <contour>
      <point x="36.32786885245902" y="335.54098360655735" type="line"/>
      <point x="36.32786885245902" y="412.1639344262295" type="line"/>
      <point x="150.18032786885246" y="690.0" type="line"/>
      <point x="228.80327868852459" y="690.0" type="line"/>
      <point x="239.52459016393442" y="671.7377049180328" type="line"/>
      <point x="139.75409836065575" y="419.11475409836066" type="line"/>
      <point x="235.45901639344262" y="419.11475409836066" type="line"/>
      <point x="235.45901639344262" y="524.0327868852459" type="line"/>
      <point x="327.75409836065575" y="524.0327868852459" type="line"/>
      <point x="327.75409836065575" y="276.327868852459" type="line"/>
      <point x="235.45901639344262" y="276.327868852459" type="line"/>
      <point x="235.45901639344262" y="335.54098360655735" type="line"/>
    </contour>
  </outline>
</glyph>
